<svg width="24" height="25" viewBox="0 0 24 25" fill="none" xmlns="http://www.w3.org/2000/svg">
<g clip-path="url(#clip0_534_540)">
<path d="M24 12.9053C24 6.27785 18.6274 0.905273 12 0.905273C5.37258 0.905273 0 6.27785 0 12.9053C0 18.8947 4.3882 23.8593 10.125 24.7595V16.374H7.07812V12.9053H10.125V10.2615C10.125 7.25402 11.9166 5.59277 14.6576 5.59277C15.9701 5.59277 17.3438 5.82715 17.3438 5.82715V8.78027H15.8306C14.34 8.78027 13.875 9.70535 13.875 10.6553V12.9053H17.2031L16.6711 16.374H13.875V24.7595C19.6118 23.8593 24 18.8947 24 12.9053Z" fill="#EEF4C3"/>
</g>
<defs>
<clipPath id="clip0_534_540">
<rect width="24" height="24" fill="white" transform="translate(0 0.905273)"/>
</clipPath>
</defs>
</svg>
