<svg width="963" height="283" viewBox="0 0 963 283" fill="none" xmlns="http://www.w3.org/2000/svg">
<path d="M179 281V196.5L550 192V156.5H760L753.5 103L805 123.5L767 251L179 281Z" fill="#C8E2B0" stroke="#6CAD55" stroke-width="3"/>
<rect x="556" y="163" width="20" height="57" fill="#ADD18C" stroke="#6CAD55" stroke-width="2"/>
<rect x="583" y="163" width="20" height="57" fill="#ADD18C" stroke="#6CAD55" stroke-width="2"/>
<rect x="610" y="163" width="20" height="57" fill="#ADD18C" stroke="#6CAD55" stroke-width="2"/>
<rect x="637" y="163" width="20" height="57" fill="#ADD18C" stroke="#6CAD55" stroke-width="2"/>
<rect x="664" y="163" width="20" height="56" fill="#ADD18C" stroke="#6CAD55" stroke-width="2"/>
<rect x="691" y="163" width="20" height="53" fill="#ADD18C" stroke="#6CAD55" stroke-width="2"/>
<rect x="718" y="163" width="20" height="53" fill="#6CAD55" stroke="#6CAD55" stroke-width="2"/>
<rect x="745" y="163" width="20" height="53" fill="#ADD18C" stroke="#6CAD55" stroke-width="2"/>
<rect x="556" y="228" width="20" height="27" fill="#ADD18C" stroke="#6CAD55" stroke-width="2"/>
<rect x="528" y="229" width="20" height="27" fill="#ADD18C" stroke="#6CAD55" stroke-width="2"/>
<rect x="500" y="230" width="20" height="27" fill="#ADD18C" stroke="#6CAD55" stroke-width="2"/>
<rect x="472" y="231" width="20" height="27" fill="#ADD18C" stroke="#6CAD55" stroke-width="2"/>
<rect x="444" y="232" width="20" height="27" fill="#ADD18C" stroke="#6CAD55" stroke-width="2"/>
<rect x="416" y="233" width="20" height="27" fill="#ADD18C" stroke="#6CAD55" stroke-width="2"/>
<rect x="388" y="234" width="20" height="27" fill="#ADD18C" stroke="#6CAD55" stroke-width="2"/>
<rect x="360" y="235" width="20" height="27" fill="#ADD18C" stroke="#6CAD55" stroke-width="2"/>
<rect x="332" y="236" width="20" height="27" fill="#ADD18C" stroke="#6CAD55" stroke-width="2"/>
<rect x="304" y="237" width="20" height="27" fill="#ADD18C" stroke="#6CAD55" stroke-width="2"/>
<rect x="276" y="238" width="20" height="27" fill="#ADD18C" stroke="#6CAD55" stroke-width="2"/>
<rect x="248" y="239" width="20" height="27" fill="#ADD18C" stroke="#6CAD55" stroke-width="2"/>
<rect x="220" y="240" width="20" height="27" fill="#ADD18C" stroke="#6CAD55" stroke-width="2"/>
<rect x="192" y="241" width="20" height="27" fill="#ADD18C" stroke="#6CAD55" stroke-width="2"/>
<rect x="192" y="205" width="20" height="27" fill="#6CAD55" stroke="#6CAD55" stroke-width="2"/>
<rect x="220" y="204" width="20" height="27" fill="#ADD18C" stroke="#6CAD55" stroke-width="2"/>
<rect x="248" y="203" width="20" height="27" fill="#ADD18C" stroke="#6CAD55" stroke-width="2"/>
<rect x="276" y="202" width="20" height="27" fill="#ADD18C" stroke="#6CAD55" stroke-width="2"/>
<rect x="304" y="202" width="20" height="27" fill="#ADD18C" stroke="#6CAD55" stroke-width="2"/>
<rect x="332" y="201" width="20" height="27" fill="#ADD18C" stroke="#6CAD55" stroke-width="2"/>
<rect x="360" y="200" width="20" height="27" fill="#ADD18C" stroke="#6CAD55" stroke-width="2"/>
<rect x="388" y="198" width="20" height="27" fill="#ADD18C" stroke="#6CAD55" stroke-width="2"/>
<rect x="416" y="199" width="20" height="27" fill="#ADD18C" stroke="#6CAD55" stroke-width="2"/>
<rect x="444" y="198" width="20" height="27" fill="#ADD18C" stroke="#6CAD55" stroke-width="2"/>
<rect x="472" y="197" width="20" height="27" fill="#ADD18C" stroke="#6CAD55" stroke-width="2"/>
<rect x="500" y="196" width="20" height="27" fill="#ADD18C" stroke="#6CAD55" stroke-width="2"/>
<rect x="528" y="195" width="20" height="27" fill="#ADD18C" stroke="#6CAD55" stroke-width="2"/>
<rect x="583" y="227" width="20" height="27" fill="#ADD18C" stroke="#6CAD55" stroke-width="2"/>
<rect x="610" y="226" width="20" height="27" fill="#ADD18C" stroke="#6CAD55" stroke-width="2"/>
<rect x="637" y="225" width="20" height="27" fill="#ADD18C" stroke="#6CAD55" stroke-width="2"/>
<rect x="664" y="225" width="20" height="25" fill="#ADD18C" stroke="#6CAD55" stroke-width="2"/>
<rect x="691" y="222" width="20" height="27" fill="#ADD18C" stroke="#6CAD55" stroke-width="2"/>
<rect x="718" y="221" width="20" height="27" fill="#ADD18C" stroke="#6CAD55" stroke-width="2"/>
<rect x="745" y="221" width="20" height="27" fill="#ADD18C" stroke="#6CAD55" stroke-width="2"/>
<path d="M203.5 210V87.5M203.5 87.5H0.5M203.5 87.5H417.5" stroke="#6CAD55" stroke-width="4" stroke-dasharray="6 6"/>
<path d="M561.55 21.29C561.55 23.01 561.41 24.55 561.13 25.91C560.87 27.27 560.44 28.43 559.84 29.39C559.26 30.33 558.49 31.05 557.53 31.55C556.59 32.05 555.43 32.3 554.05 32.3C552.33 32.3 550.92 31.86 549.82 30.98C548.72 30.1 547.9 28.84 547.36 27.2C546.84 25.56 546.58 23.59 546.58 21.29C546.58 18.97 546.82 16.99 547.3 15.35C547.78 13.71 548.57 12.45 549.67 11.57C550.77 10.69 552.23 10.25 554.05 10.25C555.77 10.25 557.18 10.69 558.28 11.57C559.38 12.43 560.2 13.69 560.74 15.35C561.28 16.99 561.55 18.97 561.55 21.29ZM551.08 21.29C551.08 22.91 551.17 24.27 551.35 25.37C551.53 26.45 551.83 27.27 552.25 27.83C552.69 28.37 553.29 28.64 554.05 28.64C554.81 28.64 555.4 28.37 555.82 27.83C556.26 27.29 556.57 26.48 556.75 25.4C556.95 24.3 557.05 22.93 557.05 21.29C557.05 19.65 556.95 18.29 556.75 17.21C556.57 16.11 556.26 15.29 555.82 14.75C555.4 14.19 554.81 13.91 554.05 13.91C553.29 13.91 552.69 14.19 552.25 14.75C551.83 15.29 551.53 16.11 551.35 17.21C551.17 18.29 551.08 19.65 551.08 21.29ZM571.248 10.31C572.488 10.31 573.618 10.5 574.638 10.88C575.678 11.26 576.508 11.83 577.128 12.59C577.768 13.35 578.088 14.31 578.088 15.47C578.088 16.33 577.918 17.09 577.578 17.75C577.238 18.39 576.778 18.95 576.198 19.43C575.638 19.91 574.988 20.33 574.248 20.69C575.008 21.09 575.728 21.56 576.408 22.1C577.108 22.62 577.668 23.24 578.088 23.96C578.528 24.66 578.748 25.49 578.748 26.45C578.748 27.63 578.428 28.66 577.788 29.54C577.168 30.42 576.288 31.1 575.148 31.58C574.028 32.06 572.728 32.3 571.248 32.3C569.648 32.3 568.288 32.07 567.168 31.61C566.048 31.15 565.188 30.49 564.588 29.63C564.008 28.77 563.718 27.75 563.718 26.57C563.718 25.59 563.898 24.74 564.258 24.02C564.638 23.3 565.138 22.68 565.758 22.16C566.378 21.62 567.068 21.17 567.828 20.81C567.188 20.41 566.608 19.96 566.088 19.46C565.568 18.94 565.148 18.36 564.828 17.72C564.528 17.06 564.378 16.3 564.378 15.44C564.378 14.3 564.698 13.35 565.338 12.59C565.978 11.83 566.818 11.26 567.858 10.88C568.918 10.5 570.048 10.31 571.248 10.31ZM567.918 26.3C567.918 27.08 568.188 27.72 568.728 28.22C569.288 28.72 570.108 28.97 571.188 28.97C571.948 28.97 572.568 28.86 573.048 28.64C573.548 28.42 573.918 28.11 574.158 27.71C574.418 27.31 574.548 26.85 574.548 26.33C574.548 25.79 574.388 25.32 574.068 24.92C573.748 24.5 573.348 24.13 572.868 23.81C572.408 23.47 571.928 23.16 571.428 22.88L571.038 22.67C570.418 22.95 569.868 23.27 569.388 23.63C568.928 23.99 568.568 24.39 568.308 24.83C568.048 25.25 567.918 25.74 567.918 26.3ZM571.218 13.61C570.478 13.61 569.858 13.8 569.358 14.18C568.878 14.56 568.638 15.1 568.638 15.8C568.638 16.28 568.758 16.71 568.998 17.09C569.238 17.45 569.558 17.77 569.958 18.05C570.358 18.31 570.788 18.56 571.248 18.8C571.708 18.58 572.128 18.34 572.508 18.08C572.908 17.82 573.228 17.51 573.468 17.15C573.708 16.77 573.828 16.32 573.828 15.8C573.828 15.1 573.578 14.56 573.078 14.18C572.598 13.8 571.978 13.61 571.218 13.61ZM594.439 32H589.969V9.2H594.439V32ZM613.99 23.78C613.99 25.14 613.8 26.35 613.42 27.41C613.06 28.47 612.53 29.37 611.83 30.11C611.15 30.83 610.32 31.38 609.34 31.76C608.36 32.12 607.25 32.3 606.01 32.3C604.87 32.3 603.81 32.12 602.83 31.76C601.87 31.38 601.04 30.83 600.34 30.11C599.64 29.37 599.09 28.47 598.69 27.41C598.31 26.35 598.12 25.14 598.12 23.78C598.12 21.96 598.44 20.43 599.08 19.19C599.72 17.93 600.64 16.97 601.84 16.31C603.04 15.65 604.46 15.32 606.1 15.32C607.64 15.32 609 15.65 610.18 16.31C611.36 16.97 612.29 17.93 612.97 19.19C613.65 20.43 613.99 21.96 613.99 23.78ZM602.68 23.78C602.68 24.86 602.79 25.77 603.01 26.51C603.25 27.23 603.62 27.78 604.12 28.16C604.62 28.52 605.27 28.7 606.07 28.7C606.87 28.7 607.51 28.52 607.99 28.16C608.49 27.78 608.85 27.23 609.07 26.51C609.31 25.77 609.43 24.86 609.43 23.78C609.43 22.7 609.31 21.8 609.07 21.08C608.85 20.36 608.49 19.82 607.99 19.46C607.49 19.1 606.84 18.92 606.04 18.92C604.86 18.92 604 19.33 603.46 20.15C602.94 20.95 602.68 22.16 602.68 23.78ZM624.584 28.73C625.084 28.73 625.564 28.68 626.024 28.58C626.484 28.48 626.944 28.36 627.404 28.22V31.55C626.924 31.75 626.324 31.92 625.604 32.06C624.904 32.22 624.134 32.3 623.294 32.3C622.314 32.3 621.434 32.14 620.654 31.82C619.894 31.5 619.284 30.95 618.824 30.17C618.384 29.37 618.164 28.27 618.164 26.87V18.98H616.034V17.09L618.494 15.59L619.784 12.14H622.634V15.62H627.224V18.98H622.634V26.87C622.634 27.49 622.814 27.96 623.174 28.28C623.534 28.58 624.004 28.73 624.584 28.73ZM637.442 15.32C638.962 15.32 640.262 15.61 641.342 16.19C642.442 16.77 643.292 17.61 643.892 18.71C644.492 19.81 644.792 21.16 644.792 22.76V24.92H634.232C634.272 26.18 634.642 27.17 635.342 27.89C636.062 28.61 637.052 28.97 638.312 28.97C639.372 28.97 640.332 28.87 641.192 28.67C642.052 28.45 642.942 28.12 643.862 27.68V31.13C643.062 31.53 642.212 31.82 641.312 32C640.432 32.2 639.362 32.3 638.102 32.3C636.462 32.3 635.012 32 633.752 31.4C632.492 30.78 631.502 29.85 630.782 28.61C630.062 27.37 629.702 25.81 629.702 23.93C629.702 22.01 630.022 20.42 630.662 19.16C631.322 17.88 632.232 16.92 633.392 16.28C634.552 15.64 635.902 15.32 637.442 15.32ZM637.472 18.5C636.612 18.5 635.892 18.78 635.312 19.34C634.752 19.9 634.422 20.77 634.322 21.95H640.592C640.592 21.29 640.472 20.7 640.232 20.18C640.012 19.66 639.672 19.25 639.212 18.95C638.752 18.65 638.172 18.5 637.472 18.5ZM659.846 27.14C659.846 28.24 659.586 29.18 659.066 29.96C658.546 30.72 657.766 31.3 656.726 31.7C655.686 32.1 654.396 32.3 652.856 32.3C651.716 32.3 650.736 32.22 649.916 32.06C649.096 31.92 648.276 31.68 647.456 31.34V27.65C648.336 28.05 649.286 28.38 650.306 28.64C651.326 28.9 652.226 29.03 653.006 29.03C653.886 29.03 654.506 28.9 654.866 28.64C655.246 28.38 655.436 28.04 655.436 27.62C655.436 27.34 655.356 27.09 655.196 26.87C655.056 26.65 654.736 26.4 654.236 26.12C653.736 25.84 652.956 25.48 651.896 25.04C650.876 24.6 650.036 24.17 649.376 23.75C648.716 23.31 648.226 22.79 647.906 22.19C647.586 21.57 647.426 20.8 647.426 19.88C647.426 18.36 648.016 17.22 649.196 16.46C650.376 15.7 651.946 15.32 653.906 15.32C654.926 15.32 655.896 15.42 656.816 15.62C657.736 15.82 658.686 16.15 659.666 16.61L658.316 19.82C657.776 19.58 657.256 19.37 656.756 19.19C656.256 19.01 655.766 18.87 655.286 18.77C654.826 18.67 654.346 18.62 653.846 18.62C653.186 18.62 652.686 18.71 652.346 18.89C652.026 19.07 651.866 19.34 651.866 19.7C651.866 19.96 651.946 20.2 652.106 20.42C652.286 20.62 652.616 20.84 653.096 21.08C653.596 21.32 654.326 21.64 655.286 22.04C656.226 22.42 657.036 22.82 657.716 23.24C658.396 23.64 658.916 24.15 659.276 24.77C659.656 25.37 659.846 26.16 659.846 27.14Z" fill="#6CAD55"/>
<path d="M579.4 62V47.72H581.56V60.14H587.66V62H579.4ZM599.383 56.6C599.383 57.4933 599.263 58.2867 599.023 58.98C598.783 59.6733 598.443 60.26 598.003 60.74C597.563 61.22 597.029 61.5867 596.403 61.84C595.776 62.08 595.069 62.2 594.283 62.2C593.563 62.2 592.896 62.08 592.283 61.84C591.669 61.5867 591.136 61.22 590.683 60.74C590.243 60.26 589.896 59.6733 589.643 58.98C589.389 58.2867 589.263 57.4867 589.263 56.58C589.263 55.3933 589.463 54.3867 589.863 53.56C590.276 52.7333 590.863 52.1067 591.623 51.68C592.396 51.24 593.303 51.02 594.343 51.02C595.329 51.02 596.196 51.24 596.943 51.68C597.703 52.1067 598.296 52.7333 598.723 53.56C599.163 54.3867 599.383 55.4 599.383 56.6ZM591.443 56.6C591.443 57.4 591.543 58.0933 591.743 58.68C591.943 59.2533 592.256 59.6933 592.683 60C593.109 60.3067 593.656 60.46 594.323 60.46C594.989 60.46 595.536 60.3067 595.963 60C596.389 59.6933 596.703 59.2533 596.903 58.68C597.103 58.0933 597.203 57.4 597.203 56.6C597.203 55.7733 597.096 55.08 596.883 54.52C596.683 53.96 596.369 53.5333 595.943 53.24C595.529 52.9333 594.983 52.78 594.303 52.78C593.303 52.78 592.576 53.1133 592.123 53.78C591.669 54.4467 591.443 55.3867 591.443 56.6ZM605.95 60.48C606.23 60.48 606.517 60.4533 606.81 60.4C607.103 60.3467 607.357 60.2867 607.57 60.22V61.82C607.343 61.9267 607.037 62.0133 606.65 62.08C606.263 62.16 605.877 62.2 605.49 62.2C604.903 62.2 604.363 62.1 603.87 61.9C603.39 61.7 603.003 61.3533 602.71 60.86C602.417 60.3667 602.27 59.68 602.27 58.8V52.84H600.77V51.88L602.35 51.08L603.09 48.8H604.39V51.22H607.47V52.84H604.39V58.76C604.39 59.3467 604.53 59.78 604.81 60.06C605.103 60.34 605.483 60.48 605.95 60.48ZM613.966 51.02C614.913 51.02 615.726 51.22 616.406 51.62C617.086 52.0067 617.606 52.5667 617.966 53.3C618.34 54.0333 618.526 54.9 618.526 55.9V57.06H611.286C611.313 58.1667 611.6 59.0133 612.146 59.6C612.706 60.1867 613.486 60.48 614.486 60.48C615.18 60.48 615.793 60.42 616.326 60.3C616.873 60.1667 617.433 59.9733 618.006 59.72V61.48C617.473 61.72 616.926 61.9 616.366 62.02C615.82 62.14 615.166 62.2 614.406 62.2C613.366 62.2 612.446 61.9933 611.646 61.58C610.846 61.1667 610.22 60.5533 609.766 59.74C609.326 58.9133 609.106 57.9 609.106 56.7C609.106 55.4867 609.306 54.46 609.706 53.62C610.12 52.78 610.686 52.14 611.406 51.7C612.14 51.2467 612.993 51.02 613.966 51.02ZM613.966 52.66C613.206 52.66 612.593 52.9067 612.126 53.4C611.673 53.8933 611.406 54.5933 611.326 55.5H616.406C616.406 54.94 616.32 54.4467 616.146 54.02C615.973 53.5933 615.706 53.26 615.346 53.02C614.986 52.78 614.526 52.66 613.966 52.66ZM628.332 58.96C628.332 59.6667 628.158 60.26 627.812 60.74C627.465 61.22 626.965 61.5867 626.312 61.84C625.658 62.08 624.872 62.2 623.952 62.2C623.192 62.2 622.538 62.14 621.992 62.02C621.458 61.9133 620.965 61.7533 620.512 61.54V59.68C620.992 59.9067 621.545 60.1133 622.172 60.3C622.798 60.4733 623.412 60.56 624.012 60.56C624.812 60.56 625.385 60.4333 625.732 60.18C626.092 59.9267 626.272 59.5867 626.272 59.16C626.272 58.92 626.205 58.7067 626.072 58.52C625.938 58.32 625.685 58.12 625.312 57.92C624.952 57.7067 624.418 57.4667 623.712 57.2C623.032 56.92 622.452 56.6467 621.972 56.38C621.492 56.1 621.125 55.7733 620.872 55.4C620.618 55.0133 620.492 54.52 620.492 53.92C620.492 52.9867 620.865 52.2733 621.612 51.78C622.372 51.2733 623.372 51.02 624.612 51.02C625.265 51.02 625.878 51.0867 626.452 51.22C627.038 51.34 627.605 51.5267 628.152 51.78L627.452 53.4C627.145 53.2533 626.825 53.1333 626.492 53.04C626.172 52.9333 625.845 52.8467 625.512 52.78C625.192 52.7133 624.858 52.68 624.512 52.68C623.872 52.68 623.385 52.78 623.052 52.98C622.718 53.18 622.552 53.46 622.552 53.82C622.552 54.0733 622.625 54.2933 622.772 54.48C622.932 54.6667 623.205 54.8533 623.592 55.04C623.978 55.2267 624.505 55.4533 625.172 55.72C625.838 55.9733 626.405 56.2333 626.872 56.5C627.352 56.7667 627.712 57.0933 627.952 57.48C628.205 57.8667 628.332 58.36 628.332 58.96Z" fill="#1F1F1F"/>
<path d="M698.5 18.32C699.8 18.32 700.96 18.57 701.98 19.07C703 19.57 703.8 20.3 704.38 21.26C704.98 22.22 705.28 23.41 705.28 24.83C705.28 26.37 704.96 27.7 704.32 28.82C703.68 29.94 702.72 30.8 701.44 31.4C700.18 32 698.61 32.3 696.73 32.3C695.61 32.3 694.55 32.2 693.55 32C692.57 31.8 691.71 31.51 690.97 31.13V27.23C691.71 27.61 692.6 27.94 693.64 28.22C694.68 28.48 695.66 28.61 696.58 28.61C697.48 28.61 698.23 28.49 698.83 28.25C699.45 28.01 699.92 27.64 700.24 27.14C700.56 26.64 700.72 26 700.72 25.22C700.72 24.16 700.37 23.36 699.67 22.82C698.97 22.26 697.89 21.98 696.43 21.98C695.87 21.98 695.29 22.04 694.69 22.16C694.09 22.26 693.59 22.36 693.19 22.46L691.39 21.5L692.2 10.58H703.81V14.42H696.16L695.77 18.62C696.11 18.56 696.47 18.5 696.85 18.44C697.25 18.36 697.8 18.32 698.5 18.32ZM722.718 21.29C722.718 23.01 722.578 24.55 722.298 25.91C722.038 27.27 721.608 28.43 721.008 29.39C720.428 30.33 719.658 31.05 718.698 31.55C717.758 32.05 716.598 32.3 715.218 32.3C713.498 32.3 712.088 31.86 710.988 30.98C709.888 30.1 709.068 28.84 708.528 27.2C708.008 25.56 707.748 23.59 707.748 21.29C707.748 18.97 707.988 16.99 708.468 15.35C708.948 13.71 709.738 12.45 710.838 11.57C711.938 10.69 713.398 10.25 715.218 10.25C716.938 10.25 718.348 10.69 719.448 11.57C720.548 12.43 721.368 13.69 721.908 15.35C722.448 16.99 722.718 18.97 722.718 21.29ZM712.248 21.29C712.248 22.91 712.338 24.27 712.518 25.37C712.698 26.45 712.998 27.27 713.418 27.83C713.858 28.37 714.458 28.64 715.218 28.64C715.978 28.64 716.568 28.37 716.988 27.83C717.428 27.29 717.738 26.48 717.918 25.4C718.118 24.3 718.218 22.93 718.218 21.29C718.218 19.65 718.118 18.29 717.918 17.21C717.738 16.11 717.428 15.29 716.988 14.75C716.568 14.19 715.978 13.91 715.218 13.91C714.458 13.91 713.858 14.19 713.418 14.75C712.998 15.29 712.698 16.11 712.518 17.21C712.338 18.29 712.248 19.65 712.248 21.29ZM729.536 23.63L724.256 15.62H729.326L732.506 20.84L735.716 15.62H740.786L735.446 23.63L741.026 32H735.956L732.506 26.39L729.056 32H723.986L729.536 23.63ZM757.35 32H742.38V28.85L747.75 23.42C748.83 22.3 749.7 21.37 750.36 20.63C751.02 19.87 751.5 19.19 751.8 18.59C752.1 17.97 752.25 17.31 752.25 16.61C752.25 15.75 752.01 15.11 751.53 14.69C751.07 14.27 750.44 14.06 749.64 14.06C748.82 14.06 748.02 14.25 747.24 14.63C746.46 15.01 745.64 15.55 744.78 16.25L742.32 13.34C742.94 12.8 743.59 12.3 744.27 11.84C744.97 11.38 745.77 11.01 746.67 10.73C747.59 10.43 748.69 10.28 749.97 10.28C751.37 10.28 752.57 10.54 753.57 11.06C754.59 11.56 755.37 12.25 755.91 13.13C756.47 13.99 756.75 14.97 756.75 16.07C756.75 16.97 756.61 17.8 756.33 18.56C756.07 19.32 755.68 20.06 755.16 20.78C754.66 21.48 754.04 22.21 753.3 22.97C752.56 23.71 751.72 24.52 750.78 25.4L748.02 27.98V28.19H757.35V32ZM774.398 21.29C774.398 23.01 774.258 24.55 773.978 25.91C773.718 27.27 773.288 28.43 772.688 29.39C772.108 30.33 771.338 31.05 770.378 31.55C769.438 32.05 768.278 32.3 766.898 32.3C765.178 32.3 763.768 31.86 762.668 30.98C761.568 30.1 760.748 28.84 760.208 27.2C759.688 25.56 759.428 23.59 759.428 21.29C759.428 18.97 759.668 16.99 760.148 15.35C760.628 13.71 761.418 12.45 762.518 11.57C763.618 10.69 765.078 10.25 766.898 10.25C768.618 10.25 770.028 10.69 771.128 11.57C772.228 12.43 773.048 13.69 773.588 15.35C774.128 16.99 774.398 18.97 774.398 21.29ZM763.928 21.29C763.928 22.91 764.018 24.27 764.198 25.37C764.378 26.45 764.678 27.27 765.098 27.83C765.538 28.37 766.138 28.64 766.898 28.64C767.658 28.64 768.248 28.37 768.668 27.83C769.108 27.29 769.418 26.48 769.598 25.4C769.798 24.3 769.898 22.93 769.898 21.29C769.898 19.65 769.798 18.29 769.598 17.21C769.418 16.11 769.108 15.29 768.668 14.75C768.248 14.19 767.658 13.91 766.898 13.91C766.138 13.91 765.538 14.19 765.098 14.75C764.678 15.29 764.378 16.11 764.198 17.21C764.018 18.29 763.928 19.65 763.928 21.29ZM791.566 21.29C791.566 23.01 791.426 24.55 791.146 25.91C790.886 27.27 790.456 28.43 789.856 29.39C789.276 30.33 788.506 31.05 787.546 31.55C786.606 32.05 785.446 32.3 784.066 32.3C782.346 32.3 780.936 31.86 779.836 30.98C778.736 30.1 777.916 28.84 777.376 27.2C776.856 25.56 776.596 23.59 776.596 21.29C776.596 18.97 776.836 16.99 777.316 15.35C777.796 13.71 778.586 12.45 779.686 11.57C780.786 10.69 782.246 10.25 784.066 10.25C785.786 10.25 787.196 10.69 788.296 11.57C789.396 12.43 790.216 13.69 790.756 15.35C791.296 16.99 791.566 18.97 791.566 21.29ZM781.096 21.29C781.096 22.91 781.186 24.27 781.366 25.37C781.546 26.45 781.846 27.27 782.266 27.83C782.706 28.37 783.306 28.64 784.066 28.64C784.826 28.64 785.416 28.37 785.836 27.83C786.276 27.29 786.586 26.48 786.766 25.4C786.966 24.3 787.066 22.93 787.066 21.29C787.066 19.65 786.966 18.29 786.766 17.21C786.586 16.11 786.276 15.29 785.836 14.75C785.416 14.19 784.826 13.91 784.066 13.91C783.306 13.91 782.706 14.19 782.266 14.75C781.846 15.29 781.546 16.11 781.366 17.21C781.186 18.29 781.096 19.65 781.096 21.29Z" fill="#6CAD55"/>
<path d="M712.96 54.72C712.96 56.32 712.66 57.66 712.06 58.74C711.46 59.82 710.593 60.6333 709.46 61.18C708.34 61.7267 706.987 62 705.4 62H701.4V47.72H705.82C707.273 47.72 708.533 47.9867 709.6 48.52C710.667 49.0533 711.493 49.84 712.08 50.88C712.667 51.9067 712.96 53.1867 712.96 54.72ZM710.7 54.78C710.7 53.58 710.507 52.5933 710.12 51.82C709.733 51.0467 709.16 50.4733 708.4 50.1C707.653 49.7267 706.747 49.54 705.68 49.54H703.56V60.18H705.3C707.1 60.18 708.447 59.7267 709.34 58.82C710.247 57.9133 710.7 56.5667 710.7 54.78ZM717.948 51.22V62H715.828V51.22H717.948ZM716.908 47.12C717.228 47.12 717.508 47.2133 717.748 47.4C717.988 47.5867 718.108 47.9 718.108 48.34C718.108 48.7667 717.988 49.08 717.748 49.28C717.508 49.4667 717.228 49.56 716.908 49.56C716.561 49.56 716.268 49.4667 716.028 49.28C715.801 49.08 715.688 48.7667 715.688 48.34C715.688 47.9 715.801 47.5867 716.028 47.4C716.268 47.2133 716.561 47.12 716.908 47.12ZM733.357 51.02C734.571 51.02 735.484 51.3333 736.097 51.96C736.711 52.5867 737.017 53.5933 737.017 54.98V62H734.897V55.26C734.897 54.4333 734.731 53.8133 734.397 53.4C734.077 52.9733 733.571 52.76 732.877 52.76C731.917 52.76 731.231 53.06 730.817 53.66C730.404 54.2467 730.197 55.1 730.197 56.22V62H728.097V55.26C728.097 54.7133 728.017 54.2533 727.857 53.88C727.711 53.5067 727.491 53.2267 727.197 53.04C726.904 52.8533 726.524 52.76 726.057 52.76C725.391 52.76 724.864 52.9067 724.477 53.2C724.091 53.4933 723.811 53.9267 723.637 54.5C723.477 55.06 723.397 55.7467 723.397 56.56V62H721.277V51.22H722.957L723.257 52.66H723.377C723.604 52.2867 723.877 51.98 724.197 51.74C724.531 51.5 724.897 51.32 725.297 51.2C725.697 51.08 726.111 51.02 726.537 51.02C727.351 51.02 728.037 51.1667 728.597 51.46C729.157 51.74 729.564 52.1733 729.817 52.76H729.977C730.324 52.16 730.804 51.72 731.417 51.44C732.031 51.16 732.677 51.02 733.357 51.02ZM744.502 51.02C745.448 51.02 746.262 51.22 746.942 51.62C747.622 52.0067 748.142 52.5667 748.502 53.3C748.875 54.0333 749.062 54.9 749.062 55.9V57.06H741.822C741.848 58.1667 742.135 59.0133 742.682 59.6C743.242 60.1867 744.022 60.48 745.022 60.48C745.715 60.48 746.328 60.42 746.862 60.3C747.408 60.1667 747.968 59.9733 748.542 59.72V61.48C748.008 61.72 747.462 61.9 746.902 62.02C746.355 62.14 745.702 62.2 744.942 62.2C743.902 62.2 742.982 61.9933 742.182 61.58C741.382 61.1667 740.755 60.5533 740.302 59.74C739.862 58.9133 739.642 57.9 739.642 56.7C739.642 55.4867 739.842 54.46 740.242 53.62C740.655 52.78 741.222 52.14 741.942 51.7C742.675 51.2467 743.528 51.02 744.502 51.02ZM744.502 52.66C743.742 52.66 743.128 52.9067 742.662 53.4C742.208 53.8933 741.942 54.5933 741.862 55.5H746.942C746.942 54.94 746.855 54.4467 746.682 54.02C746.508 53.5933 746.242 53.26 745.882 53.02C745.522 52.78 745.062 52.66 744.502 52.66ZM758.867 58.96C758.867 59.6667 758.694 60.26 758.347 60.74C758 61.22 757.5 61.5867 756.847 61.84C756.194 62.08 755.407 62.2 754.487 62.2C753.727 62.2 753.074 62.14 752.527 62.02C751.994 61.9133 751.5 61.7533 751.047 61.54V59.68C751.527 59.9067 752.08 60.1133 752.707 60.3C753.334 60.4733 753.947 60.56 754.547 60.56C755.347 60.56 755.92 60.4333 756.267 60.18C756.627 59.9267 756.807 59.5867 756.807 59.16C756.807 58.92 756.74 58.7067 756.607 58.52C756.474 58.32 756.22 58.12 755.847 57.92C755.487 57.7067 754.954 57.4667 754.247 57.2C753.567 56.92 752.987 56.6467 752.507 56.38C752.027 56.1 751.66 55.7733 751.407 55.4C751.154 55.0133 751.027 54.52 751.027 53.92C751.027 52.9867 751.4 52.2733 752.147 51.78C752.907 51.2733 753.907 51.02 755.147 51.02C755.8 51.02 756.414 51.0867 756.987 51.22C757.574 51.34 758.14 51.5267 758.687 51.78L757.987 53.4C757.68 53.2533 757.36 53.1333 757.027 53.04C756.707 52.9333 756.38 52.8467 756.047 52.78C755.727 52.7133 755.394 52.68 755.047 52.68C754.407 52.68 753.92 52.78 753.587 52.98C753.254 53.18 753.087 53.46 753.087 53.82C753.087 54.0733 753.16 54.2933 753.307 54.48C753.467 54.6667 753.74 54.8533 754.127 55.04C754.514 55.2267 755.04 55.4533 755.707 55.72C756.374 55.9733 756.94 56.2333 757.407 56.5C757.887 56.7667 758.247 57.0933 758.487 57.48C758.74 57.8667 758.867 58.36 758.867 58.96ZM765.574 51.02C766.934 51.02 767.948 51.32 768.614 51.92C769.281 52.5067 769.614 53.4333 769.614 54.7V62H768.114L767.694 60.5H767.614C767.308 60.8867 766.988 61.2067 766.654 61.46C766.334 61.7133 765.961 61.9 765.534 62.02C765.121 62.14 764.614 62.2 764.014 62.2C763.374 62.2 762.794 62.0867 762.274 61.86C761.768 61.62 761.368 61.26 761.074 60.78C760.781 60.2867 760.634 59.6733 760.634 58.94C760.634 57.8467 761.048 57.0133 761.874 56.44C762.714 55.8667 763.988 55.5533 765.694 55.5L767.534 55.44V54.84C767.534 54.04 767.354 53.48 766.994 53.16C766.634 52.84 766.128 52.68 765.474 52.68C764.914 52.68 764.381 52.76 763.874 52.92C763.368 53.08 762.888 53.2733 762.434 53.5L761.754 51.96C762.261 51.6933 762.841 51.4733 763.494 51.3C764.161 51.1133 764.854 51.02 765.574 51.02ZM766.074 56.86C764.848 56.9133 763.994 57.12 763.514 57.48C763.048 57.8267 762.814 58.32 762.814 58.96C762.814 59.52 762.981 59.9267 763.314 60.18C763.661 60.4333 764.094 60.56 764.614 60.56C765.454 60.56 766.148 60.3267 766.694 59.86C767.241 59.3933 767.514 58.6933 767.514 57.76V56.82L766.074 56.86ZM761.714 49.88C761.754 49.4533 761.834 49.0733 761.954 48.74C762.088 48.4067 762.254 48.1267 762.454 47.9C762.654 47.6733 762.888 47.5 763.154 47.38C763.421 47.26 763.721 47.2 764.054 47.2C764.334 47.2 764.608 47.2533 764.874 47.36C765.154 47.4667 765.414 47.5933 765.654 47.74C765.908 47.8867 766.154 48.02 766.394 48.14C766.634 48.2467 766.861 48.3 767.074 48.3C767.354 48.3 767.581 48.2067 767.754 48.02C767.928 47.8333 768.054 47.5533 768.134 47.18H769.274C769.194 48.02 768.948 48.68 768.534 49.16C768.121 49.6267 767.594 49.86 766.954 49.86C766.674 49.86 766.401 49.8067 766.134 49.7C765.881 49.5933 765.621 49.4667 765.354 49.32C765.101 49.16 764.854 49.0267 764.614 48.92C764.388 48.8133 764.161 48.76 763.934 48.76C763.641 48.76 763.408 48.8533 763.234 49.04C763.074 49.2267 762.948 49.5067 762.854 49.88H761.714ZM782.379 56.6C782.379 57.4933 782.259 58.2867 782.019 58.98C781.779 59.6733 781.439 60.26 780.999 60.74C780.559 61.22 780.025 61.5867 779.399 61.84C778.772 62.08 778.065 62.2 777.279 62.2C776.559 62.2 775.892 62.08 775.279 61.84C774.665 61.5867 774.132 61.22 773.679 60.74C773.239 60.26 772.892 59.6733 772.639 58.98C772.385 58.2867 772.259 57.4867 772.259 56.58C772.259 55.3933 772.459 54.3867 772.859 53.56C773.272 52.7333 773.859 52.1067 774.619 51.68C775.392 51.24 776.299 51.02 777.339 51.02C778.325 51.02 779.192 51.24 779.939 51.68C780.699 52.1067 781.292 52.7333 781.719 53.56C782.159 54.3867 782.379 55.4 782.379 56.6ZM774.439 56.6C774.439 57.4 774.539 58.0933 774.739 58.68C774.939 59.2533 775.252 59.6933 775.679 60C776.105 60.3067 776.652 60.46 777.319 60.46C777.985 60.46 778.532 60.3067 778.959 60C779.385 59.6933 779.699 59.2533 779.899 58.68C780.099 58.0933 780.199 57.4 780.199 56.6C780.199 55.7733 780.092 55.08 779.879 54.52C779.679 53.96 779.365 53.5333 778.939 53.24C778.525 52.9333 777.979 52.78 777.299 52.78C776.299 52.78 775.572 53.1133 775.119 53.78C774.665 54.4467 774.439 55.3867 774.439 56.6Z" fill="#1F1F1F"/>
<path d="M833.89 32H829.36V19.61C829.36 19.27 829.36 18.85 829.36 18.35C829.38 17.85 829.4 17.33 829.42 16.79C829.44 16.25 829.46 15.77 829.48 15.35C829.38 15.47 829.16 15.69 828.82 16.01C828.5 16.31 828.2 16.58 827.92 16.82L825.46 18.8L823.27 16.07L830.17 10.58H833.89V32ZM854.718 21.29C854.718 23.01 854.578 24.55 854.298 25.91C854.038 27.27 853.608 28.43 853.008 29.39C852.428 30.33 851.658 31.05 850.698 31.55C849.758 32.05 848.598 32.3 847.218 32.3C845.498 32.3 844.088 31.86 842.988 30.98C841.888 30.1 841.068 28.84 840.528 27.2C840.008 25.56 839.748 23.59 839.748 21.29C839.748 18.97 839.988 16.99 840.468 15.35C840.948 13.71 841.738 12.45 842.838 11.57C843.938 10.69 845.398 10.25 847.218 10.25C848.938 10.25 850.348 10.69 851.448 11.57C852.548 12.43 853.368 13.69 853.908 15.35C854.448 16.99 854.718 18.97 854.718 21.29ZM844.248 21.29C844.248 22.91 844.338 24.27 844.518 25.37C844.698 26.45 844.998 27.27 845.418 27.83C845.858 28.37 846.458 28.64 847.218 28.64C847.978 28.64 848.568 28.37 848.988 27.83C849.428 27.29 849.738 26.48 849.918 25.4C850.118 24.3 850.218 22.93 850.218 21.29C850.218 19.65 850.118 18.29 849.918 17.21C849.738 16.11 849.428 15.29 848.988 14.75C848.568 14.19 847.978 13.91 847.218 13.91C846.458 13.91 845.858 14.19 845.418 14.75C844.998 15.29 844.698 16.11 844.518 17.21C844.338 18.29 844.248 19.65 844.248 21.29ZM877.406 15.32C879.266 15.32 880.666 15.8 881.606 16.76C882.566 17.7 883.046 19.22 883.046 21.32V32H878.576V22.43C878.576 21.25 878.376 20.37 877.976 19.79C877.576 19.19 876.956 18.89 876.116 18.89C874.936 18.89 874.096 19.31 873.596 20.15C873.096 20.99 872.846 22.2 872.846 23.78V32H868.376V22.43C868.376 21.65 868.286 21 868.106 20.48C867.926 19.96 867.656 19.57 867.296 19.31C866.936 19.03 866.476 18.89 865.916 18.89C865.096 18.89 864.446 19.1 863.966 19.52C863.486 19.94 863.146 20.55 862.946 21.35C862.746 22.15 862.646 23.13 862.646 24.29V32H858.176V15.62H861.596L862.196 17.72H862.436C862.776 17.16 863.196 16.71 863.696 16.37C864.196 16.01 864.746 15.75 865.346 15.59C865.966 15.41 866.586 15.32 867.206 15.32C868.406 15.32 869.426 15.52 870.266 15.92C871.106 16.3 871.746 16.9 872.186 17.72H872.576C873.076 16.88 873.766 16.27 874.646 15.89C875.546 15.51 876.466 15.32 877.406 15.32ZM892.119 15.62V32H887.649V15.62H892.119ZM889.899 9.2C890.559 9.2 891.129 9.36 891.609 9.68C892.089 9.98 892.329 10.55 892.329 11.39C892.329 12.21 892.089 12.78 891.609 13.1C891.129 13.42 890.559 13.58 889.899 13.58C889.219 13.58 888.639 13.42 888.159 13.1C887.699 12.78 887.469 12.21 887.469 11.39C887.469 10.55 887.699 9.98 888.159 9.68C888.639 9.36 889.219 9.2 889.899 9.2ZM901.259 32H896.789V9.2H901.259V32ZM932.953 15.32C934.813 15.32 936.213 15.8 937.153 16.76C938.113 17.7 938.593 19.22 938.593 21.32V32H934.123V22.43C934.123 21.25 933.923 20.37 933.523 19.79C933.123 19.19 932.503 18.89 931.663 18.89C930.483 18.89 929.643 19.31 929.143 20.15C928.643 20.99 928.393 22.2 928.393 23.78V32H923.923V22.43C923.923 21.65 923.833 21 923.653 20.48C923.473 19.96 923.203 19.57 922.843 19.31C922.483 19.03 922.023 18.89 921.463 18.89C920.643 18.89 919.993 19.1 919.513 19.52C919.033 19.94 918.693 20.55 918.493 21.35C918.293 22.15 918.193 23.13 918.193 24.29V32H913.723V15.62H917.143L917.743 17.72H917.983C918.323 17.16 918.743 16.71 919.243 16.37C919.743 16.01 920.293 15.75 920.893 15.59C921.513 15.41 922.133 15.32 922.753 15.32C923.953 15.32 924.973 15.52 925.813 15.92C926.653 16.3 927.293 16.9 927.733 17.72H928.123C928.623 16.88 929.313 16.27 930.193 15.89C931.093 15.51 932.013 15.32 932.953 15.32ZM957.025 32H942.055V28.85L947.425 23.42C948.505 22.3 949.375 21.37 950.035 20.63C950.695 19.87 951.175 19.19 951.475 18.59C951.775 17.97 951.925 17.31 951.925 16.61C951.925 15.75 951.685 15.11 951.205 14.69C950.745 14.27 950.115 14.06 949.315 14.06C948.495 14.06 947.695 14.25 946.915 14.63C946.135 15.01 945.315 15.55 944.455 16.25L941.995 13.34C942.615 12.8 943.265 12.3 943.945 11.84C944.645 11.38 945.445 11.01 946.345 10.73C947.265 10.43 948.365 10.28 949.645 10.28C951.045 10.28 952.245 10.54 953.245 11.06C954.265 11.56 955.045 12.25 955.585 13.13C956.145 13.99 956.425 14.97 956.425 16.07C956.425 16.97 956.285 17.8 956.005 18.56C955.745 19.32 955.355 20.06 954.835 20.78C954.335 21.48 953.715 22.21 952.975 22.97C952.235 23.71 951.395 24.52 950.455 25.4L947.695 27.98V28.19H957.025V32Z" fill="#6CAD55"/>
<path d="M851.7 62H849.54V49.58H845.26V47.72H855.98V49.58H851.7V62ZM860.508 51.02C861.868 51.02 862.881 51.32 863.548 51.92C864.215 52.5067 864.548 53.4333 864.548 54.7V62H863.048L862.628 60.5H862.548C862.241 60.8867 861.921 61.2067 861.588 61.46C861.268 61.7133 860.895 61.9 860.468 62.02C860.055 62.14 859.548 62.2 858.948 62.2C858.308 62.2 857.728 62.0867 857.208 61.86C856.701 61.62 856.301 61.26 856.008 60.78C855.715 60.2867 855.568 59.6733 855.568 58.94C855.568 57.8467 855.981 57.0133 856.808 56.44C857.648 55.8667 858.921 55.5533 860.628 55.5L862.468 55.44V54.84C862.468 54.04 862.288 53.48 861.928 53.16C861.568 52.84 861.061 52.68 860.408 52.68C859.848 52.68 859.315 52.76 858.808 52.92C858.301 53.08 857.821 53.2733 857.368 53.5L856.688 51.96C857.195 51.6933 857.775 51.4733 858.428 51.3C859.095 51.1133 859.788 51.02 860.508 51.02ZM861.008 56.86C859.781 56.9133 858.928 57.12 858.448 57.48C857.981 57.8267 857.748 58.32 857.748 58.96C857.748 59.52 857.915 59.9267 858.248 60.18C858.595 60.4333 859.028 60.56 859.548 60.56C860.388 60.56 861.081 60.3267 861.628 59.86C862.175 59.3933 862.448 58.6933 862.448 57.76V56.82L861.008 56.86ZM879.892 51.02C881.106 51.02 882.019 51.3333 882.632 51.96C883.246 52.5867 883.552 53.5933 883.552 54.98V62H881.432V55.26C881.432 54.4333 881.266 53.8133 880.932 53.4C880.612 52.9733 880.106 52.76 879.412 52.76C878.452 52.76 877.766 53.06 877.352 53.66C876.939 54.2467 876.732 55.1 876.732 56.22V62H874.632V55.26C874.632 54.7133 874.552 54.2533 874.392 53.88C874.246 53.5067 874.026 53.2267 873.732 53.04C873.439 52.8533 873.059 52.76 872.592 52.76C871.926 52.76 871.399 52.9067 871.012 53.2C870.626 53.4933 870.346 53.9267 870.172 54.5C870.012 55.06 869.932 55.7467 869.932 56.56V62H867.812V51.22H869.492L869.792 52.66H869.912C870.139 52.2867 870.412 51.98 870.732 51.74C871.066 51.5 871.432 51.32 871.832 51.2C872.232 51.08 872.646 51.02 873.072 51.02C873.886 51.02 874.572 51.1667 875.132 51.46C875.692 51.74 876.099 52.1733 876.352 52.76H876.512C876.859 52.16 877.339 51.72 877.952 51.44C878.566 51.16 879.212 51.02 879.892 51.02ZM890.977 51.02C892.337 51.02 893.35 51.32 894.017 51.92C894.683 52.5067 895.017 53.4333 895.017 54.7V62H893.517L893.097 60.5H893.017C892.71 60.8867 892.39 61.2067 892.057 61.46C891.737 61.7133 891.363 61.9 890.937 62.02C890.523 62.14 890.017 62.2 889.417 62.2C888.777 62.2 888.197 62.0867 887.677 61.86C887.17 61.62 886.77 61.26 886.477 60.78C886.183 60.2867 886.037 59.6733 886.037 58.94C886.037 57.8467 886.45 57.0133 887.277 56.44C888.117 55.8667 889.39 55.5533 891.097 55.5L892.937 55.44V54.84C892.937 54.04 892.757 53.48 892.397 53.16C892.037 52.84 891.53 52.68 890.877 52.68C890.317 52.68 889.783 52.76 889.277 52.92C888.77 53.08 888.29 53.2733 887.837 53.5L887.157 51.96C887.663 51.6933 888.243 51.4733 888.897 51.3C889.563 51.1133 890.257 51.02 890.977 51.02ZM891.477 56.86C890.25 56.9133 889.397 57.12 888.917 57.48C888.45 57.8267 888.217 58.32 888.217 58.96C888.217 59.52 888.383 59.9267 888.717 60.18C889.063 60.4333 889.497 60.56 890.017 60.56C890.857 60.56 891.55 60.3267 892.097 59.86C892.643 59.3933 892.917 58.6933 892.917 57.76V56.82L891.477 56.86ZM903.741 51.02C904.994 51.02 905.954 51.3333 906.621 51.96C907.288 52.5867 907.621 53.5933 907.621 54.98V62H905.521V55.28C905.521 54.44 905.341 53.8133 904.981 53.4C904.634 52.9733 904.074 52.76 903.301 52.76C902.208 52.76 901.448 53.0867 901.021 53.74C900.608 54.3933 900.401 55.3333 900.401 56.56V62H898.281V51.22H899.961L900.261 52.66H900.381C900.621 52.2867 900.914 51.98 901.261 51.74C901.608 51.5 901.994 51.32 902.421 51.2C902.848 51.08 903.288 51.02 903.741 51.02ZM912.999 50.86C912.999 51.1933 912.985 51.5267 912.959 51.86C912.932 52.1933 912.905 52.4667 912.879 52.68H913.019C913.245 52.3067 913.525 52 913.859 51.76C914.205 51.52 914.585 51.34 914.999 51.22C915.425 51.1 915.859 51.04 916.299 51.04C917.152 51.04 917.865 51.18 918.439 51.46C919.025 51.7267 919.465 52.1533 919.759 52.74C920.065 53.3133 920.219 54.06 920.219 54.98V62H918.119V55.28C918.119 54.44 917.939 53.8133 917.579 53.4C917.232 52.9733 916.672 52.76 915.899 52.76C915.165 52.76 914.585 52.9067 914.159 53.2C913.745 53.4933 913.445 53.9267 913.259 54.5C913.085 55.06 912.999 55.7533 912.999 56.58V62H910.879V46.8H912.999V50.86ZM932.976 56.6C932.976 57.4933 932.856 58.2867 932.616 58.98C932.376 59.6733 932.036 60.26 931.596 60.74C931.156 61.22 930.623 61.5867 929.996 61.84C929.37 62.08 928.663 62.2 927.876 62.2C927.156 62.2 926.49 62.08 925.876 61.84C925.263 61.5867 924.73 61.22 924.276 60.74C923.836 60.26 923.49 59.6733 923.236 58.98C922.983 58.2867 922.856 57.4867 922.856 56.58C922.856 55.3933 923.056 54.3867 923.456 53.56C923.87 52.7333 924.456 52.1067 925.216 51.68C925.99 51.24 926.896 51.02 927.936 51.02C928.923 51.02 929.79 51.24 930.536 51.68C931.296 52.1067 931.89 52.7333 932.316 53.56C932.756 54.3867 932.976 55.4 932.976 56.6ZM925.036 56.6C925.036 57.4 925.136 58.0933 925.336 58.68C925.536 59.2533 925.85 59.6933 926.276 60C926.703 60.3067 927.25 60.46 927.916 60.46C928.583 60.46 929.13 60.3067 929.556 60C929.983 59.6933 930.296 59.2533 930.496 58.68C930.696 58.0933 930.796 57.4 930.796 56.6C930.796 55.7733 930.69 55.08 930.476 54.52C930.276 53.96 929.963 53.5333 929.536 53.24C929.123 52.9333 928.576 52.78 927.896 52.78C926.896 52.78 926.17 53.1133 925.716 53.78C925.263 54.4467 925.036 55.3867 925.036 56.6Z" fill="#1F1F1F"/>
<path d="M729 166V86M729 86H963M729 86H541" stroke="#6CAD55" stroke-width="4" stroke-dasharray="6 6"/>
<path d="M32.65 27.56H30.07V32H25.66V27.56H16.51V24.41L25.9 10.58H30.07V24.05H32.65V27.56ZM25.66 20.42C25.66 20.08 25.66 19.68 25.66 19.22C25.68 18.74 25.7 18.27 25.72 17.81C25.74 17.33 25.76 16.91 25.78 16.55C25.8 16.17 25.82 15.91 25.84 15.77H25.72C25.54 16.17 25.35 16.56 25.15 16.94C24.95 17.32 24.71 17.71 24.43 18.11L20.5 24.05H25.66V20.42ZM49.338 32H34.368V28.85L39.738 23.42C40.818 22.3 41.688 21.37 42.348 20.63C43.008 19.87 43.488 19.19 43.788 18.59C44.088 17.97 44.238 17.31 44.238 16.61C44.238 15.75 43.998 15.11 43.518 14.69C43.058 14.27 42.428 14.06 41.628 14.06C40.808 14.06 40.008 14.25 39.228 14.63C38.448 15.01 37.628 15.55 36.768 16.25L34.308 13.34C34.928 12.8 35.578 12.3 36.258 11.84C36.958 11.38 37.758 11.01 38.658 10.73C39.578 10.43 40.678 10.28 41.958 10.28C43.358 10.28 44.558 10.54 45.558 11.06C46.578 11.56 47.358 12.25 47.898 13.13C48.458 13.99 48.738 14.97 48.738 16.07C48.738 16.97 48.598 17.8 48.318 18.56C48.058 19.32 47.668 20.06 47.148 20.78C46.648 21.48 46.028 22.21 45.288 22.97C44.548 23.71 43.708 24.52 42.768 25.4L40.008 27.98V28.19H49.338V32ZM64.9389 32H60.4689V9.2H64.9389V32ZM84.4895 23.78C84.4895 25.14 84.2995 26.35 83.9195 27.41C83.5595 28.47 83.0295 29.37 82.3295 30.11C81.6495 30.83 80.8195 31.38 79.8395 31.76C78.8595 32.12 77.7495 32.3 76.5095 32.3C75.3695 32.3 74.3095 32.12 73.3295 31.76C72.3695 31.38 71.5395 30.83 70.8395 30.11C70.1395 29.37 69.5895 28.47 69.1895 27.41C68.8095 26.35 68.6195 25.14 68.6195 23.78C68.6195 21.96 68.9395 20.43 69.5795 19.19C70.2195 17.93 71.1395 16.97 72.3395 16.31C73.5395 15.65 74.9595 15.32 76.5995 15.32C78.1395 15.32 79.4995 15.65 80.6795 16.31C81.8595 16.97 82.7895 17.93 83.4695 19.19C84.1495 20.43 84.4895 21.96 84.4895 23.78ZM73.1795 23.78C73.1795 24.86 73.2895 25.77 73.5095 26.51C73.7495 27.23 74.1195 27.78 74.6195 28.16C75.1195 28.52 75.7695 28.7 76.5695 28.7C77.3695 28.7 78.0095 28.52 78.4895 28.16C78.9895 27.78 79.3495 27.23 79.5695 26.51C79.8095 25.77 79.9295 24.86 79.9295 23.78C79.9295 22.7 79.8095 21.8 79.5695 21.08C79.3495 20.36 78.9895 19.82 78.4895 19.46C77.9895 19.1 77.3395 18.92 76.5395 18.92C75.3595 18.92 74.4995 19.33 73.9595 20.15C73.4395 20.95 73.1795 22.16 73.1795 23.78ZM95.0838 28.73C95.5838 28.73 96.0638 28.68 96.5238 28.58C96.9838 28.48 97.4438 28.36 97.9038 28.22V31.55C97.4238 31.75 96.8238 31.92 96.1038 32.06C95.4038 32.22 94.6338 32.3 93.7938 32.3C92.8138 32.3 91.9338 32.14 91.1538 31.82C90.3938 31.5 89.7838 30.95 89.3238 30.17C88.8838 29.37 88.6638 28.27 88.6638 26.87V18.98H86.5338V17.09L88.9938 15.59L90.2838 12.14H93.1338V15.62H97.7238V18.98H93.1338V26.87C93.1338 27.49 93.3138 27.96 93.6738 28.28C94.0338 28.58 94.5038 28.73 95.0838 28.73ZM107.942 15.32C109.462 15.32 110.762 15.61 111.842 16.19C112.942 16.77 113.792 17.61 114.392 18.71C114.992 19.81 115.292 21.16 115.292 22.76V24.92H104.732C104.772 26.18 105.142 27.17 105.842 27.89C106.562 28.61 107.552 28.97 108.812 28.97C109.872 28.97 110.832 28.87 111.692 28.67C112.552 28.45 113.442 28.12 114.362 27.68V31.13C113.562 31.53 112.712 31.82 111.812 32C110.932 32.2 109.862 32.3 108.602 32.3C106.962 32.3 105.512 32 104.252 31.4C102.992 30.78 102.002 29.85 101.282 28.61C100.562 27.37 100.202 25.81 100.202 23.93C100.202 22.01 100.522 20.42 101.162 19.16C101.822 17.88 102.732 16.92 103.892 16.28C105.052 15.64 106.402 15.32 107.942 15.32ZM107.972 18.5C107.112 18.5 106.392 18.78 105.812 19.34C105.252 19.9 104.922 20.77 104.822 21.95H111.092C111.092 21.29 110.972 20.7 110.732 20.18C110.512 19.66 110.172 19.25 109.712 18.95C109.252 18.65 108.672 18.5 107.972 18.5ZM130.346 27.14C130.346 28.24 130.086 29.18 129.566 29.96C129.046 30.72 128.266 31.3 127.226 31.7C126.186 32.1 124.896 32.3 123.356 32.3C122.216 32.3 121.236 32.22 120.416 32.06C119.596 31.92 118.776 31.68 117.956 31.34V27.65C118.836 28.05 119.786 28.38 120.806 28.64C121.826 28.9 122.726 29.03 123.506 29.03C124.386 29.03 125.006 28.9 125.366 28.64C125.746 28.38 125.936 28.04 125.936 27.62C125.936 27.34 125.856 27.09 125.696 26.87C125.556 26.65 125.236 26.4 124.736 26.12C124.236 25.84 123.456 25.48 122.396 25.04C121.376 24.6 120.536 24.17 119.876 23.75C119.216 23.31 118.726 22.79 118.406 22.19C118.086 21.57 117.926 20.8 117.926 19.88C117.926 18.36 118.516 17.22 119.696 16.46C120.876 15.7 122.446 15.32 124.406 15.32C125.426 15.32 126.396 15.42 127.316 15.62C128.236 15.82 129.186 16.15 130.166 16.61L128.816 19.82C128.276 19.58 127.756 19.37 127.256 19.19C126.756 19.01 126.266 18.87 125.786 18.77C125.326 18.67 124.846 18.62 124.346 18.62C123.686 18.62 123.186 18.71 122.846 18.89C122.526 19.07 122.366 19.34 122.366 19.7C122.366 19.96 122.446 20.2 122.606 20.42C122.786 20.62 123.116 20.84 123.596 21.08C124.096 21.32 124.826 21.64 125.786 22.04C126.726 22.42 127.536 22.82 128.216 23.24C128.896 23.64 129.416 24.15 129.776 24.77C130.156 25.37 130.346 26.16 130.346 27.14Z" fill="#6CAD55"/>
<path d="M49.9 62V47.72H52.06V60.14H58.16V62H49.9ZM69.8827 56.6C69.8827 57.4933 69.7627 58.2867 69.5227 58.98C69.2827 59.6733 68.9427 60.26 68.5027 60.74C68.0627 61.22 67.5293 61.5867 66.9027 61.84C66.276 62.08 65.5693 62.2 64.7827 62.2C64.0627 62.2 63.396 62.08 62.7827 61.84C62.1693 61.5867 61.636 61.22 61.1827 60.74C60.7427 60.26 60.396 59.6733 60.1427 58.98C59.8893 58.2867 59.7627 57.4867 59.7627 56.58C59.7627 55.3933 59.9627 54.3867 60.3627 53.56C60.776 52.7333 61.3627 52.1067 62.1227 51.68C62.896 51.24 63.8027 51.02 64.8427 51.02C65.8293 51.02 66.696 51.24 67.4427 51.68C68.2027 52.1067 68.796 52.7333 69.2227 53.56C69.6627 54.3867 69.8827 55.4 69.8827 56.6ZM61.9427 56.6C61.9427 57.4 62.0427 58.0933 62.2427 58.68C62.4427 59.2533 62.756 59.6933 63.1827 60C63.6093 60.3067 64.156 60.46 64.8227 60.46C65.4893 60.46 66.036 60.3067 66.4627 60C66.8893 59.6933 67.2027 59.2533 67.4027 58.68C67.6027 58.0933 67.7027 57.4 67.7027 56.6C67.7027 55.7733 67.596 55.08 67.3827 54.52C67.1827 53.96 66.8693 53.5333 66.4427 53.24C66.0293 52.9333 65.4827 52.78 64.8027 52.78C63.8027 52.78 63.076 53.1133 62.6227 53.78C62.1693 54.4467 61.9427 55.3867 61.9427 56.6ZM76.4502 60.48C76.7302 60.48 77.0168 60.4533 77.3102 60.4C77.6035 60.3467 77.8568 60.2867 78.0702 60.22V61.82C77.8435 61.9267 77.5368 62.0133 77.1502 62.08C76.7635 62.16 76.3768 62.2 75.9902 62.2C75.4035 62.2 74.8635 62.1 74.3702 61.9C73.8902 61.7 73.5035 61.3533 73.2102 60.86C72.9168 60.3667 72.7702 59.68 72.7702 58.8V52.84H71.2702V51.88L72.8502 51.08L73.5902 48.8H74.8902V51.22H77.9702V52.84H74.8902V58.76C74.8902 59.3467 75.0302 59.78 75.3102 60.06C75.6035 60.34 75.9835 60.48 76.4502 60.48ZM84.4664 51.02C85.4131 51.02 86.2264 51.22 86.9064 51.62C87.5864 52.0067 88.1064 52.5667 88.4664 53.3C88.8397 54.0333 89.0264 54.9 89.0264 55.9V57.06H81.7864C81.8131 58.1667 82.0997 59.0133 82.6464 59.6C83.2064 60.1867 83.9864 60.48 84.9864 60.48C85.6797 60.48 86.2931 60.42 86.8264 60.3C87.3731 60.1667 87.9331 59.9733 88.5064 59.72V61.48C87.9731 61.72 87.4264 61.9 86.8664 62.02C86.3197 62.14 85.6664 62.2 84.9064 62.2C83.8664 62.2 82.9464 61.9933 82.1464 61.58C81.3464 61.1667 80.7197 60.5533 80.2664 59.74C79.8264 58.9133 79.6064 57.9 79.6064 56.7C79.6064 55.4867 79.8064 54.46 80.2064 53.62C80.6197 52.78 81.1864 52.14 81.9064 51.7C82.6397 51.2467 83.4931 51.02 84.4664 51.02ZM84.4664 52.66C83.7064 52.66 83.0931 52.9067 82.6264 53.4C82.1731 53.8933 81.9064 54.5933 81.8264 55.5H86.9064C86.9064 54.94 86.8197 54.4467 86.6464 54.02C86.4731 53.5933 86.2064 53.26 85.8464 53.02C85.4864 52.78 85.0264 52.66 84.4664 52.66ZM98.8317 58.96C98.8317 59.6667 98.6584 60.26 98.3117 60.74C97.9651 61.22 97.4651 61.5867 96.8117 61.84C96.1584 62.08 95.3717 62.2 94.4517 62.2C93.6917 62.2 93.0384 62.14 92.4917 62.02C91.9584 61.9133 91.4651 61.7533 91.0117 61.54V59.68C91.4917 59.9067 92.0451 60.1133 92.6717 60.3C93.2984 60.4733 93.9117 60.56 94.5117 60.56C95.3117 60.56 95.8851 60.4333 96.2317 60.18C96.5917 59.9267 96.7717 59.5867 96.7717 59.16C96.7717 58.92 96.7051 58.7067 96.5717 58.52C96.4384 58.32 96.1851 58.12 95.8117 57.92C95.4517 57.7067 94.9184 57.4667 94.2117 57.2C93.5317 56.92 92.9517 56.6467 92.4717 56.38C91.9917 56.1 91.6251 55.7733 91.3717 55.4C91.1184 55.0133 90.9917 54.52 90.9917 53.92C90.9917 52.9867 91.3651 52.2733 92.1117 51.78C92.8717 51.2733 93.8717 51.02 95.1117 51.02C95.7651 51.02 96.3784 51.0867 96.9517 51.22C97.5384 51.34 98.1051 51.5267 98.6517 51.78L97.9517 53.4C97.6451 53.2533 97.3251 53.1333 96.9917 53.04C96.6717 52.9333 96.3451 52.8467 96.0117 52.78C95.6917 52.7133 95.3584 52.68 95.0117 52.68C94.3717 52.68 93.8851 52.78 93.5517 52.98C93.2184 53.18 93.0517 53.46 93.0517 53.82C93.0517 54.0733 93.1251 54.2933 93.2717 54.48C93.4317 54.6667 93.7051 54.8533 94.0917 55.04C94.4784 55.2267 95.0051 55.4533 95.6717 55.72C96.3384 55.9733 96.9051 56.2333 97.3717 56.5C97.8517 56.7667 98.2117 57.0933 98.4517 57.48C98.7051 57.8667 98.8317 58.36 98.8317 58.96Z" fill="#1F1F1F"/>
<path d="M169 18.32C170.3 18.32 171.46 18.57 172.48 19.07C173.5 19.57 174.3 20.3 174.88 21.26C175.48 22.22 175.78 23.41 175.78 24.83C175.78 26.37 175.46 27.7 174.82 28.82C174.18 29.94 173.22 30.8 171.94 31.4C170.68 32 169.11 32.3 167.23 32.3C166.11 32.3 165.05 32.2 164.05 32C163.07 31.8 162.21 31.51 161.47 31.13V27.23C162.21 27.61 163.1 27.94 164.14 28.22C165.18 28.48 166.16 28.61 167.08 28.61C167.98 28.61 168.73 28.49 169.33 28.25C169.95 28.01 170.42 27.64 170.74 27.14C171.06 26.64 171.22 26 171.22 25.22C171.22 24.16 170.87 23.36 170.17 22.82C169.47 22.26 168.39 21.98 166.93 21.98C166.37 21.98 165.79 22.04 165.19 22.16C164.59 22.26 164.09 22.36 163.69 22.46L161.89 21.5L162.7 10.58H174.31V14.42H166.66L166.27 18.62C166.61 18.56 166.97 18.5 167.35 18.44C167.75 18.36 168.3 18.32 169 18.32ZM193.218 21.29C193.218 23.01 193.078 24.55 192.798 25.91C192.538 27.27 192.108 28.43 191.508 29.39C190.928 30.33 190.158 31.05 189.198 31.55C188.258 32.05 187.098 32.3 185.718 32.3C183.998 32.3 182.588 31.86 181.488 30.98C180.388 30.1 179.568 28.84 179.028 27.2C178.508 25.56 178.248 23.59 178.248 21.29C178.248 18.97 178.488 16.99 178.968 15.35C179.448 13.71 180.238 12.45 181.338 11.57C182.438 10.69 183.898 10.25 185.718 10.25C187.438 10.25 188.848 10.69 189.948 11.57C191.048 12.43 191.868 13.69 192.408 15.35C192.948 16.99 193.218 18.97 193.218 21.29ZM182.748 21.29C182.748 22.91 182.838 24.27 183.018 25.37C183.198 26.45 183.498 27.27 183.918 27.83C184.358 28.37 184.958 28.64 185.718 28.64C186.478 28.64 187.068 28.37 187.488 27.83C187.928 27.29 188.238 26.48 188.418 25.4C188.618 24.3 188.718 22.93 188.718 21.29C188.718 19.65 188.618 18.29 188.418 17.21C188.238 16.11 187.928 15.29 187.488 14.75C187.068 14.19 186.478 13.91 185.718 13.91C184.958 13.91 184.358 14.19 183.918 14.75C183.498 15.29 183.198 16.11 183.018 17.21C182.838 18.29 182.748 19.65 182.748 21.29ZM200.036 23.63L194.756 15.62H199.826L203.006 20.84L206.216 15.62H211.286L205.946 23.63L211.526 32H206.456L203.006 26.39L199.556 32H194.486L200.036 23.63ZM224.07 32H219.54V19.61C219.54 19.27 219.54 18.85 219.54 18.35C219.56 17.85 219.58 17.33 219.6 16.79C219.62 16.25 219.64 15.77 219.66 15.35C219.56 15.47 219.34 15.69 219 16.01C218.68 16.31 218.38 16.58 218.1 16.82L215.64 18.8L213.45 16.07L220.35 10.58H224.07V32ZM244.898 21.29C244.898 23.01 244.758 24.55 244.478 25.91C244.218 27.27 243.788 28.43 243.188 29.39C242.608 30.33 241.838 31.05 240.878 31.55C239.938 32.05 238.778 32.3 237.398 32.3C235.678 32.3 234.268 31.86 233.168 30.98C232.068 30.1 231.248 28.84 230.708 27.2C230.188 25.56 229.928 23.59 229.928 21.29C229.928 18.97 230.168 16.99 230.648 15.35C231.128 13.71 231.918 12.45 233.018 11.57C234.118 10.69 235.578 10.25 237.398 10.25C239.118 10.25 240.528 10.69 241.628 11.57C242.728 12.43 243.548 13.69 244.088 15.35C244.628 16.99 244.898 18.97 244.898 21.29ZM234.428 21.29C234.428 22.91 234.518 24.27 234.698 25.37C234.878 26.45 235.178 27.27 235.598 27.83C236.038 28.37 236.638 28.64 237.398 28.64C238.158 28.64 238.748 28.37 239.168 27.83C239.608 27.29 239.918 26.48 240.098 25.4C240.298 24.3 240.398 22.93 240.398 21.29C240.398 19.65 240.298 18.29 240.098 17.21C239.918 16.11 239.608 15.29 239.168 14.75C238.748 14.19 238.158 13.91 237.398 13.91C236.638 13.91 236.038 14.19 235.598 14.75C235.178 15.29 234.878 16.11 234.698 17.21C234.518 18.29 234.428 19.65 234.428 21.29ZM262.066 21.29C262.066 23.01 261.926 24.55 261.646 25.91C261.386 27.27 260.956 28.43 260.356 29.39C259.776 30.33 259.006 31.05 258.046 31.55C257.106 32.05 255.946 32.3 254.566 32.3C252.846 32.3 251.436 31.86 250.336 30.98C249.236 30.1 248.416 28.84 247.876 27.2C247.356 25.56 247.096 23.59 247.096 21.29C247.096 18.97 247.336 16.99 247.816 15.35C248.296 13.71 249.086 12.45 250.186 11.57C251.286 10.69 252.746 10.25 254.566 10.25C256.286 10.25 257.696 10.69 258.796 11.57C259.896 12.43 260.716 13.69 261.256 15.35C261.796 16.99 262.066 18.97 262.066 21.29ZM251.596 21.29C251.596 22.91 251.686 24.27 251.866 25.37C252.046 26.45 252.346 27.27 252.766 27.83C253.206 28.37 253.806 28.64 254.566 28.64C255.326 28.64 255.916 28.37 256.336 27.83C256.776 27.29 257.086 26.48 257.266 25.4C257.466 24.3 257.566 22.93 257.566 21.29C257.566 19.65 257.466 18.29 257.266 17.21C257.086 16.11 256.776 15.29 256.336 14.75C255.916 14.19 255.326 13.91 254.566 13.91C253.806 13.91 253.206 14.19 252.766 14.75C252.346 15.29 252.046 16.11 251.866 17.21C251.686 18.29 251.596 19.65 251.596 21.29Z" fill="#6CAD55"/>
<path d="M183.46 54.72C183.46 56.32 183.16 57.66 182.56 58.74C181.96 59.82 181.093 60.6333 179.96 61.18C178.84 61.7267 177.487 62 175.9 62H171.9V47.72H176.32C177.773 47.72 179.033 47.9867 180.1 48.52C181.167 49.0533 181.993 49.84 182.58 50.88C183.167 51.9067 183.46 53.1867 183.46 54.72ZM181.2 54.78C181.2 53.58 181.007 52.5933 180.62 51.82C180.233 51.0467 179.66 50.4733 178.9 50.1C178.153 49.7267 177.247 49.54 176.18 49.54H174.06V60.18H175.8C177.6 60.18 178.947 59.7267 179.84 58.82C180.747 57.9133 181.2 56.5667 181.2 54.78ZM188.448 51.22V62H186.328V51.22H188.448ZM187.408 47.12C187.728 47.12 188.008 47.2133 188.248 47.4C188.488 47.5867 188.608 47.9 188.608 48.34C188.608 48.7667 188.488 49.08 188.248 49.28C188.008 49.4667 187.728 49.56 187.408 49.56C187.061 49.56 186.768 49.4667 186.528 49.28C186.301 49.08 186.188 48.7667 186.188 48.34C186.188 47.9 186.301 47.5867 186.528 47.4C186.768 47.2133 187.061 47.12 187.408 47.12ZM203.857 51.02C205.071 51.02 205.984 51.3333 206.597 51.96C207.211 52.5867 207.517 53.5933 207.517 54.98V62H205.397V55.26C205.397 54.4333 205.231 53.8133 204.897 53.4C204.577 52.9733 204.071 52.76 203.377 52.76C202.417 52.76 201.731 53.06 201.317 53.66C200.904 54.2467 200.697 55.1 200.697 56.22V62H198.597V55.26C198.597 54.7133 198.517 54.2533 198.357 53.88C198.211 53.5067 197.991 53.2267 197.697 53.04C197.404 52.8533 197.024 52.76 196.557 52.76C195.891 52.76 195.364 52.9067 194.977 53.2C194.591 53.4933 194.311 53.9267 194.137 54.5C193.977 55.06 193.897 55.7467 193.897 56.56V62H191.777V51.22H193.457L193.757 52.66H193.877C194.104 52.2867 194.377 51.98 194.697 51.74C195.031 51.5 195.397 51.32 195.797 51.2C196.197 51.08 196.611 51.02 197.037 51.02C197.851 51.02 198.537 51.1667 199.097 51.46C199.657 51.74 200.064 52.1733 200.317 52.76H200.477C200.824 52.16 201.304 51.72 201.917 51.44C202.531 51.16 203.177 51.02 203.857 51.02ZM215.002 51.02C215.948 51.02 216.762 51.22 217.442 51.62C218.122 52.0067 218.642 52.5667 219.002 53.3C219.375 54.0333 219.562 54.9 219.562 55.9V57.06H212.322C212.348 58.1667 212.635 59.0133 213.182 59.6C213.742 60.1867 214.522 60.48 215.522 60.48C216.215 60.48 216.828 60.42 217.362 60.3C217.908 60.1667 218.468 59.9733 219.042 59.72V61.48C218.508 61.72 217.962 61.9 217.402 62.02C216.855 62.14 216.202 62.2 215.442 62.2C214.402 62.2 213.482 61.9933 212.682 61.58C211.882 61.1667 211.255 60.5533 210.802 59.74C210.362 58.9133 210.142 57.9 210.142 56.7C210.142 55.4867 210.342 54.46 210.742 53.62C211.155 52.78 211.722 52.14 212.442 51.7C213.175 51.2467 214.028 51.02 215.002 51.02ZM215.002 52.66C214.242 52.66 213.628 52.9067 213.162 53.4C212.708 53.8933 212.442 54.5933 212.362 55.5H217.442C217.442 54.94 217.355 54.4467 217.182 54.02C217.008 53.5933 216.742 53.26 216.382 53.02C216.022 52.78 215.562 52.66 215.002 52.66ZM229.367 58.96C229.367 59.6667 229.194 60.26 228.847 60.74C228.5 61.22 228 61.5867 227.347 61.84C226.694 62.08 225.907 62.2 224.987 62.2C224.227 62.2 223.574 62.14 223.027 62.02C222.494 61.9133 222 61.7533 221.547 61.54V59.68C222.027 59.9067 222.58 60.1133 223.207 60.3C223.834 60.4733 224.447 60.56 225.047 60.56C225.847 60.56 226.42 60.4333 226.767 60.18C227.127 59.9267 227.307 59.5867 227.307 59.16C227.307 58.92 227.24 58.7067 227.107 58.52C226.974 58.32 226.72 58.12 226.347 57.92C225.987 57.7067 225.454 57.4667 224.747 57.2C224.067 56.92 223.487 56.6467 223.007 56.38C222.527 56.1 222.16 55.7733 221.907 55.4C221.654 55.0133 221.527 54.52 221.527 53.92C221.527 52.9867 221.9 52.2733 222.647 51.78C223.407 51.2733 224.407 51.02 225.647 51.02C226.3 51.02 226.914 51.0867 227.487 51.22C228.074 51.34 228.64 51.5267 229.187 51.78L228.487 53.4C228.18 53.2533 227.86 53.1333 227.527 53.04C227.207 52.9333 226.88 52.8467 226.547 52.78C226.227 52.7133 225.894 52.68 225.547 52.68C224.907 52.68 224.42 52.78 224.087 52.98C223.754 53.18 223.587 53.46 223.587 53.82C223.587 54.0733 223.66 54.2933 223.807 54.48C223.967 54.6667 224.24 54.8533 224.627 55.04C225.014 55.2267 225.54 55.4533 226.207 55.72C226.874 55.9733 227.44 56.2333 227.907 56.5C228.387 56.7667 228.747 57.0933 228.987 57.48C229.24 57.8667 229.367 58.36 229.367 58.96ZM236.074 51.02C237.434 51.02 238.448 51.32 239.114 51.92C239.781 52.5067 240.114 53.4333 240.114 54.7V62H238.614L238.194 60.5H238.114C237.808 60.8867 237.488 61.2067 237.154 61.46C236.834 61.7133 236.461 61.9 236.034 62.02C235.621 62.14 235.114 62.2 234.514 62.2C233.874 62.2 233.294 62.0867 232.774 61.86C232.268 61.62 231.868 61.26 231.574 60.78C231.281 60.2867 231.134 59.6733 231.134 58.94C231.134 57.8467 231.548 57.0133 232.374 56.44C233.214 55.8667 234.488 55.5533 236.194 55.5L238.034 55.44V54.84C238.034 54.04 237.854 53.48 237.494 53.16C237.134 52.84 236.628 52.68 235.974 52.68C235.414 52.68 234.881 52.76 234.374 52.92C233.868 53.08 233.388 53.2733 232.934 53.5L232.254 51.96C232.761 51.6933 233.341 51.4733 233.994 51.3C234.661 51.1133 235.354 51.02 236.074 51.02ZM236.574 56.86C235.348 56.9133 234.494 57.12 234.014 57.48C233.548 57.8267 233.314 58.32 233.314 58.96C233.314 59.52 233.481 59.9267 233.814 60.18C234.161 60.4333 234.594 60.56 235.114 60.56C235.954 60.56 236.648 60.3267 237.194 59.86C237.741 59.3933 238.014 58.6933 238.014 57.76V56.82L236.574 56.86ZM232.214 49.88C232.254 49.4533 232.334 49.0733 232.454 48.74C232.588 48.4067 232.754 48.1267 232.954 47.9C233.154 47.6733 233.388 47.5 233.654 47.38C233.921 47.26 234.221 47.2 234.554 47.2C234.834 47.2 235.108 47.2533 235.374 47.36C235.654 47.4667 235.914 47.5933 236.154 47.74C236.408 47.8867 236.654 48.02 236.894 48.14C237.134 48.2467 237.361 48.3 237.574 48.3C237.854 48.3 238.081 48.2067 238.254 48.02C238.428 47.8333 238.554 47.5533 238.634 47.18H239.774C239.694 48.02 239.448 48.68 239.034 49.16C238.621 49.6267 238.094 49.86 237.454 49.86C237.174 49.86 236.901 49.8067 236.634 49.7C236.381 49.5933 236.121 49.4667 235.854 49.32C235.601 49.16 235.354 49.0267 235.114 48.92C234.888 48.8133 234.661 48.76 234.434 48.76C234.141 48.76 233.908 48.8533 233.734 49.04C233.574 49.2267 233.448 49.5067 233.354 49.88H232.214ZM252.879 56.6C252.879 57.4933 252.759 58.2867 252.519 58.98C252.279 59.6733 251.939 60.26 251.499 60.74C251.059 61.22 250.525 61.5867 249.899 61.84C249.272 62.08 248.565 62.2 247.779 62.2C247.059 62.2 246.392 62.08 245.779 61.84C245.165 61.5867 244.632 61.22 244.179 60.74C243.739 60.26 243.392 59.6733 243.139 58.98C242.885 58.2867 242.759 57.4867 242.759 56.58C242.759 55.3933 242.959 54.3867 243.359 53.56C243.772 52.7333 244.359 52.1067 245.119 51.68C245.892 51.24 246.799 51.02 247.839 51.02C248.825 51.02 249.692 51.24 250.439 51.68C251.199 52.1067 251.792 52.7333 252.219 53.56C252.659 54.3867 252.879 55.4 252.879 56.6ZM244.939 56.6C244.939 57.4 245.039 58.0933 245.239 58.68C245.439 59.2533 245.752 59.6933 246.179 60C246.605 60.3067 247.152 60.46 247.819 60.46C248.485 60.46 249.032 60.3067 249.459 60C249.885 59.6933 250.199 59.2533 250.399 58.68C250.599 58.0933 250.699 57.4 250.699 56.6C250.699 55.7733 250.592 55.08 250.379 54.52C250.179 53.96 249.865 53.5333 249.439 53.24C249.025 52.9333 248.479 52.78 247.799 52.78C246.799 52.78 246.072 53.1133 245.619 53.78C245.165 54.4467 244.939 55.3867 244.939 56.6Z" fill="#1F1F1F"/>
<path d="M301 18.32C302.3 18.32 303.46 18.57 304.48 19.07C305.5 19.57 306.3 20.3 306.88 21.26C307.48 22.22 307.78 23.41 307.78 24.83C307.78 26.37 307.46 27.7 306.82 28.82C306.18 29.94 305.22 30.8 303.94 31.4C302.68 32 301.11 32.3 299.23 32.3C298.11 32.3 297.05 32.2 296.05 32C295.07 31.8 294.21 31.51 293.47 31.13V27.23C294.21 27.61 295.1 27.94 296.14 28.22C297.18 28.48 298.16 28.61 299.08 28.61C299.98 28.61 300.73 28.49 301.33 28.25C301.95 28.01 302.42 27.64 302.74 27.14C303.06 26.64 303.22 26 303.22 25.22C303.22 24.16 302.87 23.36 302.17 22.82C301.47 22.26 300.39 21.98 298.93 21.98C298.37 21.98 297.79 22.04 297.19 22.16C296.59 22.26 296.09 22.36 295.69 22.46L293.89 21.5L294.7 10.58H306.31V14.42H298.66L298.27 18.62C298.61 18.56 298.97 18.5 299.35 18.44C299.75 18.36 300.3 18.32 301 18.32ZM330.738 15.32C332.598 15.32 333.998 15.8 334.938 16.76C335.898 17.7 336.378 19.22 336.378 21.32V32H331.908V22.43C331.908 21.25 331.708 20.37 331.308 19.79C330.908 19.19 330.288 18.89 329.448 18.89C328.268 18.89 327.428 19.31 326.928 20.15C326.428 20.99 326.178 22.2 326.178 23.78V32H321.708V22.43C321.708 21.65 321.618 21 321.438 20.48C321.258 19.96 320.988 19.57 320.628 19.31C320.268 19.03 319.808 18.89 319.248 18.89C318.428 18.89 317.778 19.1 317.298 19.52C316.818 19.94 316.478 20.55 316.278 21.35C316.078 22.15 315.978 23.13 315.978 24.29V32H311.508V15.62H314.928L315.528 17.72H315.768C316.108 17.16 316.528 16.71 317.028 16.37C317.528 16.01 318.078 15.75 318.678 15.59C319.298 15.41 319.918 15.32 320.538 15.32C321.738 15.32 322.758 15.52 323.598 15.92C324.438 16.3 325.078 16.9 325.518 17.72H325.908C326.408 16.88 327.098 16.27 327.978 15.89C328.878 15.51 329.798 15.32 330.738 15.32ZM345.451 15.62V32H340.981V15.62H345.451ZM343.231 9.2C343.891 9.2 344.461 9.36 344.941 9.68C345.421 9.98 345.661 10.55 345.661 11.39C345.661 12.21 345.421 12.78 344.941 13.1C344.461 13.42 343.891 13.58 343.231 13.58C342.551 13.58 341.971 13.42 341.491 13.1C341.031 12.78 340.801 12.21 340.801 11.39C340.801 10.55 341.031 9.98 341.491 9.68C341.971 9.36 342.551 9.2 343.231 9.2ZM354.591 32H350.121V9.2H354.591V32ZM386.285 15.32C388.145 15.32 389.545 15.8 390.485 16.76C391.445 17.7 391.925 19.22 391.925 21.32V32H387.455V22.43C387.455 21.25 387.255 20.37 386.855 19.79C386.455 19.19 385.835 18.89 384.995 18.89C383.815 18.89 382.975 19.31 382.475 20.15C381.975 20.99 381.725 22.2 381.725 23.78V32H377.255V22.43C377.255 21.65 377.165 21 376.985 20.48C376.805 19.96 376.535 19.57 376.175 19.31C375.815 19.03 375.355 18.89 374.795 18.89C373.975 18.89 373.325 19.1 372.845 19.52C372.365 19.94 372.025 20.55 371.825 21.35C371.625 22.15 371.525 23.13 371.525 24.29V32H367.055V15.62H370.475L371.075 17.72H371.315C371.655 17.16 372.075 16.71 372.575 16.37C373.075 16.01 373.625 15.75 374.225 15.59C374.845 15.41 375.465 15.32 376.085 15.32C377.285 15.32 378.305 15.52 379.145 15.92C379.985 16.3 380.625 16.9 381.065 17.72H381.455C381.955 16.88 382.645 16.27 383.525 15.89C384.425 15.51 385.345 15.32 386.285 15.32ZM410.358 32H395.388V28.85L400.758 23.42C401.838 22.3 402.708 21.37 403.368 20.63C404.028 19.87 404.508 19.19 404.808 18.59C405.108 17.97 405.258 17.31 405.258 16.61C405.258 15.75 405.018 15.11 404.538 14.69C404.078 14.27 403.448 14.06 402.648 14.06C401.828 14.06 401.028 14.25 400.248 14.63C399.468 15.01 398.648 15.55 397.788 16.25L395.328 13.34C395.948 12.8 396.598 12.3 397.278 11.84C397.978 11.38 398.778 11.01 399.678 10.73C400.598 10.43 401.698 10.28 402.978 10.28C404.378 10.28 405.578 10.54 406.578 11.06C407.598 11.56 408.378 12.25 408.918 13.13C409.478 13.99 409.758 14.97 409.758 16.07C409.758 16.97 409.618 17.8 409.337 18.56C409.078 19.32 408.688 20.06 408.168 20.78C407.668 21.48 407.048 22.21 406.308 22.97C405.568 23.71 404.728 24.52 403.788 25.4L401.028 27.98V28.19H410.358V32Z" fill="#6CAD55"/>
<path d="M313.7 62H311.54V49.58H307.26V47.72H317.98V49.58H313.7V62ZM322.508 51.02C323.868 51.02 324.881 51.32 325.548 51.92C326.215 52.5067 326.548 53.4333 326.548 54.7V62H325.048L324.628 60.5H324.548C324.241 60.8867 323.921 61.2067 323.588 61.46C323.268 61.7133 322.895 61.9 322.468 62.02C322.055 62.14 321.548 62.2 320.948 62.2C320.308 62.2 319.728 62.0867 319.208 61.86C318.701 61.62 318.301 61.26 318.008 60.78C317.715 60.2867 317.568 59.6733 317.568 58.94C317.568 57.8467 317.981 57.0133 318.808 56.44C319.648 55.8667 320.921 55.5533 322.628 55.5L324.468 55.44V54.84C324.468 54.04 324.288 53.48 323.928 53.16C323.568 52.84 323.061 52.68 322.408 52.68C321.848 52.68 321.315 52.76 320.808 52.92C320.301 53.08 319.821 53.2733 319.368 53.5L318.688 51.96C319.195 51.6933 319.775 51.4733 320.428 51.3C321.095 51.1133 321.788 51.02 322.508 51.02ZM323.008 56.86C321.781 56.9133 320.928 57.12 320.448 57.48C319.981 57.8267 319.748 58.32 319.748 58.96C319.748 59.52 319.915 59.9267 320.248 60.18C320.595 60.4333 321.028 60.56 321.548 60.56C322.388 60.56 323.081 60.3267 323.628 59.86C324.175 59.3933 324.448 58.6933 324.448 57.76V56.82L323.008 56.86ZM341.892 51.02C343.106 51.02 344.019 51.3333 344.632 51.96C345.246 52.5867 345.552 53.5933 345.552 54.98V62H343.432V55.26C343.432 54.4333 343.266 53.8133 342.932 53.4C342.612 52.9733 342.106 52.76 341.412 52.76C340.452 52.76 339.766 53.06 339.352 53.66C338.939 54.2467 338.732 55.1 338.732 56.22V62H336.632V55.26C336.632 54.7133 336.552 54.2533 336.392 53.88C336.246 53.5067 336.026 53.2267 335.732 53.04C335.439 52.8533 335.059 52.76 334.592 52.76C333.926 52.76 333.399 52.9067 333.012 53.2C332.626 53.4933 332.346 53.9267 332.172 54.5C332.012 55.06 331.932 55.7467 331.932 56.56V62H329.812V51.22H331.492L331.792 52.66H331.912C332.139 52.2867 332.412 51.98 332.732 51.74C333.066 51.5 333.432 51.32 333.832 51.2C334.232 51.08 334.646 51.02 335.072 51.02C335.886 51.02 336.572 51.1667 337.132 51.46C337.692 51.74 338.099 52.1733 338.352 52.76H338.512C338.859 52.16 339.339 51.72 339.952 51.44C340.566 51.16 341.212 51.02 341.892 51.02ZM352.977 51.02C354.337 51.02 355.35 51.32 356.017 51.92C356.683 52.5067 357.017 53.4333 357.017 54.7V62H355.517L355.097 60.5H355.017C354.71 60.8867 354.39 61.2067 354.057 61.46C353.737 61.7133 353.363 61.9 352.937 62.02C352.523 62.14 352.017 62.2 351.417 62.2C350.777 62.2 350.197 62.0867 349.677 61.86C349.17 61.62 348.77 61.26 348.477 60.78C348.183 60.2867 348.037 59.6733 348.037 58.94C348.037 57.8467 348.45 57.0133 349.277 56.44C350.117 55.8667 351.39 55.5533 353.097 55.5L354.937 55.44V54.84C354.937 54.04 354.757 53.48 354.397 53.16C354.037 52.84 353.53 52.68 352.877 52.68C352.317 52.68 351.783 52.76 351.277 52.92C350.77 53.08 350.29 53.2733 349.837 53.5L349.157 51.96C349.663 51.6933 350.243 51.4733 350.897 51.3C351.563 51.1133 352.257 51.02 352.977 51.02ZM353.477 56.86C352.25 56.9133 351.397 57.12 350.917 57.48C350.45 57.8267 350.217 58.32 350.217 58.96C350.217 59.52 350.383 59.9267 350.717 60.18C351.063 60.4333 351.497 60.56 352.017 60.56C352.857 60.56 353.55 60.3267 354.097 59.86C354.643 59.3933 354.917 58.6933 354.917 57.76V56.82L353.477 56.86ZM365.741 51.02C366.994 51.02 367.954 51.3333 368.621 51.96C369.288 52.5867 369.621 53.5933 369.621 54.98V62H367.521V55.28C367.521 54.44 367.341 53.8133 366.981 53.4C366.634 52.9733 366.074 52.76 365.301 52.76C364.208 52.76 363.448 53.0867 363.021 53.74C362.608 54.3933 362.401 55.3333 362.401 56.56V62H360.281V51.22H361.961L362.261 52.66H362.381C362.621 52.2867 362.914 51.98 363.261 51.74C363.608 51.5 363.994 51.32 364.421 51.2C364.848 51.08 365.288 51.02 365.741 51.02ZM374.999 50.86C374.999 51.1933 374.985 51.5267 374.959 51.86C374.932 52.1933 374.905 52.4667 374.879 52.68H375.019C375.245 52.3067 375.525 52 375.859 51.76C376.205 51.52 376.585 51.34 376.999 51.22C377.425 51.1 377.859 51.04 378.299 51.04C379.152 51.04 379.865 51.18 380.439 51.46C381.025 51.7267 381.465 52.1533 381.759 52.74C382.065 53.3133 382.219 54.06 382.219 54.98V62H380.119V55.28C380.119 54.44 379.939 53.8133 379.579 53.4C379.232 52.9733 378.672 52.76 377.899 52.76C377.165 52.76 376.585 52.9067 376.159 53.2C375.745 53.4933 375.445 53.9267 375.259 54.5C375.085 55.06 374.999 55.7533 374.999 56.58V62H372.879V46.8H374.999V50.86ZM394.976 56.6C394.976 57.4933 394.856 58.2867 394.616 58.98C394.376 59.6733 394.036 60.26 393.596 60.74C393.156 61.22 392.623 61.5867 391.996 61.84C391.37 62.08 390.663 62.2 389.876 62.2C389.156 62.2 388.49 62.08 387.876 61.84C387.263 61.5867 386.73 61.22 386.276 60.74C385.836 60.26 385.49 59.6733 385.236 58.98C384.983 58.2867 384.856 57.4867 384.856 56.58C384.856 55.3933 385.056 54.3867 385.456 53.56C385.87 52.7333 386.456 52.1067 387.216 51.68C387.99 51.24 388.896 51.02 389.936 51.02C390.923 51.02 391.79 51.24 392.536 51.68C393.296 52.1067 393.89 52.7333 394.316 53.56C394.756 54.3867 394.976 55.4 394.976 56.6ZM387.036 56.6C387.036 57.4 387.136 58.0933 387.336 58.68C387.536 59.2533 387.85 59.6933 388.276 60C388.703 60.3067 389.25 60.46 389.916 60.46C390.583 60.46 391.13 60.3067 391.556 60C391.983 59.6933 392.296 59.2533 392.496 58.68C392.696 58.0933 392.796 57.4 392.796 56.6C392.796 55.7733 392.69 55.08 392.476 54.52C392.276 53.96 391.963 53.5333 391.536 53.24C391.123 52.9333 390.576 52.78 389.896 52.78C388.896 52.78 388.17 53.1133 387.716 53.78C387.263 54.4467 387.036 55.3867 387.036 56.6Z" fill="#1F1F1F"/>
<path d="M405.176 133L401.72 122.984H401.656C401.677 123.197 401.693 123.469 401.704 123.8C401.725 124.131 401.741 124.493 401.752 124.888C401.763 125.272 401.768 125.667 401.768 126.072V133H400.456V121.576H402.536L405.784 130.936H405.848L409.16 121.576H411.24V133H409.832V125.976C409.832 125.603 409.837 125.235 409.848 124.872C409.859 124.499 409.875 124.152 409.896 123.832C409.917 123.501 409.933 123.224 409.944 123H409.88L406.36 133H405.176ZM417.055 124.28C418.036 124.28 418.767 124.509 419.247 124.968C419.738 125.427 419.983 126.157 419.983 127.16V133H418.975L418.703 131.784H418.639C418.404 132.093 418.164 132.355 417.919 132.568C417.684 132.771 417.407 132.92 417.087 133.016C416.778 133.112 416.394 133.16 415.935 133.16C415.455 133.16 415.023 133.069 414.639 132.888C414.255 132.707 413.951 132.429 413.727 132.056C413.503 131.672 413.391 131.192 413.391 130.616C413.391 129.763 413.706 129.107 414.335 128.648C414.964 128.179 415.935 127.923 417.247 127.88L418.607 127.832V127.32C418.607 126.605 418.463 126.109 418.175 125.832C417.898 125.555 417.498 125.416 416.975 125.416C416.559 125.416 416.159 125.485 415.775 125.624C415.402 125.752 415.044 125.901 414.703 126.072L414.271 125.016C414.634 124.813 415.055 124.643 415.535 124.504C416.015 124.355 416.522 124.28 417.055 124.28ZM417.439 128.856C416.458 128.899 415.775 129.069 415.391 129.368C415.018 129.667 414.831 130.088 414.831 130.632C414.831 131.112 414.964 131.464 415.231 131.688C415.498 131.912 415.844 132.024 416.271 132.024C416.932 132.024 417.487 131.827 417.935 131.432C418.383 131.027 418.607 130.408 418.607 129.576V128.808L417.439 128.856ZM426.355 124.264C427.347 124.264 428.142 124.632 428.739 125.368C429.347 126.104 429.651 127.213 429.651 128.696C429.651 129.667 429.512 130.488 429.235 131.16C428.958 131.821 428.568 132.323 428.067 132.664C427.576 132.995 427 133.16 426.339 133.16C425.923 133.16 425.555 133.101 425.235 132.984C424.926 132.867 424.659 132.717 424.435 132.536C424.211 132.344 424.019 132.136 423.859 131.912H423.763C423.784 132.093 423.806 132.323 423.827 132.6C423.848 132.877 423.859 133.117 423.859 133.32V136.84H422.467V124.424H423.603L423.795 125.592H423.859C424.019 125.347 424.211 125.123 424.435 124.92C424.659 124.717 424.926 124.557 425.235 124.44C425.555 124.323 425.928 124.264 426.355 124.264ZM426.083 125.448C425.55 125.448 425.118 125.56 424.787 125.784C424.467 125.997 424.232 126.323 424.083 126.76C423.934 127.197 423.859 127.752 423.859 128.424V128.696C423.859 129.4 423.923 129.997 424.051 130.488C424.19 130.979 424.424 131.352 424.755 131.608C425.086 131.864 425.539 131.992 426.115 131.992C426.595 131.992 426.99 131.848 427.299 131.56C427.608 131.272 427.838 130.883 427.987 130.392C428.136 129.891 428.211 129.32 428.211 128.68C428.211 127.699 428.035 126.915 427.683 126.328C427.342 125.741 426.808 125.448 426.083 125.448ZM434.821 124.28C435.802 124.28 436.533 124.509 437.013 124.968C437.503 125.427 437.749 126.157 437.749 127.16V133H436.741L436.469 131.784H436.405C436.17 132.093 435.93 132.355 435.685 132.568C435.45 132.771 435.173 132.92 434.853 133.016C434.543 133.112 434.159 133.16 433.701 133.16C433.221 133.16 432.789 133.069 432.405 132.888C432.021 132.707 431.717 132.429 431.493 132.056C431.269 131.672 431.157 131.192 431.157 130.616C431.157 129.763 431.471 129.107 432.101 128.648C432.73 128.179 433.701 127.923 435.013 127.88L436.373 127.832V127.32C436.373 126.605 436.229 126.109 435.941 125.832C435.663 125.555 435.263 125.416 434.741 125.416C434.325 125.416 433.925 125.485 433.541 125.624C433.167 125.752 432.81 125.901 432.469 126.072L432.037 125.016C432.399 124.813 432.821 124.643 433.301 124.504C433.781 124.355 434.287 124.28 434.821 124.28ZM435.205 128.856C434.223 128.899 433.541 129.069 433.157 129.368C432.783 129.667 432.597 130.088 432.597 130.632C432.597 131.112 432.73 131.464 432.997 131.688C433.263 131.912 433.61 132.024 434.037 132.024C434.698 132.024 435.253 131.827 435.701 131.432C436.149 131.027 436.373 130.408 436.373 129.576V128.808L435.205 128.856ZM448.027 124.264C449.019 124.264 449.814 124.632 450.411 125.368C451.019 126.104 451.323 127.213 451.323 128.696C451.323 129.667 451.184 130.488 450.907 131.16C450.63 131.821 450.24 132.323 449.739 132.664C449.248 132.995 448.672 133.16 448.011 133.16C447.595 133.16 447.227 133.101 446.907 132.984C446.598 132.867 446.331 132.717 446.107 132.536C445.883 132.344 445.691 132.136 445.531 131.912H445.435C445.456 132.093 445.478 132.323 445.499 132.6C445.52 132.877 445.531 133.117 445.531 133.32V136.84H444.139V124.424H445.275L445.467 125.592H445.531C445.691 125.347 445.883 125.123 446.107 124.92C446.331 124.717 446.598 124.557 446.907 124.44C447.227 124.323 447.6 124.264 448.027 124.264ZM447.755 125.448C447.222 125.448 446.79 125.56 446.459 125.784C446.139 125.997 445.904 126.323 445.755 126.76C445.606 127.197 445.531 127.752 445.531 128.424V128.696C445.531 129.4 445.595 129.997 445.723 130.488C445.862 130.979 446.096 131.352 446.427 131.608C446.758 131.864 447.211 131.992 447.787 131.992C448.267 131.992 448.662 131.848 448.971 131.56C449.28 131.272 449.51 130.883 449.659 130.392C449.808 129.891 449.883 129.32 449.883 128.68C449.883 127.699 449.707 126.915 449.355 126.328C449.014 125.741 448.48 125.448 447.755 125.448ZM456.493 124.28C457.474 124.28 458.205 124.509 458.685 124.968C459.175 125.427 459.421 126.157 459.421 127.16V133H458.413L458.141 131.784H458.077C457.842 132.093 457.602 132.355 457.357 132.568C457.122 132.771 456.845 132.92 456.525 133.016C456.215 133.112 455.831 133.16 455.373 133.16C454.893 133.16 454.461 133.069 454.077 132.888C453.693 132.707 453.389 132.429 453.165 132.056C452.941 131.672 452.829 131.192 452.829 130.616C452.829 129.763 453.143 129.107 453.773 128.648C454.402 128.179 455.373 127.923 456.685 127.88L458.045 127.832V127.32C458.045 126.605 457.901 126.109 457.613 125.832C457.335 125.555 456.935 125.416 456.413 125.416C455.997 125.416 455.597 125.485 455.213 125.624C454.839 125.752 454.482 125.901 454.141 126.072L453.709 125.016C454.071 124.813 454.493 124.643 454.973 124.504C455.453 124.355 455.959 124.28 456.493 124.28ZM456.877 128.856C455.895 128.899 455.213 129.069 454.829 129.368C454.455 129.667 454.269 130.088 454.269 130.632C454.269 131.112 454.402 131.464 454.669 131.688C454.935 131.912 455.282 132.024 455.709 132.024C456.37 132.024 456.925 131.827 457.373 131.432C457.821 131.027 458.045 130.408 458.045 129.576V128.808L456.877 128.856ZM465.729 124.264C465.878 124.264 466.038 124.275 466.209 124.296C466.379 124.307 466.529 124.328 466.657 124.36L466.497 125.656C466.369 125.624 466.225 125.597 466.065 125.576C465.915 125.555 465.771 125.544 465.633 125.544C465.323 125.544 465.03 125.613 464.753 125.752C464.475 125.891 464.225 126.088 464.001 126.344C463.787 126.589 463.617 126.888 463.489 127.24C463.361 127.592 463.297 127.987 463.297 128.424V133H461.905V124.424H463.041L463.201 125.992H463.265C463.435 125.672 463.638 125.384 463.873 125.128C464.118 124.861 464.395 124.653 464.705 124.504C465.014 124.344 465.355 124.264 465.729 124.264ZM473.202 133.176C473.202 132.984 473.207 132.76 473.218 132.504C473.228 132.248 473.25 132.029 473.282 131.848H473.186C472.951 132.211 472.631 132.52 472.226 132.776C471.831 133.032 471.314 133.16 470.674 133.16C469.703 133.16 468.914 132.792 468.306 132.056C467.708 131.309 467.41 130.2 467.41 128.728C467.41 127.747 467.548 126.925 467.826 126.264C468.103 125.603 468.492 125.107 468.994 124.776C469.495 124.435 470.071 124.264 470.722 124.264C471.351 124.264 471.863 124.392 472.258 124.648C472.663 124.904 472.983 125.219 473.218 125.592H473.282L473.474 124.424H474.594V136.84H473.202V133.176ZM470.978 131.992C471.522 131.992 471.954 131.885 472.274 131.672C472.604 131.459 472.844 131.133 472.994 130.696C473.143 130.248 473.218 129.693 473.218 129.032V128.744C473.218 127.656 473.052 126.835 472.722 126.28C472.391 125.715 471.799 125.432 470.946 125.432C470.231 125.432 469.703 125.736 469.362 126.344C469.02 126.941 468.85 127.747 468.85 128.76C468.85 129.773 469.02 130.568 469.362 131.144C469.714 131.709 470.252 131.992 470.978 131.992ZM483.923 124.424V133H482.803L482.595 131.864H482.531C482.361 132.163 482.137 132.408 481.859 132.6C481.593 132.792 481.299 132.931 480.979 133.016C480.659 133.112 480.323 133.16 479.971 133.16C479.331 133.16 478.793 133.053 478.355 132.84C477.918 132.616 477.587 132.275 477.363 131.816C477.15 131.357 477.043 130.765 477.043 130.04V124.424H478.451V129.944C478.451 130.627 478.595 131.139 478.883 131.48C479.171 131.821 479.614 131.992 480.211 131.992C480.798 131.992 481.257 131.875 481.587 131.64C481.929 131.395 482.169 131.043 482.307 130.584C482.457 130.115 482.531 129.549 482.531 128.888V124.424H483.923ZM489.588 124.264C490.281 124.264 490.878 124.424 491.38 124.744C491.881 125.064 492.265 125.517 492.532 126.104C492.809 126.68 492.948 127.357 492.948 128.136V128.984H487.444C487.465 129.955 487.694 130.696 488.132 131.208C488.569 131.709 489.182 131.96 489.972 131.96C490.484 131.96 490.937 131.912 491.332 131.816C491.737 131.709 492.153 131.56 492.58 131.368V132.6C492.164 132.792 491.753 132.931 491.348 133.016C490.953 133.112 490.473 133.16 489.908 133.16C489.14 133.16 488.462 132.995 487.876 132.664C487.289 132.333 486.83 131.843 486.5 131.192C486.169 130.531 486.004 129.725 486.004 128.776C486.004 127.837 486.153 127.032 486.452 126.36C486.75 125.688 487.166 125.171 487.7 124.808C488.244 124.445 488.873 124.264 489.588 124.264ZM489.588 125.416C488.969 125.416 488.478 125.635 488.116 126.072C487.753 126.499 487.54 127.096 487.476 127.864H491.508C491.508 127.373 491.438 126.947 491.3 126.584C491.161 126.221 490.948 125.939 490.66 125.736C490.382 125.523 490.025 125.416 489.588 125.416ZM500.281 124.424V133H498.889V124.424H500.281ZM499.593 121.208C499.807 121.208 499.993 121.283 500.153 121.432C500.313 121.571 500.393 121.795 500.393 122.104C500.393 122.403 500.313 122.627 500.153 122.776C499.993 122.925 499.807 123 499.593 123C499.369 123 499.177 122.925 499.017 122.776C498.857 122.627 498.777 122.403 498.777 122.104C498.777 121.795 498.857 121.571 499.017 121.432C499.177 121.283 499.369 121.208 499.593 121.208ZM506.747 124.264C507.707 124.264 508.432 124.515 508.923 125.016C509.424 125.507 509.675 126.307 509.675 127.416V133H508.283V127.512C508.283 126.819 508.139 126.301 507.851 125.96C507.563 125.619 507.12 125.448 506.523 125.448C505.648 125.448 505.04 125.715 504.699 126.248C504.368 126.781 504.203 127.549 504.203 128.552V133H502.811V124.424H503.931L504.139 125.592H504.219C504.39 125.293 504.608 125.048 504.875 124.856C505.142 124.653 505.435 124.504 505.755 124.408C506.075 124.312 506.406 124.264 506.747 124.264ZM515.003 133.16C514.011 133.16 513.211 132.792 512.603 132.056C512.005 131.309 511.707 130.2 511.707 128.728C511.707 127.256 512.011 126.147 512.619 125.4C513.227 124.643 514.027 124.264 515.019 124.264C515.435 124.264 515.797 124.323 516.107 124.44C516.416 124.547 516.683 124.696 516.907 124.888C517.141 125.08 517.339 125.293 517.499 125.528H517.595C517.584 125.389 517.563 125.187 517.531 124.92C517.509 124.643 517.499 124.424 517.499 124.264V120.84H518.891V133H517.771L517.563 131.848H517.499C517.339 132.093 517.141 132.317 516.907 132.52C516.683 132.712 516.411 132.867 516.091 132.984C515.781 133.101 515.419 133.16 515.003 133.16ZM515.259 131.992C516.091 131.992 516.672 131.747 517.003 131.256C517.344 130.755 517.515 130.003 517.515 129V128.744C517.515 127.677 517.355 126.861 517.035 126.296C516.715 125.72 516.117 125.432 515.243 125.432C514.539 125.432 514.011 125.736 513.659 126.344C513.317 126.941 513.147 127.747 513.147 128.76C513.147 129.784 513.317 130.579 513.659 131.144C514.011 131.709 514.544 131.992 515.259 131.992ZM528.22 124.424V133H527.1L526.892 131.864H526.828C526.658 132.163 526.434 132.408 526.156 132.6C525.89 132.792 525.596 132.931 525.276 133.016C524.956 133.112 524.62 133.16 524.268 133.16C523.628 133.16 523.09 133.053 522.652 132.84C522.215 132.616 521.884 132.275 521.66 131.816C521.447 131.357 521.34 130.765 521.34 130.04V124.424H522.748V129.944C522.748 130.627 522.892 131.139 523.18 131.48C523.468 131.821 523.911 131.992 524.508 131.992C525.095 131.992 525.554 131.875 525.884 131.64C526.226 131.395 526.466 131.043 526.604 130.584C526.754 130.115 526.828 129.549 526.828 128.888V124.424H528.22ZM527.18 120.904C527.084 121.053 526.946 121.235 526.764 121.448C526.594 121.661 526.402 121.885 526.188 122.12C525.986 122.344 525.778 122.563 525.564 122.776C525.351 122.979 525.154 123.155 524.972 123.304H524.06V123.112C524.21 122.909 524.375 122.669 524.556 122.392C524.738 122.115 524.914 121.832 525.084 121.544C525.255 121.245 525.399 120.979 525.516 120.744H527.18V120.904ZM536.044 130.632C536.044 131.187 535.911 131.651 535.644 132.024C535.388 132.397 535.02 132.68 534.54 132.872C534.06 133.064 533.484 133.16 532.812 133.16C532.247 133.16 531.756 133.112 531.34 133.016C530.935 132.92 530.578 132.787 530.268 132.616V131.336C530.599 131.507 530.994 131.667 531.452 131.816C531.911 131.955 532.375 132.024 532.844 132.024C533.495 132.024 533.964 131.912 534.252 131.688C534.551 131.453 534.7 131.144 534.7 130.76C534.7 130.547 534.642 130.355 534.524 130.184C534.418 130.013 534.22 129.843 533.932 129.672C533.655 129.501 533.25 129.309 532.716 129.096C532.204 128.883 531.762 128.669 531.388 128.456C531.026 128.243 530.743 127.987 530.54 127.688C530.348 127.389 530.252 127.005 530.252 126.536C530.252 125.811 530.53 125.251 531.084 124.856C531.65 124.461 532.386 124.264 533.292 124.264C533.783 124.264 534.242 124.317 534.668 124.424C535.095 124.52 535.5 124.659 535.884 124.84L535.42 125.96C535.196 125.853 534.962 125.763 534.716 125.688C534.471 125.603 534.22 125.539 533.964 125.496C533.719 125.443 533.468 125.416 533.212 125.416C532.69 125.416 532.29 125.512 532.012 125.704C531.735 125.885 531.596 126.136 531.596 126.456C531.596 126.691 531.66 126.893 531.788 127.064C531.916 127.235 532.124 127.4 532.412 127.56C532.711 127.709 533.116 127.885 533.628 128.088C534.14 128.291 534.578 128.499 534.94 128.712C535.303 128.925 535.575 129.187 535.756 129.496C535.948 129.795 536.044 130.173 536.044 130.632ZM540.751 132.008C540.953 132.008 541.161 131.992 541.375 131.96C541.588 131.917 541.764 131.875 541.903 131.832V132.904C541.753 132.979 541.54 133.037 541.263 133.08C540.996 133.133 540.74 133.16 540.495 133.16C540.068 133.16 539.673 133.085 539.311 132.936C538.948 132.776 538.655 132.504 538.431 132.12C538.217 131.736 538.111 131.197 538.111 130.504V125.512H536.975V124.84L538.143 124.28L538.671 122.456H539.503V124.424H541.839V125.512H539.503V130.472C539.503 130.995 539.62 131.384 539.855 131.64C540.089 131.885 540.388 132.008 540.751 132.008ZM547.322 124.264C547.472 124.264 547.632 124.275 547.802 124.296C547.973 124.307 548.122 124.328 548.25 124.36L548.09 125.656C547.962 125.624 547.818 125.597 547.658 125.576C547.509 125.555 547.365 125.544 547.226 125.544C546.917 125.544 546.624 125.613 546.346 125.752C546.069 125.891 545.818 126.088 545.594 126.344C545.381 126.589 545.21 126.888 545.082 127.24C544.954 127.592 544.89 127.987 544.89 128.424V133H543.498V124.424H544.634L544.794 125.992H544.858C545.029 125.672 545.232 125.384 545.466 125.128C545.712 124.861 545.989 124.653 546.298 124.504C546.608 124.344 546.949 124.264 547.322 124.264ZM551.156 124.424V133H549.764V124.424H551.156ZM550.468 121.208C550.682 121.208 550.868 121.283 551.028 121.432C551.188 121.571 551.268 121.795 551.268 122.104C551.268 122.403 551.188 122.627 551.028 122.776C550.868 122.925 550.682 123 550.468 123C550.244 123 550.052 122.925 549.892 122.776C549.732 122.627 549.652 122.403 549.652 122.104C549.652 121.795 549.732 121.571 549.892 121.432C550.052 121.283 550.244 121.208 550.468 121.208ZM556.774 124.28C557.755 124.28 558.486 124.509 558.966 124.968C559.457 125.427 559.702 126.157 559.702 127.16V133H558.694L558.422 131.784H558.358C558.123 132.093 557.883 132.355 557.638 132.568C557.403 132.771 557.126 132.92 556.806 133.016C556.497 133.112 556.113 133.16 555.654 133.16C555.174 133.16 554.742 133.069 554.358 132.888C553.974 132.707 553.67 132.429 553.446 132.056C553.222 131.672 553.11 131.192 553.11 130.616C553.11 129.763 553.425 129.107 554.054 128.648C554.683 128.179 555.654 127.923 556.966 127.88L558.326 127.832V127.32C558.326 126.605 558.182 126.109 557.894 125.832C557.617 125.555 557.217 125.416 556.694 125.416C556.278 125.416 555.878 125.485 555.494 125.624C555.121 125.752 554.763 125.901 554.422 126.072L553.99 125.016C554.353 124.813 554.774 124.643 555.254 124.504C555.734 124.355 556.241 124.28 556.774 124.28ZM557.158 128.856C556.177 128.899 555.494 129.069 555.11 129.368C554.737 129.667 554.55 130.088 554.55 130.632C554.55 131.112 554.683 131.464 554.95 131.688C555.217 131.912 555.563 132.024 555.99 132.024C556.651 132.024 557.206 131.827 557.654 131.432C558.102 131.027 558.326 130.408 558.326 129.576V128.808L557.158 128.856ZM563.578 133H562.186V120.84H563.578V133Z" fill="#82B967"/>
</svg>
