<svg width="24" height="25" viewBox="0 0 24 25" fill="none" xmlns="http://www.w3.org/2000/svg">
<g clip-path="url(#clip0_534_543)">
<path d="M12 3.06621C15.2063 3.06621 15.5859 3.08027 16.8469 3.13652C18.0188 3.18809 18.6516 3.38496 19.0734 3.54902C19.6313 3.76465 20.0344 4.02715 20.4516 4.44434C20.8734 4.86621 21.1313 5.26465 21.3469 5.82246C21.5109 6.24434 21.7078 6.88184 21.7594 8.04902C21.8156 9.31465 21.8297 9.69434 21.8297 12.8959C21.8297 16.1021 21.8156 16.4818 21.7594 17.7428C21.7078 18.9146 21.5109 19.5475 21.3469 19.9693C21.1313 20.5271 20.8687 20.9303 20.4516 21.3475C20.0297 21.7693 19.6313 22.0271 19.0734 22.2428C18.6516 22.4068 18.0141 22.6037 16.8469 22.6553C15.5813 22.7115 15.2016 22.7256 12 22.7256C8.79375 22.7256 8.41406 22.7115 7.15313 22.6553C5.98125 22.6037 5.34844 22.4068 4.92656 22.2428C4.36875 22.0271 3.96563 21.7646 3.54844 21.3475C3.12656 20.9256 2.86875 20.5271 2.65313 19.9693C2.48906 19.5475 2.29219 18.91 2.24063 17.7428C2.18438 16.4771 2.17031 16.0975 2.17031 12.8959C2.17031 9.68965 2.18438 9.30996 2.24063 8.04902C2.29219 6.87715 2.48906 6.24434 2.65313 5.82246C2.86875 5.26465 3.13125 4.86152 3.54844 4.44434C3.97031 4.02246 4.36875 3.76465 4.92656 3.54902C5.34844 3.38496 5.98594 3.18809 7.15313 3.13652C8.41406 3.08027 8.79375 3.06621 12 3.06621ZM12 0.905273C8.74219 0.905273 8.33438 0.919336 7.05469 0.975586C5.77969 1.03184 4.90313 1.23809 4.14375 1.5334C3.35156 1.84277 2.68125 2.25059 2.01563 2.9209C1.34531 3.58652 0.9375 4.25684 0.628125 5.04434C0.332812 5.8084 0.126563 6.68027 0.0703125 7.95527C0.0140625 9.23965 0 9.64746 0 12.9053C0 16.1631 0.0140625 16.5709 0.0703125 17.8506C0.126563 19.1256 0.332812 20.0021 0.628125 20.7615C0.9375 21.5537 1.34531 22.224 2.01563 22.8896C2.68125 23.5553 3.35156 23.9678 4.13906 24.2725C4.90313 24.5678 5.775 24.774 7.05 24.8303C8.32969 24.8865 8.7375 24.9006 11.9953 24.9006C15.2531 24.9006 15.6609 24.8865 16.9406 24.8303C18.2156 24.774 19.0922 24.5678 19.8516 24.2725C20.6391 23.9678 21.3094 23.5553 21.975 22.8896C22.6406 22.224 23.0531 21.5537 23.3578 20.7662C23.6531 20.0021 23.8594 19.1303 23.9156 17.8553C23.9719 16.5756 23.9859 16.1678 23.9859 12.91C23.9859 9.65215 23.9719 9.24434 23.9156 7.96465C23.8594 6.68965 23.6531 5.81309 23.3578 5.05371C23.0625 4.25684 22.6547 3.58652 21.9844 2.9209C21.3188 2.25527 20.6484 1.84277 19.8609 1.53809C19.0969 1.24277 18.225 1.03652 16.95 0.980273C15.6656 0.919336 15.2578 0.905273 12 0.905273Z" fill="#EEF4C3"/>
<path d="M12 6.74121C8.59688 6.74121 5.83594 9.50215 5.83594 12.9053C5.83594 16.3084 8.59688 19.0693 12 19.0693C15.4031 19.0693 18.1641 16.3084 18.1641 12.9053C18.1641 9.50215 15.4031 6.74121 12 6.74121ZM12 16.9037C9.79219 16.9037 8.00156 15.1131 8.00156 12.9053C8.00156 10.6975 9.79219 8.90684 12 8.90684C14.2078 8.90684 15.9984 10.6975 15.9984 12.9053C15.9984 15.1131 14.2078 16.9037 12 16.9037Z" fill="#EEF4C3"/>
<path d="M19.8469 6.49766C19.8469 7.29453 19.2 7.93672 18.4078 7.93672C17.6109 7.93672 16.9688 7.28985 16.9688 6.49766C16.9688 5.70078 17.6156 5.05859 18.4078 5.05859C19.2 5.05859 19.8469 5.70547 19.8469 6.49766Z" fill="#EEF4C3"/>
</g>
<defs>
<clipPath id="clip0_534_543">
<rect width="24" height="24" fill="white" transform="translate(0 0.905273)"/>
</clipPath>
</defs>
</svg>
