<svg width="24" height="25" viewBox="0 0 24 25" fill="none" xmlns="http://www.w3.org/2000/svg">
<path d="M22.2234 0.905273H1.77187C0.792187 0.905273 0 1.67871 0 2.63496V23.1709C0 24.1271 0.792187 24.9053 1.77187 24.9053H22.2234C23.2031 24.9053 24 24.1272 24 23.1756V2.63496C24 1.67871 23.2031 0.905273 22.2234 0.905273ZM7.12031 21.3568H3.55781V9.90059H7.12031V21.3568ZM5.33906 8.33965C4.19531 8.33965 3.27188 7.41621 3.27188 6.27715C3.27188 5.13809 4.19531 4.21465 5.33906 4.21465C6.47813 4.21465 7.40156 5.13809 7.40156 6.27715C7.40156 7.41152 6.47813 8.33965 5.33906 8.33965ZM20.4516 21.3568H16.8937V15.7881C16.8937 14.4615 16.8703 12.7506 15.0422 12.7506C13.1906 12.7506 12.9094 14.199 12.9094 15.6943V21.3568H9.35625V9.90059H12.7687V11.4662H12.8156C13.2891 10.5662 14.4516 9.61465 16.1813 9.61465C19.7859 9.61465 20.4516 11.9865 20.4516 15.0709V21.3568Z" fill="#EEF4C3"/>
</svg>
