<svg width="137" height="73" viewBox="0 0 137 73" fill="none" xmlns="http://www.w3.org/2000/svg">
<path d="M1.44742 71.0532V66.8356L0.807312 66.7627V66.478H2.63523V66.7627L1.99513 66.8356V71.0532L2.63523 71.1194V71.3975H0.807312V71.1128L1.44742 71.0532Z" fill="white"/>
<path d="M3.73991 68.1588L3.23178 68.0462V67.7483L4.06985 67.6424H4.08965L4.21502 67.7483V68.0396L4.20844 68.2052C4.37121 68.0639 4.58678 67.9337 4.85513 67.8145C5.12348 67.6953 5.37204 67.6357 5.60081 67.6357C5.88237 67.6357 6.09794 67.6909 6.2475 67.8013C6.40148 67.9072 6.50706 68.0727 6.56425 68.2978C6.62584 68.5185 6.65663 68.8165 6.65663 69.1917V71.0654L7.15156 71.1117V71.3964H5.66679V71.1117L6.12213 71.0654V69.185C6.12213 68.9069 6.10233 68.6885 6.06273 68.5295C6.02754 68.3706 5.95495 68.2515 5.84497 68.172C5.73939 68.0881 5.58322 68.0462 5.37646 68.0462C5.20049 68.0462 5.00911 68.0903 4.80234 68.1786C4.59998 68.2669 4.42401 68.3706 4.27443 68.4898V71.0587L4.75615 71.1117V71.3964H3.29779V71.1117L3.73992 71.0587L3.73991 68.1588Z" fill="white"/>
<path d="M7.63127 69.5375C7.63127 69.1534 7.71046 68.8158 7.86883 68.5245C8.03161 68.2331 8.24277 68.0102 8.50232 67.8558C8.76628 67.7013 9.04123 67.624 9.32719 67.624C9.88149 67.624 10.2906 67.805 10.5546 68.1669C10.8229 68.5289 10.9571 68.9924 10.9571 69.5573C10.9571 69.9414 10.8757 70.279 10.713 70.5703C10.5546 70.8617 10.3434 71.0846 10.0795 71.2391C9.81989 71.3935 9.54713 71.4708 9.26118 71.4708C8.70687 71.4708 8.29554 71.2898 8.02717 70.9279C7.76321 70.5659 7.63127 70.1024 7.63127 69.5375ZM9.29421 71.1265C9.63296 71.1265 9.89472 70.9963 10.0795 70.7358C10.2643 70.4754 10.3567 70.0958 10.3567 69.597C10.3567 69.1203 10.2709 68.7297 10.0993 68.4251C9.92773 68.1205 9.66157 67.9683 9.30084 67.9683C8.96208 67.9683 8.69813 68.0985 8.50896 68.3589C8.32419 68.6193 8.2318 68.9989 8.2318 69.4977C8.2318 69.9788 8.31759 70.3717 8.48916 70.6762C8.66513 70.9764 8.93346 71.1265 9.29421 71.1265Z" fill="white"/>
<path d="M11.2762 67.9951V67.7236H12.6752V67.9951L12.1869 68.0811L12.893 70.0476L13.2163 70.9878L13.4935 70.0807L14.1996 68.0811L13.7376 67.9951V67.7236H14.998V67.9951L14.6615 68.0811L13.3615 71.4513H12.9194L11.5864 68.0811L11.2762 67.9951Z" fill="white"/>
<path d="M15.339 70.4297C15.339 70.0016 15.5501 69.6926 15.9725 69.5028C16.3948 69.3086 16.9205 69.2049 17.5496 69.1916V68.9864C17.5496 68.7613 17.5254 68.5847 17.477 68.4567C17.433 68.3243 17.3538 68.2294 17.2395 68.172C17.1251 68.1102 16.9645 68.0793 16.7577 68.0793C16.397 68.0793 16.0099 68.1963 15.5963 68.4302L15.4512 68.1389C15.4996 68.0947 15.6007 68.0329 15.7547 67.9535C15.9131 67.874 16.0934 67.8034 16.2958 67.7416C16.4982 67.6798 16.6917 67.6489 16.8765 67.6489C17.1757 67.6489 17.411 67.6909 17.5826 67.7747C17.7586 67.8586 17.884 67.9932 17.9588 68.1786C18.0379 68.364 18.0775 68.6134 18.0775 68.9267V71.1117H18.4867V71.3566C18.2447 71.4228 18.0402 71.456 17.873 71.456C17.7674 71.456 17.6948 71.4383 17.6552 71.403C17.6156 71.3721 17.5958 71.297 17.5958 71.1779V70.9329C17.4375 71.0741 17.2637 71.2 17.0745 71.3103C16.8897 71.4162 16.6786 71.4692 16.441 71.4692C16.1243 71.4692 15.8603 71.3809 15.6491 71.2044C15.4424 71.0278 15.339 70.7696 15.339 70.4297ZM16.639 71.0786C16.7621 71.0786 16.9095 71.0389 17.0811 70.9594C17.2527 70.88 17.4088 70.7851 17.5496 70.6747V69.5028C17.0173 69.5072 16.6126 69.5867 16.3354 69.7412C16.0626 69.8956 15.9263 70.1031 15.9263 70.3635C15.9263 70.6151 15.99 70.7983 16.1176 70.9131C16.2452 71.0234 16.419 71.0786 16.639 71.0786Z" fill="white"/>
<path d="M19.3883 68.1588L18.8802 68.0462V67.7483L19.7183 67.6424H19.7381L19.8635 67.7483V68.0396L19.8569 68.2052C20.0196 68.0639 20.2352 67.9337 20.5036 67.8145C20.7719 67.6953 21.0205 67.6357 21.2492 67.6357C21.5308 67.6357 21.7464 67.6909 21.8959 67.8013C22.0499 67.9072 22.1555 68.0727 22.2127 68.2978C22.2743 68.5185 22.3051 68.8165 22.3051 69.1917V71.0654L22.8 71.1117V71.3964H21.3152V71.1117L21.7706 71.0654V69.185C21.7706 68.9069 21.7508 68.6885 21.7112 68.5295C21.676 68.3706 21.6034 68.2515 21.4934 68.172C21.3878 68.0881 21.2316 68.0462 21.0249 68.0462C20.8489 68.0462 20.6575 68.0903 20.4508 68.1786C20.2484 68.2669 20.0724 68.3706 19.9229 68.4898V71.0587L20.4046 71.1117V71.3964H18.9462V71.1117L19.3884 71.0587L19.3883 68.1588Z" fill="white"/>
<path d="M24.7286 71.4695C24.469 71.4695 24.2292 71.4033 24.0093 71.2709C23.7893 71.134 23.6133 70.9288 23.4814 70.6551C23.3494 70.3815 23.2834 70.046 23.2834 69.6487C23.2834 69.2691 23.3604 68.9271 23.5144 68.6225C23.6683 68.3135 23.8861 68.0707 24.1677 67.8942C24.4536 67.7132 24.7858 67.6227 25.1641 67.6227C25.4061 67.6227 25.6392 67.6492 25.8636 67.7022V66.3912L25.1773 66.325V66.0867L26.2595 65.9741H26.2727L26.3981 66.0668V71.0986H26.8006V71.3569C26.7786 71.3613 26.7038 71.3789 26.5763 71.4098C26.4487 71.4407 26.3123 71.4562 26.1671 71.4562C26.0659 71.4562 25.9933 71.4385 25.9494 71.4032C25.9098 71.3679 25.89 71.2906 25.89 71.1715V70.9397C25.7536 71.0898 25.5864 71.2156 25.3885 71.3171C25.1949 71.4187 24.9749 71.4695 24.7286 71.4695ZM24.9464 71.0524C25.1355 71.0524 25.3137 71.0082 25.4809 70.92C25.6524 70.8273 25.78 70.7258 25.8636 70.6154V68.1789C25.8284 68.1171 25.736 68.0641 25.5864 68.02C25.4412 67.9759 25.2851 67.9538 25.1179 67.9538C24.7396 67.9538 24.436 68.0906 24.2073 68.3643C23.9785 68.6335 23.8641 69.044 23.8641 69.5958C23.8641 70.0902 23.9653 70.4565 24.1676 70.6949C24.37 70.9332 24.6296 71.0524 24.9464 71.0524Z" fill="white"/>
<path d="M27.3504 69.5375C27.3504 69.1534 27.4296 68.8158 27.588 68.5245C27.7508 68.2331 27.9619 68.0102 28.2215 67.8558C28.4855 67.7013 28.7604 67.624 29.0464 67.624C29.6007 67.624 30.0098 67.805 30.2738 68.1669C30.5421 68.5289 30.6763 68.9924 30.6763 69.5573C30.6763 69.9414 30.5949 70.279 30.4321 70.5703C30.2737 70.8617 30.0626 71.0846 29.7986 71.2391C29.5391 71.3935 29.2663 71.4708 28.9804 71.4708C28.4261 71.4708 28.0147 71.2898 27.7463 70.9279C27.4824 70.5659 27.3504 70.1024 27.3504 69.5375ZM29.0134 71.1265C29.3521 71.1265 29.6139 70.9963 29.7987 70.7358C29.9835 70.4754 30.0758 70.0958 30.0758 69.597C30.0758 69.1203 29.99 68.7297 29.8185 68.4251C29.6469 68.1205 29.3807 67.9683 29.02 67.9683C28.6813 67.9683 28.4173 68.0985 28.2281 68.3589C28.0434 68.6193 27.951 68.9989 27.951 69.4977C27.951 69.9788 28.0368 70.3717 28.2083 70.6762C28.3843 70.9764 28.6526 71.1265 29.0134 71.1265Z" fill="white"/>
<path d="M36.6916 69.4249C36.6916 69.8045 36.6146 70.151 36.4606 70.4644C36.3067 70.7733 36.0867 71.0183 35.8007 71.1993C35.5192 71.3803 35.1958 71.4707 34.8307 71.4707C34.7075 71.4707 34.5777 71.4597 34.4413 71.4376C34.305 71.42 34.1928 71.3957 34.1048 71.3648L34.118 71.9276V72.6426L34.8505 72.7089V73.0002H33.082V72.7089L33.5901 72.6426V68.1603L33.0754 68.0478V67.7498L33.92 67.6439H33.9332L34.052 67.7498V68.1537C34.1928 68.008 34.3644 67.8844 34.5667 67.7829C34.7691 67.677 34.9957 67.624 35.2464 67.624C35.5016 67.624 35.7391 67.688 35.9591 67.816C36.1791 67.944 36.355 68.1427 36.487 68.4119C36.6234 68.6812 36.6916 69.0188 36.6916 69.4249ZM35.0287 68.0279C34.8395 68.0279 34.6635 68.0676 34.5007 68.147C34.338 68.2265 34.2104 68.3148 34.118 68.4119V70.9345C34.1532 70.9918 34.2412 71.0448 34.382 71.0934C34.5272 71.1375 34.6855 71.1596 34.8571 71.1596C35.2354 71.1596 35.539 71.0205 35.7677 70.7425C36.0009 70.46 36.1175 70.045 36.1175 69.4977C36.1175 69.0078 36.0141 68.6414 35.8073 68.3986C35.605 68.1515 35.3454 68.0279 35.0287 68.0279Z" fill="white"/>
<path d="M37.3266 70.4297C37.3266 70.0016 37.5377 69.6926 37.9601 69.5028C38.3824 69.3086 38.9081 69.2049 39.5372 69.1916V68.9864C39.5372 68.7613 39.513 68.5847 39.4646 68.4567C39.4206 68.3243 39.3414 68.2294 39.2271 68.172C39.1127 68.1102 38.9521 68.0793 38.7454 68.0793C38.3846 68.0793 37.9975 68.1963 37.5839 68.4302L37.4388 68.1389C37.4872 68.0947 37.5883 68.0329 37.7423 67.9535C37.9007 67.874 38.0811 67.8034 38.2834 67.7416C38.4858 67.6798 38.6794 67.6489 38.8641 67.6489C39.1633 67.6489 39.3986 67.6909 39.5702 67.7747C39.7462 67.8586 39.8716 67.9932 39.9464 68.1786C40.0256 68.364 40.0652 68.6134 40.0652 68.9267V71.1117H40.4743V71.3566C40.2323 71.4228 40.0278 71.456 39.8606 71.456C39.755 71.456 39.6824 71.4383 39.6428 71.403C39.6032 71.3721 39.5834 71.297 39.5834 71.1779V70.9329C39.4251 71.0741 39.2513 71.2 39.0621 71.3103C38.8773 71.4162 38.6662 71.4692 38.4286 71.4692C38.1119 71.4692 37.8479 71.3809 37.6368 71.2044C37.43 71.0278 37.3266 70.7696 37.3266 70.4297ZM38.6266 71.0786C38.7497 71.0786 38.8971 71.0389 39.0687 70.9594C39.2403 70.88 39.3964 70.7851 39.5372 70.6747V69.5028C39.0049 69.5072 38.6002 69.5867 38.323 69.7412C38.0502 69.8956 37.9139 70.1031 37.9139 70.3635C37.9139 70.6151 37.9777 70.7983 38.1052 70.9131C38.2328 71.0234 38.4066 71.0786 38.6266 71.0786Z" fill="white"/>
<path d="M40.9876 71.1203L41.5155 71.0806V68.1608L41.0074 68.0483V67.7503L41.8455 67.6444H41.8587L41.9841 67.7503V67.8563L41.9709 68.3594H41.9841C41.9929 68.3506 42.0501 68.2844 42.1556 68.1608C42.2656 68.0328 42.4262 67.9114 42.6374 67.7967C42.8529 67.6819 43.0685 67.6245 43.284 67.6245C43.3544 67.6245 43.4204 67.6333 43.482 67.651V68.2336C43.4644 68.2204 43.4248 68.2072 43.3632 68.1939C43.306 68.1807 43.2445 68.1741 43.1785 68.1741C42.9277 68.1741 42.7143 68.2116 42.5384 68.2866C42.3624 68.3617 42.1996 68.4544 42.05 68.5647V71.0741L42.9277 71.127V71.3985H40.9876L40.9876 71.1203Z" fill="white"/>
<path d="M43.963 70.4297C43.963 70.0016 44.1742 69.6926 44.5965 69.5028C45.0188 69.3086 45.5445 69.2049 46.1736 69.1916V68.9864C46.1736 68.7613 46.1495 68.5847 46.1011 68.4567C46.0571 68.3243 45.9779 68.2294 45.8635 68.172C45.7491 68.1102 45.5885 68.0793 45.3818 68.0793C45.021 68.0793 44.6339 68.1963 44.2204 68.4302L44.0752 68.1389C44.1236 68.0947 44.2248 68.0329 44.3787 67.9535C44.5371 67.874 44.7175 67.8034 44.9199 67.7416C45.1222 67.6798 45.3158 67.6489 45.5006 67.6489C45.7997 67.6489 46.0351 67.6909 46.2067 67.7747C46.3826 67.8586 46.508 67.9932 46.5828 68.1786C46.662 68.364 46.7016 68.6134 46.7016 68.9267V71.1117H47.1107V71.3566C46.8688 71.4228 46.6642 71.456 46.497 71.456C46.3914 71.456 46.3189 71.4383 46.2793 71.403C46.2397 71.3721 46.2199 71.297 46.2199 71.1779V70.9329C46.0615 71.0741 45.8877 71.2 45.6985 71.3103C45.5138 71.4162 45.3026 71.4692 45.0651 71.4692C44.7483 71.4692 44.4843 71.3809 44.2732 71.2044C44.0664 71.0278 43.963 70.7696 43.963 70.4297ZM45.263 71.0786C45.3862 71.0786 45.5336 71.0389 45.7051 70.9594C45.8767 70.88 46.0329 70.7851 46.1736 70.6747V69.5028C45.6413 69.5072 45.2366 69.5867 44.9594 69.7412C44.6867 69.8956 44.5503 70.1031 44.5503 70.3635C44.5503 70.6151 44.6141 70.7983 44.7417 70.9131C44.8692 71.0234 45.043 71.0786 45.263 71.0786Z" fill="white"/>
<path d="M52.5144 71.4562C52.4 71.4562 52.3164 71.4364 52.2636 71.3967C52.2108 71.3569 52.1844 71.2841 52.1844 71.1782V70.9199C52.0217 71.0656 51.8303 71.1936 51.6103 71.3039C51.3904 71.4143 51.1704 71.4695 50.9504 71.4695C50.5501 71.4695 50.2641 71.3569 50.0926 71.1318C49.9254 70.9067 49.8418 70.5404 49.8418 70.0328V68.0862L49.4525 67.9736V67.7286L50.2509 67.6426H50.2575L50.3763 67.722V69.9533C50.3763 70.2314 50.3961 70.4499 50.4357 70.6088C50.4753 70.7633 50.5479 70.878 50.6534 70.9531C50.759 71.0281 50.913 71.0656 51.1154 71.0656C51.3089 71.0656 51.4937 71.0237 51.6697 70.9398C51.8457 70.856 51.9974 70.7567 52.125 70.6419V68.0862L51.6235 67.9737V67.7287L52.5012 67.6426H52.5078L52.6595 67.7221V71.1054H53.0687L53.0621 71.357C53.0401 71.3614 52.9763 71.379 52.8707 71.4099C52.7651 71.4408 52.6464 71.4562 52.5144 71.4562Z" fill="white"/>
<path d="M53.6365 71.1122L54.0589 71.0592V68.1593L53.5507 68.0467V67.7488L54.3888 67.6429L54.534 67.7488V68.0401L54.5274 68.2057C54.6902 68.0644 54.9035 67.9342 55.1675 67.815C55.4315 67.6958 55.6712 67.6362 55.8868 67.6362C56.1244 67.6362 56.3135 67.676 56.4543 67.7554C56.5995 67.8349 56.7095 67.9585 56.7842 68.1262C56.9206 68.0114 57.1186 67.9011 57.3781 67.7951C57.6421 67.6892 57.8841 67.6362 58.104 67.6362C58.3812 67.6362 58.5946 67.6892 58.7441 67.7951C58.8981 67.9011 59.0059 68.0644 59.0675 68.2851C59.1291 68.5058 59.1599 68.8037 59.1599 69.1789V71.0593L59.6614 71.1123V71.3969H58.1832V71.1123L58.6319 71.0593V69.1988C58.6319 68.9207 58.6121 68.7 58.5726 68.5367C58.533 68.3734 58.456 68.2498 58.3416 68.166C58.2272 68.0821 58.06 68.0402 57.8401 68.0402C57.6773 68.0402 57.5057 68.0777 57.3254 68.1527C57.1494 68.2233 56.9976 68.305 56.87 68.3977C56.914 68.6007 56.936 68.8656 56.936 69.1922V71.0593L57.4375 71.1123V71.397H55.9264V71.1123L56.4015 71.0593V69.1856C56.4015 68.9031 56.3839 68.6824 56.3487 68.5235C56.3179 68.3646 56.2497 68.2454 56.1441 68.166C56.0385 68.0865 55.8824 68.0468 55.6756 68.0468C55.504 68.0468 55.3171 68.0909 55.1147 68.1792C54.9167 68.2631 54.7429 68.3646 54.5934 68.4837V71.0593L55.0619 71.1123V71.397H53.6365L53.6365 71.1122Z" fill="white"/>
<path d="M65.549 69.4249C65.549 69.8045 65.472 70.151 65.3181 70.4644C65.1641 70.7733 64.9441 71.0183 64.6582 71.1993C64.3766 71.3803 64.0533 71.4707 63.6881 71.4707C63.5649 71.4707 63.4351 71.4597 63.2988 71.4376C63.1624 71.42 63.0502 71.3957 62.9622 71.3648L62.9754 71.9276V72.6426L63.7079 72.7089V73.0002H61.9394V72.7089L62.4475 72.6426V68.1603L61.9328 68.0478V67.7498L62.7775 67.6439H62.7907L62.9094 67.7498V68.1537C63.0502 68.008 63.2218 67.8844 63.4242 67.7829C63.6265 67.677 63.8531 67.624 64.1039 67.624C64.359 67.624 64.5966 67.688 64.8165 67.816C65.0365 67.944 65.2125 68.1427 65.3444 68.4119C65.4808 68.6812 65.549 69.0188 65.549 69.4249ZM63.8861 68.0279C63.6969 68.0279 63.5209 68.0676 63.3582 68.147C63.1954 68.2265 63.0678 68.3148 62.9754 68.4119V70.9345C63.0106 70.9918 63.0986 71.0448 63.2394 71.0934C63.3846 71.1375 63.5429 71.1596 63.7145 71.1596C64.0929 71.1596 64.3964 71.0205 64.6252 70.7425C64.8583 70.46 64.9749 70.045 64.9749 69.4977C64.9749 69.0078 64.8715 68.6414 64.6648 68.3986C64.4624 68.1515 64.2028 68.0279 63.8861 68.0279Z" fill="white"/>
<path d="M66.6845 71.0585V66.3907L66.1236 66.3312V66.0862L67.087 65.9736H67.0936L67.219 66.0597V71.0652L67.8393 71.1115V71.3962H66.1038V71.1115L66.6845 71.0585Z" fill="white"/>
<path d="M68.3503 70.4297C68.3503 70.0016 68.5614 69.6926 68.9837 69.5028C69.4061 69.3086 69.9318 69.2049 70.5609 69.1916V68.9864C70.5609 68.7613 70.5367 68.5847 70.4883 68.4567C70.4443 68.3243 70.3651 68.2294 70.2508 68.172C70.1364 68.1102 69.9758 68.0793 69.769 68.0793C69.4083 68.0793 69.0212 68.1963 68.6076 68.4302L68.4625 68.1389C68.5108 68.0947 68.612 68.0329 68.766 67.9535C68.9244 67.874 69.1047 67.8034 69.3071 67.7416C69.5095 67.6798 69.703 67.6489 69.8878 67.6489C70.187 67.6489 70.4223 67.6909 70.5939 67.7747C70.7699 67.8586 70.8953 67.9932 70.9701 68.1786C71.0492 68.364 71.0888 68.6134 71.0888 68.9267V71.1117H71.498V71.3566C71.256 71.4228 71.0515 71.456 70.8843 71.456C70.7787 71.456 70.7061 71.4383 70.6665 71.403C70.6269 71.3721 70.6071 71.297 70.6071 71.1779V70.9329C70.4487 71.0741 70.275 71.2 70.0858 71.3103C69.901 71.4162 69.6898 71.4692 69.4523 71.4692C69.1355 71.4692 68.8716 71.3809 68.6604 71.2044C68.4537 71.0278 68.3503 70.7696 68.3503 70.4297ZM69.6502 71.0786C69.7734 71.0786 69.9208 71.0389 70.0924 70.9594C70.264 70.88 70.4201 70.7851 70.5609 70.6747V69.5028C70.0286 69.5072 69.6239 69.5867 69.3467 69.7412C69.0739 69.8956 68.9375 70.1031 68.9375 70.3635C68.9375 70.6151 69.0013 70.7983 69.1289 70.9131C69.2565 71.0234 69.4303 71.0786 69.6502 71.0786Z" fill="white"/>
<path d="M72.3996 68.1588L71.8915 68.0462V67.7483L72.7296 67.6424H72.7493L72.8747 67.7483V68.0396L72.8681 68.2052C73.0309 68.0639 73.2465 67.9337 73.5148 67.8145C73.7832 67.6953 74.0317 67.6357 74.2605 67.6357C74.5421 67.6357 74.7576 67.6909 74.9072 67.8013C75.0612 67.9072 75.1668 68.0727 75.2239 68.2978C75.2855 68.5185 75.3163 68.8165 75.3163 69.1917V71.0654L75.8112 71.1117V71.3964H74.3265V71.1117L74.7818 71.0654V69.185C74.7818 68.9069 74.762 68.6885 74.7224 68.5295C74.6872 68.3706 74.6147 68.2515 74.5047 68.172C74.3991 68.0881 74.2429 68.0462 74.0362 68.0462C73.8602 68.0462 73.6688 68.0903 73.462 68.1786C73.2597 68.2669 73.0837 68.3706 72.9341 68.4898V71.0587L73.4158 71.1117V71.3964H71.9575V71.1117L72.3996 71.0587V68.1588Z" fill="white"/>
<path d="M77.8899 71.4698C77.3796 71.4698 76.9858 71.2955 76.7086 70.9468C76.4359 70.5937 76.2995 70.1258 76.2995 69.5431C76.2995 69.1679 76.3721 68.8347 76.5173 68.5434C76.6625 68.2521 76.8626 68.0269 77.1178 67.868C77.3773 67.7047 77.6677 67.623 77.9888 67.623C78.3804 67.623 78.6839 67.7356 78.8995 67.9607C79.1194 68.1858 79.2382 68.5102 79.2558 68.934C79.2558 69.2077 79.2426 69.4019 79.2163 69.5166H76.867C76.867 69.9801 76.9704 70.3597 77.1772 70.6554C77.3884 70.9468 77.6831 71.0924 78.0615 71.0924C78.2462 71.0924 78.4354 71.0593 78.629 70.9931C78.8225 70.9269 78.9721 70.8474 79.0777 70.7548L79.1833 70.9997C79.0557 71.1321 78.8687 71.2447 78.6223 71.3374C78.3804 71.4257 78.1362 71.4698 77.8899 71.4698ZM78.662 69.2055C78.6752 69.1128 78.6818 69.0157 78.6818 68.9141C78.6774 68.6228 78.607 68.3911 78.4706 68.2189C78.3386 68.0468 78.134 67.9607 77.8569 67.9607C77.2542 67.9607 76.9264 68.3756 76.8736 69.2055L78.662 69.2055Z" fill="white"/>
<path d="M80.9858 71.4694C80.7526 71.4694 80.5767 71.4164 80.4579 71.3105C80.3391 71.2001 80.2797 71.0059 80.2797 70.7278V68.1125H79.7782V67.8543C79.9982 67.8058 80.1257 67.7705 80.1609 67.7484C80.2269 67.7131 80.2753 67.6447 80.3061 67.5432C80.3325 67.4769 80.3677 67.3578 80.4117 67.1856C80.4557 67.0135 80.4887 66.8788 80.5107 66.7817H80.8142V67.7219H81.9822V68.1126H80.8142V70.2578C80.8142 70.5138 80.823 70.6947 80.8406 70.8007C80.8582 70.9022 80.8934 70.9684 80.9462 70.9993C80.999 71.0302 81.0914 71.0457 81.2234 71.0457C81.3509 71.0457 81.4939 71.028 81.6523 70.9927C81.8107 70.9574 81.9295 70.9199 82.0087 70.8801L82.0944 71.1317C81.9933 71.2112 81.8261 71.2884 81.5929 71.3635C81.3598 71.4341 81.1574 71.4694 80.9858 71.4694Z" fill="white"/>
<path d="M82.5656 70.4297C82.5656 70.0016 82.7768 69.6926 83.1991 69.5028C83.6214 69.3086 84.1471 69.2049 84.7763 69.1916V68.9864C84.7763 68.7613 84.7521 68.5847 84.7037 68.4567C84.6597 68.3243 84.5805 68.2294 84.4661 68.172C84.3517 68.1102 84.1912 68.0793 83.9844 68.0793C83.6236 68.0793 83.2365 68.1963 82.823 68.4302L82.6778 68.1389C82.7262 68.0947 82.8274 68.0329 82.9814 67.9535C83.1397 67.874 83.3201 67.8034 83.5225 67.7416C83.7248 67.6798 83.9184 67.6489 84.1032 67.6489C84.4023 67.6489 84.6377 67.6909 84.8093 67.7747C84.9852 67.8586 85.1106 67.9932 85.1854 68.1786C85.2646 68.364 85.3042 68.6134 85.3042 68.9267V71.1117H85.7133V71.3566C85.4714 71.4228 85.2668 71.456 85.0996 71.456C84.9941 71.456 84.9215 71.4383 84.8819 71.403C84.8423 71.3721 84.8225 71.297 84.8225 71.1779V70.9329C84.6641 71.0741 84.4903 71.2 84.3012 71.3103C84.1164 71.4162 83.9052 71.4692 83.6677 71.4692C83.3509 71.4692 83.087 71.3809 82.8758 71.2044C82.669 71.0278 82.5656 70.7696 82.5656 70.4297ZM83.8656 71.0786C83.9888 71.0786 84.1362 71.0389 84.3078 70.9594C84.4793 70.88 84.6355 70.7851 84.7763 70.6747V69.5028C84.244 69.5072 83.8392 69.5867 83.5621 69.7412C83.2893 69.8956 83.1529 70.1031 83.1529 70.3635C83.1529 70.6151 83.2167 70.7983 83.3443 70.9131C83.4719 71.0234 83.6456 71.0786 83.8656 71.0786Z" fill="white"/>
<path d="M88.0855 71.1122L88.5079 71.0592V68.1593L87.9998 68.0467V67.7488L88.8378 67.6429L88.983 67.7488V68.0401L88.9764 68.2057C89.1392 68.0644 89.3526 67.9342 89.6165 67.815C89.8805 67.6958 90.1202 67.6362 90.3358 67.6362C90.5734 67.6362 90.7626 67.676 90.9033 67.7554C91.0485 67.8349 91.1585 67.9585 91.2333 68.1262C91.3696 68.0114 91.5676 67.9011 91.8272 67.7951C92.0911 67.6892 92.3331 67.6362 92.5531 67.6362C92.8302 67.6362 93.0436 67.6892 93.1932 67.7951C93.3471 67.9011 93.4549 68.0644 93.5165 68.2851C93.5781 68.5058 93.6089 68.8037 93.6089 69.1789V71.0593L94.1104 71.1123V71.3969H92.6322V71.1123L93.081 71.0593V69.1988C93.081 68.9207 93.0612 68.7 93.0216 68.5367C92.982 68.3734 92.905 68.2498 92.7906 68.166C92.6762 68.0821 92.5091 68.0402 92.2891 68.0402C92.1263 68.0402 91.9548 68.0777 91.7744 68.1527C91.5984 68.2233 91.4466 68.305 91.319 68.3977C91.363 68.6007 91.385 68.8656 91.385 69.1922V71.0593L91.8866 71.1123V71.397H90.3754V71.1123L90.8505 71.0593V69.1856C90.8505 68.9031 90.8329 68.6824 90.7977 68.5235C90.7669 68.3646 90.6987 68.2454 90.5931 68.166C90.4876 68.0865 90.3314 68.0468 90.1246 68.0468C89.953 68.0468 89.7661 68.0909 89.5637 68.1792C89.3658 68.2631 89.192 68.3646 89.0424 68.4837V71.0593L89.5109 71.1123V71.397H88.0834L88.0855 71.1122Z" fill="white"/>
<path d="M94.6283 70.4297C94.6283 70.0016 94.8394 69.6926 95.2618 69.5028C95.6841 69.3086 96.2098 69.2049 96.8389 69.1916V68.9864C96.8389 68.7613 96.8147 68.5847 96.7663 68.4567C96.7223 68.3243 96.6432 68.2294 96.5288 68.172C96.4144 68.1102 96.2538 68.0793 96.0471 68.0793C95.6863 68.0793 95.2992 68.1963 94.8857 68.4302L94.7405 68.1389C94.7889 68.0947 94.89 68.0329 95.044 67.9535C95.2024 67.874 95.3828 67.8034 95.5851 67.7416C95.7875 67.6798 95.9811 67.6489 96.1658 67.6489C96.465 67.6489 96.7004 67.6909 96.8719 67.7747C97.0479 67.8586 97.1733 67.9932 97.2481 68.1786C97.3273 68.364 97.3669 68.6134 97.3669 68.9267V71.1117H97.776V71.3566C97.534 71.4228 97.3295 71.456 97.1623 71.456C97.0567 71.456 96.9841 71.4383 96.9445 71.403C96.9049 71.3721 96.8851 71.297 96.8851 71.1779V70.9329C96.7268 71.0741 96.553 71.2 96.3638 71.3103C96.179 71.4162 95.9679 71.4692 95.7303 71.4692C95.4136 71.4692 95.1496 71.3809 94.9384 71.2044C94.7317 71.0278 94.6283 70.7696 94.6283 70.4297ZM95.9283 71.0786C96.0515 71.0786 96.1988 71.0389 96.3704 70.9594C96.542 70.88 96.6982 70.7851 96.8389 70.6747V69.5028C96.3066 69.5072 95.9019 69.5867 95.6247 69.7412C95.3519 69.8956 95.2156 70.1031 95.2156 70.3635C95.2156 70.6151 95.2793 70.7983 95.4069 70.9131C95.5345 71.0234 95.7083 71.0786 95.9283 71.0786Z" fill="white"/>
<path d="M99.0338 66.9608C98.9326 66.9608 98.8512 66.9255 98.7897 66.8549C98.7325 66.7799 98.7039 66.6894 98.7039 66.5835C98.7039 66.4643 98.7369 66.3628 98.8029 66.2789C98.8732 66.1906 98.97 66.1465 99.0932 66.1465C99.1988 66.1465 99.2824 66.184 99.344 66.259C99.4056 66.3341 99.4364 66.4224 99.4364 66.5239C99.4364 66.6519 99.4012 66.7578 99.3308 66.8417C99.2648 66.9211 99.168 66.9609 99.0404 66.9609L99.0338 66.9608ZM98.8227 71.0592V68.1593L98.3079 68.0467V67.7488L99.212 67.6428H99.2252L99.3572 67.7488V71.066L99.9313 71.1123V71.397H98.242V71.1123L98.8227 71.0592Z" fill="white"/>
<path d="M100.943 70.8731C100.992 70.9482 101.093 71.0144 101.247 71.0718C101.401 71.1292 101.566 71.1578 101.742 71.1578C102.278 71.1578 102.547 70.9592 102.547 70.5619C102.547 70.381 102.472 70.2353 102.322 70.125C102.173 70.0102 101.918 69.8844 101.557 69.7476C101.201 69.6196 100.941 69.4673 100.778 69.2907C100.616 69.1142 100.534 68.878 100.534 68.5823C100.534 68.3925 100.591 68.227 100.706 68.0857C100.825 67.9445 100.981 67.8363 101.174 67.7613C101.372 67.6818 101.586 67.6421 101.814 67.6421C102.039 67.6421 102.226 67.6619 102.375 67.7017C102.529 67.7414 102.681 67.79 102.831 67.8473V68.6352H102.507L102.388 68.1519C102.358 68.0945 102.278 68.046 102.151 68.0063C102.028 67.9665 101.891 67.9467 101.742 67.9467C101.531 67.9467 101.359 67.9952 101.227 68.0923C101.095 68.185 101.029 68.3108 101.029 68.4697C101.029 68.611 101.062 68.7279 101.128 68.8206C101.194 68.9133 101.275 68.9884 101.372 69.0457C101.469 69.0987 101.603 69.1605 101.775 69.2311L101.9 69.2841C102.151 69.3812 102.353 69.4739 102.507 69.5622C102.661 69.646 102.789 69.7586 102.89 69.8998C102.991 70.0367 103.042 70.2088 103.042 70.4163C103.042 70.7429 102.916 71.0011 102.666 71.1909C102.419 71.3763 102.089 71.469 101.676 71.469C101.487 71.469 101.271 71.4381 101.029 71.3763C100.787 71.3145 100.607 71.2527 100.488 71.1909V70.3567H100.844L100.943 70.8731Z" fill="white"/>
<path d="M106.112 71.0585V66.3907L105.551 66.3312V66.0862L106.515 65.9736H106.521L106.647 66.0597V71.0652L107.267 71.1115V71.3962H105.531V71.1115L106.112 71.0585Z" fill="white"/>
<path d="M108.509 66.9608C108.408 66.9608 108.327 66.9255 108.265 66.8549C108.208 66.7799 108.179 66.6894 108.179 66.5835C108.179 66.4643 108.212 66.3628 108.278 66.2789C108.349 66.1906 108.445 66.1465 108.569 66.1465C108.674 66.1465 108.758 66.184 108.819 66.259C108.881 66.3341 108.912 66.4224 108.912 66.5239C108.912 66.6519 108.876 66.7578 108.806 66.8417C108.74 66.9211 108.643 66.9609 108.516 66.9609L108.509 66.9608ZM108.298 71.0592V68.1593L107.783 68.0467V67.7488L108.687 67.6428H108.701L108.832 67.7488V71.066L109.407 71.1123V71.397H107.717V71.1123L108.298 71.0592Z" fill="white"/>
<path d="M109.87 71.1122L110.292 71.0592V68.1593L109.784 68.0467V67.7488L110.622 67.6429L110.767 67.7488V68.0401L110.761 68.2057C110.923 68.0644 111.137 67.9342 111.401 67.815C111.665 67.6958 111.904 67.6362 112.12 67.6362C112.357 67.6362 112.547 67.676 112.687 67.7554C112.833 67.8349 112.943 67.9585 113.017 68.1262C113.154 68.0114 113.352 67.9011 113.611 67.7951C113.875 67.6892 114.117 67.6362 114.337 67.6362C114.614 67.6362 114.828 67.6892 114.977 67.7951C115.131 67.9011 115.239 68.0644 115.301 68.2851C115.362 68.5058 115.393 68.8037 115.393 69.1789V71.0593L115.895 71.1123V71.3969H114.416V71.1123L114.865 71.0593V69.1988C114.865 68.9207 114.845 68.7 114.806 68.5367C114.766 68.3734 114.689 68.2498 114.575 68.166C114.46 68.0821 114.293 68.0402 114.073 68.0402C113.91 68.0402 113.739 68.0777 113.558 68.1527C113.383 68.2233 113.231 68.305 113.103 68.3977C113.147 68.6007 113.169 68.8656 113.169 69.1922V71.0593L113.671 71.1123V71.397H112.159V71.1123L112.635 71.0593V69.1856C112.635 68.9031 112.617 68.6824 112.582 68.5235C112.551 68.3646 112.483 68.2454 112.377 68.166C112.272 68.0865 112.115 68.0468 111.909 68.0468C111.737 68.0468 111.55 68.0909 111.348 68.1792C111.15 68.2631 110.976 68.3646 110.826 68.4837V71.0593L111.295 71.1123V71.397H109.87L109.87 71.1122Z" fill="white"/>
<path d="M119.888 69.4249C119.888 69.8045 119.811 70.151 119.657 70.4644C119.503 70.7733 119.283 71.0183 118.998 71.1993C118.716 71.3803 118.393 71.4707 118.027 71.4707C117.904 71.4707 117.775 71.4597 117.638 71.4376C117.502 71.42 117.39 71.3957 117.302 71.3648L117.315 71.9276V72.6426L118.047 72.7089V73.0002H116.279V72.7089L116.787 72.6426V68.1603L116.272 68.0478V67.7498L117.117 67.6439H117.13L117.249 67.7498V68.1537C117.39 68.008 117.561 67.8844 117.764 67.7829C117.966 67.677 118.192 67.624 118.443 67.624C118.698 67.624 118.936 67.688 119.156 67.816C119.376 67.944 119.552 68.1427 119.684 68.4119C119.82 68.6812 119.888 69.0188 119.888 69.4249ZM118.225 68.0279C118.036 68.0279 117.86 68.0676 117.698 68.147C117.535 68.2265 117.407 68.3148 117.315 68.4119V70.9345C117.35 70.9918 117.438 71.0448 117.579 71.0934C117.724 71.1375 117.882 71.1596 118.054 71.1596C118.432 71.1596 118.736 71.0205 118.965 70.7425C119.198 70.46 119.314 70.045 119.314 69.4977C119.314 69.0078 119.211 68.6414 119.004 68.3986C118.802 68.1515 118.542 68.0279 118.225 68.0279Z" fill="white"/>
<path d="M120.483 69.5375C120.483 69.1534 120.562 68.8158 120.721 68.5245C120.883 68.2331 121.095 68.0102 121.354 67.8558C121.618 67.7013 121.893 67.624 122.179 67.624C122.733 67.624 123.142 67.805 123.406 68.1669C123.675 68.5289 123.809 68.9924 123.809 69.5573C123.809 69.9414 123.728 70.279 123.565 70.5703C123.406 70.8617 123.195 71.0846 122.931 71.2391C122.672 71.3935 122.399 71.4708 122.113 71.4708C121.559 71.4708 121.147 71.2898 120.879 70.9279C120.615 70.5659 120.483 70.1024 120.483 69.5375ZM122.146 71.1265C122.485 71.1265 122.747 70.9963 122.931 70.7358C123.116 70.4754 123.208 70.0958 123.208 69.597C123.208 69.1203 123.123 68.7297 122.951 68.4251C122.78 68.1205 122.513 67.9683 122.153 67.9683C121.814 67.9683 121.55 68.0985 121.361 68.3589C121.176 68.6193 121.084 68.9989 121.084 69.4977C121.084 69.9788 121.169 70.3717 121.341 70.6762C121.517 70.9764 121.785 71.1265 122.146 71.1265Z" fill="white"/>
<path d="M14.806 48.831C14.806 48.8899 14.7393 49.0986 14.6059 49.4573C14.4725 49.8159 14.3872 50.0301 14.3498 50.0997C13.907 50.8277 13.072 51.4594 11.8449 51.9947C10.8312 52.4176 9.30257 53.0546 7.25909 53.9058C6.57616 54.0878 5.92525 54.2858 5.30634 54.4999C4.79948 54.6659 4.06319 55.0567 3.09748 55.6723C3.01745 56.2665 2.95076 56.9115 2.89741 57.6075C2.82805 58.5389 2.73735 59.5079 2.62531 60.5144C2.45991 60.7392 2.25183 60.8516 2.00106 60.8516C2.0224 60.8516 2.03307 60.8489 2.03307 60.8436C1.99573 60.8222 1.86501 60.7874 1.64091 60.7392V60.1932C1.64091 59.6793 1.6836 59.1573 1.76896 58.6274C1.76896 58.6166 1.81698 58.4801 1.91302 58.2178C2.00906 57.9662 2.05707 57.8137 2.05707 57.7602C2.05707 57.455 2.00105 57.1445 1.88901 56.8287C1.81431 57.0428 1.67827 57.182 1.48086 57.2463C1.24611 57.1071 1.12873 56.8662 1.12873 56.5236C1.12873 56.4861 1.32614 56.1971 1.72095 55.6564C2.12644 55.0943 2.3612 54.7089 2.42523 54.5001C2.47858 54.3449 2.57195 53.8444 2.70533 52.9986C2.90275 51.7459 3.07615 50.8305 3.22554 50.2524C3.54567 48.9944 3.92449 48.1941 4.36199 47.8515L4.81815 48.1967V48.55C4.53537 48.7695 4.3353 49.1683 4.21793 49.7465C4.18058 49.9231 4.09521 50.3781 3.96183 51.1115C3.93515 51.2454 3.82578 51.5933 3.6337 52.1554C3.46297 52.6479 3.3776 52.9477 3.3776 53.0547V54.0825C3.42562 54.1307 3.47097 54.1548 3.51366 54.1548C3.74309 54.1548 4.10056 54.0584 4.58607 53.8657C5.16762 53.6463 5.5331 53.5151 5.6825 53.4723C8.15283 52.8299 10.0575 52.0992 11.3966 51.2802C12.5704 50.5682 13.2827 50.0837 13.5334 49.8268C13.8322 49.5323 13.9816 49.1335 13.9816 48.6303C13.9816 47.7471 13.5841 47.0083 12.7891 46.4141C12.0582 45.8628 11.2392 45.5871 10.3322 45.5871C9.61726 45.5871 8.7716 45.6754 7.79524 45.852C6.53608 46.0822 5.3543 46.4034 4.2499 46.8156C2.5746 47.4366 1.65421 48.1084 1.48873 48.8311L1.28065 48.9836C0.965864 48.7106 0.808472 48.4537 0.808472 48.2128C0.808472 47.8702 1.16327 47.4526 1.87287 46.9601C2.45443 46.5533 2.97196 46.283 3.42548 46.1491C6.44 45.2177 8.69152 44.752 10.18 44.752C11.5886 44.752 12.7117 45.1213 13.5494 45.86C14.3871 46.5934 14.806 47.5836 14.806 48.831Z" fill="white"/>
<path d="M22.2486 56.7876C22.2486 57.3604 22.1286 57.8502 21.8885 58.257C21.6697 58.6264 20.8934 58.9904 19.5596 59.3491C18.3698 59.6703 17.4655 59.8309 16.8466 59.8309C16.121 59.8309 15.4034 59.6569 14.6938 59.3089C13.8348 58.8807 13.4053 58.348 13.4053 57.711C13.4053 57.4273 13.568 57.1382 13.8935 56.8438C14.1816 56.635 14.6164 56.2416 15.198 55.6634C15.5821 55.1923 16.2864 54.8123 17.3108 54.5232C18.1751 54.2769 18.9834 54.1538 19.7357 54.1538C19.9385 54.1538 20.2426 54.2421 20.6481 54.4188C21.0535 54.6061 21.331 54.7774 21.4804 54.9327C21.6298 55.0986 21.7952 55.3984 21.9766 55.832C22.158 56.2603 22.2486 56.5788 22.2486 56.7876ZM21.4323 56.7233C21.4323 56.3272 21.1949 55.9498 20.72 55.5911C20.2825 55.2539 19.8504 55.0853 19.4235 55.0853C19.3435 55.0853 18.7219 55.2004 17.5588 55.4306C17.1106 55.5216 16.7025 55.6955 16.3343 55.9525C15.0752 56.8518 14.4456 57.4728 14.4456 57.8154C14.4456 58.1045 14.7897 58.3668 15.478 58.6023C16.0649 58.8057 16.5424 58.9074 16.9105 58.9074C17.4601 58.9074 18.231 58.795 19.2234 58.5702C20.1304 58.3668 20.776 58.059 21.1602 57.6468C21.3416 57.4594 21.4323 57.1516 21.4323 56.7233Z" fill="white"/>
<path d="M25.4892 45.9878L25.033 56.1375C25.0064 56.1589 24.993 56.2231 24.993 56.3302C24.993 56.4372 25.0064 56.5845 25.033 56.7718C25.0917 57.275 25.2304 58.2279 25.4492 59.6303C25.4385 59.6785 25.3478 59.732 25.1771 59.7909C25.1451 59.7963 25.1157 59.799 25.0891 59.799C24.5288 59.799 24.166 59.1512 24.0006 57.8558C23.9953 57.829 23.9926 57.7755 23.9926 57.6952C23.9926 57.4436 24.006 56.927 24.0326 56.1454C24.07 55.139 24.1153 54.0871 24.1687 52.9897C24.1847 52.5722 24.2461 51.796 24.3528 50.6611C24.4541 49.6226 24.5048 48.8517 24.5048 48.3486C24.5048 46.8122 24.6062 45.7389 24.8089 45.1286L24.929 45.1206C24.945 45.1206 24.9583 45.1206 24.969 45.1206C25.1504 45.1206 25.2731 45.2223 25.3371 45.4257C25.3852 45.5596 25.4358 45.7469 25.4892 45.9878Z" fill="white"/>
<path d="M35.7893 56.7876C35.7893 57.3604 35.6693 57.8502 35.4292 58.257C35.2104 58.6264 34.4341 58.9904 33.1003 59.3491C31.9105 59.6703 31.0062 59.8309 30.3873 59.8309C29.6617 59.8309 28.9441 59.6569 28.2345 59.3089C27.3755 58.8807 26.946 58.348 26.946 57.711C26.946 57.4273 27.1087 57.1382 27.4342 56.8438C27.7223 56.635 28.1571 56.2416 28.7387 55.6634C29.1228 55.1923 29.8271 54.8123 30.8515 54.5232C31.7158 54.2769 32.5241 54.1538 33.2764 54.1538C33.4792 54.1538 33.7833 54.2421 34.1888 54.4188C34.5942 54.6061 34.8717 54.7774 35.0211 54.9327C35.1705 55.0986 35.3359 55.3984 35.5173 55.832C35.6987 56.2603 35.7893 56.5788 35.7893 56.7876ZM34.973 56.7233C34.973 56.3272 34.7356 55.9498 34.2607 55.5911C33.8232 55.2539 33.3911 55.0853 32.9642 55.0853C32.8842 55.0853 32.2626 55.2004 31.0995 55.4306C30.6513 55.5216 30.2432 55.6955 29.875 55.9525C28.6159 56.8518 27.9863 57.4728 27.9863 57.8154C27.9863 58.1045 28.3305 58.3668 29.0187 58.6023C29.6056 58.8057 30.0831 58.9074 30.4513 58.9074C31.0008 58.9074 31.7718 58.795 32.7641 58.5702C33.6712 58.3668 34.3167 58.059 34.7009 57.6468C34.8823 57.4594 34.973 57.1516 34.973 56.7233Z" fill="white"/>
<path d="M57.1502 56.2419C57.1502 56.9486 56.3233 57.7141 54.6693 58.5384C54.4879 58.6348 54.1438 58.8195 53.6369 59.0925C53.4768 59.2103 53.1434 59.3548 52.6365 59.5261C52.4924 59.5689 52.1376 59.6867 51.5721 59.8794L49.1072 61.0598C48.3282 61.3274 47.4932 61.6326 46.6022 61.9752C45.6258 62.3445 44.9482 62.8718 44.5694 63.557C44.18 63.3857 43.9852 63.1823 43.9852 62.9468C43.9852 62.0528 45.0469 61.2418 47.1703 60.5137C47.3731 60.4442 47.7572 60.3077 48.3228 60.1042C48.6215 59.9115 49.4299 59.5609 50.7477 59.0524C52.2576 58.4742 53.1726 58.1102 53.4928 57.9603C54.5172 57.4732 55.3522 56.9378 55.9978 56.3543C56.0298 56.2847 56.0751 56.167 56.1338 56.001C55.755 55.7441 55.3869 55.5594 55.0294 55.447C54.96 55.4256 54.5545 55.3774 53.8129 55.3025C51.8709 55.099 50.5825 54.9973 49.9476 54.9973C49.9209 54.9973 49.8355 55.0161 49.6915 55.0536C49.5474 55.0857 49.462 55.1017 49.4354 55.1017C48.5764 55.1017 47.7921 54.9572 47.0824 54.6681V54.3389C47.0824 54.2265 47.1278 54.1221 47.2185 54.0257C52.5325 51.21 55.1895 49.0929 55.1895 47.6743C55.1895 47.1604 54.864 46.775 54.2131 46.518C53.7382 46.3307 53.1914 46.237 52.5725 46.237C52.4764 46.237 52.151 46.3039 51.5961 46.4377C51.0412 46.5716 50.7158 46.6385 50.6197 46.6385C50.5824 46.6385 50.529 46.6224 50.4597 46.5903C50.3956 46.5528 50.3476 46.5341 50.3156 46.5341C50.2089 46.5341 50.1422 46.5555 50.1155 46.5983C50.0782 46.6572 50.0488 46.6947 50.0275 46.7107C49.9741 46.7429 49.5793 46.8526 48.843 47.04C47.2691 47.4307 46.202 48.0142 45.6418 48.7904C45.4978 48.9992 45.4258 49.5559 45.4258 50.4606C45.4258 50.5623 45.4471 50.929 45.4898 51.5607C45.5325 52.1923 45.5538 52.5617 45.5538 52.6688C45.5538 54.0981 45.7272 55.7843 46.074 57.7275C46.09 57.8131 46.1621 58.054 46.2901 58.4501C46.3968 58.782 46.4502 58.9881 46.4502 59.0684C46.4502 59.1916 46.3861 59.32 46.2581 59.4539C46.13 59.5823 46.0047 59.6466 45.8819 59.6466C45.6152 59.6466 45.4524 59.4298 45.3938 58.9962C45.3724 58.8677 45.3377 58.5572 45.2897 58.0647C45.1563 57.4331 45.0443 56.8228 44.9536 56.2339L44.9216 56.0653C44.8309 55.4765 44.7482 53.3218 44.6735 49.6013C44.6628 49.5424 44.6228 49.4487 44.5534 49.3202C44.5108 49.3898 44.4067 49.4246 44.2413 49.4246C43.9372 49.4246 43.7852 49.2721 43.7852 48.9669C43.7852 48.6243 44.236 48.2362 45.1377 47.8026C45.5432 47.6099 46.853 47.0773 49.0671 46.2047C49.3818 46.0334 49.758 45.8835 50.1955 45.7551C51.2359 45.4499 52.0656 45.2974 52.6845 45.2974C53.5114 45.2974 54.2504 45.458 54.9013 45.7792C55.7176 46.1914 56.1258 46.7722 56.1258 47.5216C56.1258 48.4156 55.5095 49.4166 54.2771 50.5247C53.6048 51.1242 52.6018 51.8603 51.2679 52.7329C50.6757 53.1236 50.0301 53.584 49.3312 54.114C49.4112 54.1782 49.822 54.2103 50.5637 54.2103C54.9547 54.2103 57.1502 54.8876 57.1502 56.2419Z" fill="white"/>
<path d="M64.799 55.5596L64.5429 55.7925C63.9827 55.6158 63.5479 55.5275 63.2384 55.5275C63.2171 55.5275 63.1957 55.5275 63.1744 55.5275C62.7742 55.5489 62.4808 55.5596 62.2941 55.5596H61.6538C61.6431 55.5596 61.4564 55.6185 61.0936 55.7363C60.8642 55.7523 60.5254 55.8112 60.0772 55.9129C59.3623 56.2288 58.9355 56.7855 58.7967 57.5831C58.7381 57.899 58.7087 58.1773 58.7087 58.4182C58.7087 58.4825 58.7114 58.5467 58.7167 58.6109C58.7594 59.2051 58.7807 59.5558 58.7807 59.6628C58.658 59.6949 58.4606 59.727 58.1885 59.7592C58.0391 59.4701 57.9644 59.2693 57.9644 59.1569C57.9644 59.0981 57.9778 58.9455 58.0044 58.6992C58.0205 58.453 58.0285 58.2871 58.0285 58.2014C58.0285 57.7517 58.2259 56.9782 58.6207 55.8808C58.7541 55.6025 58.9462 55.375 59.1969 55.1983C59.7411 54.8236 60.7469 54.6362 62.2141 54.6362C63.6867 54.6416 64.5484 54.837 64.7991 55.2224L64.799 55.5596Z" fill="white"/>
<path d="M73.3155 59.6948C73.2035 59.85 73.0808 59.9276 72.9474 59.9276C72.862 59.9276 72.5739 59.6707 72.0831 59.1568C71.5922 58.6375 71.2641 58.3779 71.0987 58.3779C71.0987 58.3886 70.5172 58.6134 69.354 59.0524C68.1642 59.4967 67.4066 59.7189 67.0812 59.7189C66.8144 59.7189 66.5183 59.5877 66.1928 59.3254C65.8674 59.0631 65.7046 58.8168 65.7046 58.5867C65.7046 57.9925 66.3529 57.2992 67.6494 56.507C68.8658 55.7575 69.7942 55.3828 70.4344 55.3828C70.7011 55.3828 70.9412 55.5354 71.1546 55.8405V56.1858C71.0479 56.341 70.9252 56.4187 70.7865 56.4187C70.7598 56.4187 70.6664 56.3839 70.5064 56.3143C70.3517 56.2447 70.2583 56.2099 70.2263 56.2099C70.0129 56.2099 69.5247 56.4294 68.7617 56.8683C68.0361 57.2805 67.5506 57.5883 67.3051 57.7917C67.0597 58.0059 66.9023 58.2494 66.833 58.5224C67.0197 58.6991 67.2411 58.7874 67.4972 58.7874C67.6306 58.7874 68.2735 58.5653 69.426 58.1209C70.5731 57.6713 71.2667 57.4464 71.5068 57.4464C71.8589 57.4464 72.1123 57.5348 72.2671 57.7114C72.3044 57.7542 72.4405 57.9951 72.6752 58.4341C72.8513 58.766 73.0647 59.0657 73.3154 59.3334L73.3155 59.6948Z" fill="white"/>
<path d="M79.4137 57.7843C79.4137 58.2394 79.267 58.5418 78.9735 58.6917C78.7548 58.7934 78.2212 58.9754 77.3729 59.2377C76.4926 59.5107 75.9537 59.6472 75.7563 59.6472C75.7243 59.6472 75.6816 59.6312 75.6283 59.5991C75.5749 59.5616 75.5349 59.5429 75.5082 59.5429C75.3908 59.5429 75.1641 59.7142 74.828 60.0568C74.5932 59.8801 74.4758 59.7436 74.4758 59.6472C74.4758 59.0477 75.3749 58.5659 77.173 58.2019C77.285 58.1751 77.4931 58.135 77.7973 58.0814C77.8826 58.0226 78.0133 57.9048 78.1894 57.7282C78.0187 57.4444 77.7546 57.233 77.3971 57.0938C77.0396 56.9707 76.394 56.7271 75.4604 56.3631C74.532 56.0045 74.0678 55.6003 74.0678 55.1506C74.0678 54.5671 74.6494 54.2754 75.8125 54.2754C76.2553 54.2754 76.8235 54.3262 77.5171 54.428C78.3281 54.5457 78.8563 54.6796 79.1017 54.8294L78.9737 55.0382L76.0044 55.1908C75.9884 55.2122 75.9244 55.2657 75.8123 55.3514L77.9491 56.3069C78.9255 56.7405 79.4137 57.233 79.4137 57.7843Z" fill="white"/>
<path d="M82.7346 51.9294L82.7426 51.9615C82.7426 52.1703 82.5239 52.4246 82.0863 52.7244C81.9583 52.6869 81.6969 52.4674 81.302 52.0659C81.4621 51.6805 81.6355 51.4878 81.8222 51.4878C81.9983 51.4878 82.3024 51.635 82.7346 51.9294ZM81.9823 58.064C81.9183 58.9312 81.8863 59.4344 81.8863 59.5736C81.6302 59.7182 81.4007 59.7904 81.198 59.7904C81.1126 59.5442 81.0699 59.2391 81.0699 58.875C81.0699 56.8515 81.3207 55.7782 81.8222 55.6551C81.9983 55.7354 82.0944 55.8719 82.1104 56.0646C82.105 55.995 82.097 55.9576 82.0863 55.9522C82.0917 56.0111 82.0943 56.0834 82.0943 56.169C82.0943 56.5491 82.057 57.1808 81.9823 58.064Z" fill="white"/>
<path d="M85.8975 45.9878L85.4413 56.1375C85.4146 56.1589 85.4013 56.2231 85.4013 56.3302C85.4013 56.4372 85.4146 56.5845 85.4413 56.7718C85.5 57.275 85.6387 58.2279 85.8574 59.6303C85.8468 59.6785 85.7561 59.732 85.5854 59.7909C85.5533 59.7963 85.524 59.799 85.4973 59.799C84.9371 59.799 84.5743 59.1512 84.4089 57.8558C84.4035 57.829 84.4009 57.7755 84.4009 57.6952C84.4009 57.4436 84.4142 56.927 84.4409 56.1454C84.4783 55.139 84.5236 54.0871 84.577 52.9897C84.593 52.5722 84.6543 51.796 84.761 50.6611C84.8624 49.6226 84.9131 48.8517 84.9131 48.3486C84.9131 46.8122 85.0145 45.7389 85.2172 45.1286L85.3373 45.1206C85.3533 45.1206 85.3666 45.1206 85.3773 45.1206C85.5587 45.1206 85.6814 45.2223 85.7454 45.4257C85.7934 45.5596 85.8441 45.7469 85.8975 45.9878Z" fill="white"/>
<path d="M112.54 59.2433C111.793 59.2433 110.496 59.2059 108.65 59.1309L106.738 59.0506L97.27 59.8938C97.0726 59.9098 96.9152 59.9179 96.7978 59.9179C96.1523 59.9179 95.5467 59.7921 94.9811 59.5405C94.4849 59.3263 94.2368 59.1149 94.2368 58.9061C94.2368 58.3173 95.1012 57.2841 96.8298 55.8066C96.9045 55.7423 98.5025 54.4737 101.624 52.0006C103.347 50.6355 104.209 49.7897 104.209 49.4632C104.209 49.0885 103.587 48.9011 102.344 48.9011C101.853 48.9011 101.464 48.9145 101.176 48.9413C100.999 48.9948 100.725 49.0564 100.351 49.1259C99.8337 49.1474 99.1508 49.2036 98.3025 49.2946C98.2278 49.3053 97.9663 49.3775 97.5182 49.5114C97.1767 49.6131 96.9206 49.6639 96.7499 49.6639C96.5685 49.6639 96.4164 49.5836 96.2937 49.423C96.4057 49.1768 96.6538 48.9627 97.038 48.7807C97.1447 48.7539 97.3634 48.7057 97.6942 48.6361C99.6416 48.2293 101.093 48.0259 102.048 48.0259H102.104C104.19 48.0259 105.233 48.3845 105.233 49.1019C105.233 49.4605 104.998 49.9209 104.529 50.483C103.744 51.4198 102.717 52.4074 101.448 53.446C99.8469 54.7522 98.7399 55.6489 98.1263 56.136C97.8809 56.3234 97.4407 56.658 96.8058 57.1398C96.2776 57.5466 95.8988 57.9347 95.6694 58.3041V58.5771C96.0749 58.834 96.6084 58.9625 97.27 58.9625C97.3554 58.9625 97.8089 58.9224 98.6305 58.8421L101.28 58.5851C102.982 58.4192 105.129 58.3362 107.722 58.3362C110.443 58.3362 112.049 58.6384 112.54 59.2433Z" fill="white"/>
<path d="M119.398 59.2915C119.201 59.527 118.945 59.6448 118.63 59.6448H115.797C115.141 59.6448 114.41 59.5457 113.604 59.3477C112.548 59.0907 111.95 58.7669 111.811 58.3761C111.657 57.9371 111.579 57.5169 111.579 57.1154C111.579 56.3071 111.926 55.6861 112.62 55.2525C113.207 54.8778 113.922 54.6904 114.765 54.6904C115.49 54.6904 116.066 54.8483 116.493 55.1642C116.92 55.4747 117.133 55.9002 117.133 56.4409C117.133 56.7407 116.621 57.0699 115.597 57.4286C114.749 57.7337 114.132 57.8863 113.748 57.8863C113.7 57.8863 113.657 57.8836 113.62 57.8782C113.62 57.9532 113.561 58.0442 113.444 58.1513C113.508 58.2583 113.82 58.3814 114.38 58.5206C114.882 58.6491 115.239 58.7133 115.453 58.7133H117.998C117.998 58.7187 118.318 58.7669 118.958 58.8579C119.161 58.9863 119.308 59.1309 119.398 59.2915ZM116.101 56.0877C115.802 55.7826 115.322 55.63 114.661 55.63C114.196 55.63 113.767 55.721 113.372 55.903C112.86 56.1385 112.604 56.457 112.604 56.8585C112.604 57.0031 112.652 57.1048 112.748 57.1637H113.26C113.441 57.1637 113.932 57.0111 114.733 56.706C115.533 56.4009 115.989 56.1948 116.101 56.0877Z" fill="white"/>
<path d="M127.095 55.5596L126.839 55.7925C126.279 55.6158 125.844 55.5275 125.535 55.5275C125.514 55.5275 125.492 55.5275 125.471 55.5275C125.071 55.5489 124.777 55.5596 124.59 55.5596H123.95C123.94 55.5596 123.753 55.6185 123.39 55.7363C123.161 55.7523 122.822 55.8112 122.374 55.9129C121.659 56.2288 121.232 56.7855 121.093 57.5831C121.034 57.899 121.005 58.1773 121.005 58.4182C121.005 58.4825 121.008 58.5467 121.013 58.6109C121.056 59.2051 121.077 59.5558 121.077 59.6628C120.954 59.6949 120.757 59.727 120.485 59.7592C120.336 59.4701 120.261 59.2693 120.261 59.1569C120.261 59.0981 120.274 58.9455 120.301 58.6992C120.317 58.453 120.325 58.2871 120.325 58.2014C120.325 57.7517 120.522 56.9782 120.917 55.8808C121.05 55.6025 121.243 55.375 121.493 55.1983C122.038 54.8236 123.043 54.6362 124.511 54.6362C125.983 54.6416 126.845 54.837 127.096 55.2224L127.095 55.5596Z" fill="white"/>
<path d="M136.948 56.7876C136.948 57.3604 136.828 57.8502 136.588 58.257C136.37 58.6264 135.593 58.9904 134.259 59.3491C133.07 59.6703 132.165 59.8309 131.546 59.8309C130.821 59.8309 130.103 59.6569 129.394 59.3089C128.535 58.8807 128.105 58.348 128.105 57.711C128.105 57.4273 128.268 57.1382 128.593 56.8438C128.881 56.635 129.316 56.2416 129.898 55.6634C130.282 55.1923 130.986 54.8123 132.011 54.5232C132.875 54.2769 133.683 54.1538 134.436 54.1538C134.638 54.1538 134.942 54.2421 135.348 54.4188C135.753 54.6061 136.031 54.7774 136.18 54.9327C136.33 55.0986 136.495 55.3984 136.676 55.832C136.858 56.2603 136.948 56.5788 136.948 56.7876ZM136.132 56.7233C136.132 56.3272 135.895 55.9498 135.42 55.5911C134.982 55.2539 134.55 55.0853 134.123 55.0853C134.043 55.0853 133.422 55.2004 132.259 55.4306C131.81 55.5216 131.402 55.6955 131.034 55.9525C129.775 56.8518 129.145 57.4728 129.145 57.8154C129.145 58.1045 129.49 58.3668 130.178 58.6023C130.765 58.8057 131.242 58.9074 131.61 58.9074C132.16 58.9074 132.931 58.795 133.923 58.5702C134.83 58.3668 135.476 58.059 135.86 57.6468C136.041 57.4594 136.132 57.1516 136.132 56.7233Z" fill="white"/>
<path d="M28.5556 0.00141667C28.5157 0.00168537 28.4564 0.0091572 28.4239 0.0179977C28.3913 0.0267307 28.3363 0.047803 28.3014 0.0648337C28.2666 0.0818698 28.2077 0.124219 28.1706 0.159068C28.1337 0.193916 28.0872 0.249385 28.0676 0.282326C28.0435 0.322778 27.8336 0.93582 27.4234 2.16312C27.0887 3.16454 26.7997 4.0394 26.7811 4.10722C26.7625 4.17501 26.7323 4.29848 26.7141 4.38172C26.6958 4.46487 26.6683 4.61615 26.6528 4.71788C26.6374 4.81951 26.6182 4.96327 26.6102 5.03722C26.6011 5.1217 26.5957 5.31756 26.5957 5.56386C26.5957 5.81172 26.601 6.00556 26.6103 6.0905C26.6183 6.16445 26.6351 6.29297 26.6475 6.37624C26.6598 6.45938 26.6849 6.60056 26.7031 6.68998C26.7214 6.77928 26.7518 6.91039 26.7705 6.98131C26.7894 7.05213 26.8274 7.18077 26.855 7.26706C26.8827 7.35334 26.9318 7.49194 26.9643 7.57521C26.9968 7.65835 27.0493 7.78442 27.0809 7.85534C27.1126 7.92616 27.174 8.05221 27.2176 8.13546C27.261 8.21861 27.3343 8.34971 27.3803 8.4268C27.4264 8.50378 27.5019 8.62232 27.5482 8.69012C27.5944 8.75791 27.665 8.85618 27.7051 8.90862C27.7451 8.96095 27.8257 9.06179 27.8841 9.13272C27.9425 9.20354 28.0657 9.33844 28.1577 9.43247C28.2871 9.56457 28.3196 9.60334 28.3006 9.60334C28.2872 9.60334 28.2273 9.59607 28.1674 9.58709C28.1075 9.57812 27.9782 9.56054 27.8799 9.5481C27.7817 9.53566 27.6234 9.5174 27.5281 9.50765L27.355 9.48983L26.5565 9.2488C26.1174 9.11624 25.5017 8.93033 25.1885 8.83566C24.8752 8.74109 24.3099 8.57055 23.9321 8.4566C23.5544 8.34264 23.1825 8.23406 23.1057 8.21534C23.029 8.19651 22.8983 8.16873 22.8153 8.1536C22.7324 8.13837 22.6018 8.11808 22.5249 8.10844C22.4482 8.09893 22.315 8.08526 22.229 8.07819C22.1297 8.07013 21.9381 8.06777 21.7041 8.07169C21.4339 8.07629 21.2852 8.08413 21.1469 8.10093C21.0431 8.11359 20.8823 8.13712 20.7895 8.15314C20.6968 8.16916 20.5455 8.19954 20.4533 8.2206C20.3612 8.24167 20.2146 8.27909 20.1276 8.30374C20.0406 8.32838 19.9023 8.37165 19.8204 8.39966C19.7386 8.42779 19.5887 8.48358 19.4873 8.5237C19.386 8.56392 19.1824 8.65659 19.035 8.72964C18.8876 8.80281 18.6891 8.90982 18.5939 8.96741C18.4987 9.025 18.3755 9.10266 18.3203 9.14008C18.265 9.1774 18.1594 9.25314 18.0857 9.30827C18.012 9.36352 17.8897 9.46044 17.8139 9.52375C17.7382 9.58706 17.6032 9.71031 17.5139 9.79748C17.4247 9.88476 17.3028 10.0116 17.2431 10.0795C17.1834 10.1473 17.094 10.2541 17.0446 10.3167C16.9951 10.3794 16.9215 10.4783 16.881 10.5366C16.8405 10.5947 16.7778 10.6898 16.7416 10.7476C16.7053 10.8054 16.1893 11.7175 15.595 12.7744C15.0005 13.8313 14.4999 14.7263 14.4826 14.7633C14.4652 14.8004 14.4459 14.8578 14.4396 14.8909C14.4334 14.9241 14.4283 14.977 14.4283 15.0086C14.4285 15.0401 14.4362 15.0981 14.4454 15.1377C14.4547 15.1771 14.4784 15.2402 14.498 15.2777C14.5177 15.3153 14.5641 15.3764 14.6011 15.4136C14.641 15.4539 14.6978 15.4962 14.7409 15.5178C14.7863 15.5407 15.281 15.6952 16.0587 15.9294C16.7437 16.1357 17.3533 16.3198 17.4135 16.3384L17.5232 16.3723L17.4303 16.4736C17.3792 16.5293 17.2727 16.6489 17.1935 16.7392C17.1143 16.8295 16.9883 16.9791 16.9133 17.0715C16.8384 17.164 16.7168 17.3203 16.6431 17.4189C16.5696 17.5175 16.4688 17.6561 16.4194 17.727C16.3699 17.7978 16.2717 17.9441 16.2012 18.052C16.1308 18.1598 16.0279 18.3237 15.9727 18.4161C15.9175 18.5086 15.8455 18.6321 15.8128 18.6906L15.7533 18.7971L15.6063 18.885C15.5256 18.9333 15.3977 19.0172 15.3223 19.0712C15.2468 19.1252 15.126 19.2181 15.0537 19.2775C14.9814 19.3368 14.8546 19.4523 14.772 19.5339C14.6893 19.6155 14.5984 19.7084 14.5701 19.7402L14.5174 19.7983L14.4307 19.7066C14.3829 19.6562 14.3011 19.5732 14.2489 19.522C14.1965 19.4706 14.1031 19.3845 14.0414 19.3305C13.9797 19.2767 13.8791 19.1947 13.818 19.1483C13.757 19.1022 13.6618 19.0339 13.6063 18.997C13.5511 18.9599 13.4613 18.9033 13.4069 18.8712C13.3526 18.839 13.2528 18.785 13.1851 18.7509C13.1174 18.7169 13.0088 18.6673 12.9433 18.6407C12.878 18.6141 12.7693 18.5742 12.7019 18.552C12.6342 18.5298 12.5163 18.4968 12.4393 18.4786C12.3626 18.4605 12.2445 18.4373 12.177 18.4273C12.1094 18.4173 11.9803 18.405 11.8901 18.3999C11.7999 18.3949 11.6452 18.395 11.5462 18.4002C11.4474 18.4055 11.3026 18.4201 11.2245 18.4328C11.1464 18.4454 11.0198 18.4715 10.9429 18.4906C10.8662 18.5099 10.7406 18.5471 10.6637 18.5734C10.587 18.5998 10.4588 18.6511 10.3789 18.6876C10.2991 18.724 10.1735 18.7882 10.0998 18.8301C10.026 18.872 9.908 18.9459 9.83731 18.9942C9.76673 19.0426 9.6737 19.1101 9.6307 19.1445C9.5877 19.1788 9.49825 19.2556 9.4318 19.3152C9.36546 19.3747 9.25814 19.4825 9.19336 19.5548C9.12859 19.627 9.04538 19.7255 9.00841 19.7738C8.97144 19.822 8.91539 19.8992 8.88389 19.9454C8.8524 19.9915 8.79723 20.0773 8.76138 20.1359C8.72553 20.1945 8.65685 20.3231 8.60883 20.4217C8.56081 20.5203 8.49625 20.669 8.46532 20.7523C8.43449 20.8354 8.39384 20.9586 8.37508 21.0259C8.3562 21.0931 8.32863 21.2067 8.31366 21.278C8.29869 21.3494 8.27826 21.4657 8.26843 21.5366C8.25849 21.6075 8.24631 21.7507 8.24118 21.8548C8.23615 21.9589 8.23628 22.1253 8.24145 22.2246C8.2467 22.3238 8.25874 22.4629 8.26836 22.5339C8.27786 22.6047 8.2984 22.7308 8.31404 22.8138C8.32957 22.8968 8.35938 23.0305 8.38004 23.1107C8.40082 23.191 8.44001 23.3246 8.46715 23.4079C8.49429 23.491 8.5403 23.6197 8.56945 23.6936C8.5986 23.7676 8.6713 23.9289 8.73105 24.0522C8.79068 24.1755 8.88137 24.3469 8.93263 24.4332C8.98378 24.5195 9.07089 24.6581 9.12617 24.7413C9.18134 24.8245 9.28185 24.9657 9.34953 25.0551C9.41709 25.1444 9.52062 25.2752 9.57936 25.3457C9.6381 25.4162 9.73358 25.5271 9.79142 25.5922C9.84927 25.6573 10.0202 25.8343 10.1712 25.9856C10.3222 26.1367 10.5261 26.3328 10.6242 26.4212C10.7222 26.5097 10.9032 26.6686 11.0262 26.7744C11.1493 26.8802 11.3781 27.0726 11.5347 27.2017C11.6914 27.3311 11.8848 27.4867 11.9647 27.5477C12.0445 27.6086 12.1852 27.7199 12.2774 27.795C12.3695 27.87 12.5303 28.0063 12.6347 28.0978C12.7392 28.1893 12.9707 28.4106 13.1491 28.5896C13.3276 28.7687 13.5467 28.9993 13.6361 29.1021C13.7254 29.2048 13.8583 29.3637 13.9314 29.455C14.0045 29.5465 14.0911 29.6472 14.1237 29.6789C14.1564 29.7106 14.2155 29.7525 14.255 29.772C14.2945 29.7916 14.3658 29.8156 14.4134 29.8254C14.4839 29.8399 14.5152 29.841 14.5838 29.8311C14.63 29.8243 14.6965 29.8081 14.7315 29.795C14.7665 29.7819 14.8251 29.749 14.8618 29.722C14.9112 29.6853 14.9653 29.6233 15.0735 29.4789C15.1534 29.3723 15.2362 29.2649 15.2577 29.2402L15.2966 29.1954L15.3155 29.2402C15.3259 29.2649 15.3718 29.3657 15.4176 29.4643C15.4634 29.5629 15.546 29.7312 15.6013 29.8383C15.6566 29.9454 15.7372 30.0966 15.7806 30.1744C15.8239 30.2523 15.9072 30.3966 15.9658 30.4952C16.0243 30.5938 16.14 30.7778 16.2228 30.9042C16.3056 31.0305 16.4289 31.2117 16.4969 31.307C16.5649 31.4021 16.6755 31.5509 16.7428 31.6376C16.8099 31.7242 16.9167 31.858 16.98 31.9351C17.0432 32.0121 17.141 32.128 17.1973 32.1928C17.2537 32.2574 17.3884 32.4057 17.4968 32.5221C17.6052 32.6385 17.7818 32.8176 17.8893 32.92C17.9968 33.0224 18.1564 33.1701 18.2441 33.2483C18.3318 33.3265 18.4835 33.4565 18.5815 33.5372C18.6793 33.6179 18.8613 33.7606 18.986 33.8545C19.1107 33.9483 19.3258 34.1012 19.464 34.194C19.6022 34.287 19.7931 34.411 19.8884 34.4696C19.9836 34.5282 20.1569 34.6301 20.2736 34.6964C20.3903 34.7625 20.6316 34.889 20.8097 34.9775C20.9878 35.066 21.2399 35.184 21.3699 35.2396C21.4999 35.2953 21.7041 35.3784 21.824 35.4246C21.9438 35.4706 22.1465 35.5436 22.2745 35.5867C22.4025 35.6297 22.6053 35.6934 22.725 35.7281C22.8448 35.7629 23.0408 35.8159 23.1606 35.8458C23.2804 35.8758 23.4613 35.9182 23.5626 35.9398C23.664 35.9614 23.8298 35.9941 23.9311 36.0124C24.0325 36.0308 24.2034 36.0585 24.3108 36.074C24.4184 36.0896 24.5968 36.1126 24.7073 36.125C24.8179 36.1375 25.0089 36.1557 25.1317 36.1655C25.2593 36.1757 25.5584 36.186 25.8297 36.1896C26.1238 36.1935 26.3978 36.1909 26.55 36.183C26.6851 36.176 26.8837 36.1627 26.9911 36.1534C27.0987 36.1441 27.2921 36.1237 27.4211 36.108C27.5501 36.0923 27.7712 36.0599 27.9125 36.0359C28.0537 36.0121 28.2573 35.9743 28.3648 35.9521C28.4723 35.9301 28.6607 35.8871 28.7836 35.8568C28.9064 35.8265 29.105 35.7736 29.2247 35.7394C29.3445 35.705 29.5606 35.6372 29.7049 35.5888C29.8493 35.5402 30.0554 35.4666 30.1628 35.4253C30.2704 35.3838 30.4588 35.3072 30.5816 35.2548C30.7045 35.2025 30.9507 35.0881 31.1288 35.0006C31.307 34.9131 31.5456 34.7895 31.6593 34.7259C31.773 34.6624 31.9288 34.5724 32.0055 34.5259C32.0824 34.4794 32.2306 34.3863 32.335 34.319C32.4394 34.2515 32.5962 34.1464 32.6836 34.0852C32.7709 34.0241 32.9166 33.918 33.0074 33.8494C33.0982 33.7809 33.2328 33.6764 33.3064 33.6171C33.38 33.5579 33.5157 33.4446 33.6079 33.3654C33.7002 33.2862 33.8639 33.1391 33.9718 33.0385C34.0797 32.9378 34.2455 32.7755 34.3403 32.6777C34.4351 32.58 34.5783 32.4272 34.6585 32.3381C34.7387 32.2489 34.847 32.1256 34.8994 32.0639C34.9516 32.0023 35.0624 31.8662 35.1455 31.7614C35.2285 31.6566 35.3518 31.4953 35.4192 31.4028C35.4868 31.3104 35.5999 31.149 35.6706 31.0443C35.7413 30.9395 35.8464 30.7782 35.9039 30.6857C35.9616 30.5933 36.0706 30.4092 36.1462 30.2767C36.2218 30.1442 36.3433 29.9173 36.4162 29.7725C36.489 29.6276 36.5874 29.4235 36.6348 29.3187C36.6821 29.2139 36.7551 29.045 36.7971 28.9433C36.8389 28.8416 36.9042 28.6752 36.9421 28.5736C36.98 28.4718 37.0427 28.2929 37.0817 28.1758C37.1206 28.0587 37.1802 27.8671 37.2142 27.75C37.248 27.6329 37.2984 27.4463 37.3261 27.3354C37.3537 27.2244 37.3913 27.0656 37.4097 26.9824C37.428 26.8991 37.4606 26.7378 37.4822 26.6238C37.5037 26.5098 37.5364 26.3132 37.5549 26.1868C37.5733 26.0604 37.5988 25.8613 37.6114 25.7442C37.624 25.6271 37.6422 25.433 37.6517 25.3128C37.6612 25.1926 37.6718 24.8876 37.6753 24.6349C37.6793 24.3481 37.6769 24.0809 37.6688 23.9234C37.6617 23.7847 37.6484 23.583 37.6392 23.4752C37.6301 23.3673 37.6097 23.1732 37.594 23.0438C37.5782 22.9144 37.5482 22.7038 37.5272 22.5759C37.5062 22.4479 37.4711 22.2539 37.4494 22.1445C37.4275 22.0351 37.3826 21.834 37.3494 21.6974C37.3162 21.5608 37.2635 21.3591 37.2322 21.2492C37.2008 21.1393 37.1396 20.9409 37.0962 20.8084C37.0529 20.6759 36.9805 20.4691 36.9355 20.349C36.8905 20.2288 36.8208 20.0511 36.7805 19.954C36.7402 19.857 36.6617 19.6781 36.606 19.5562C36.5503 19.4345 36.4529 19.2341 36.3894 19.1108C36.3261 18.9876 36.254 18.8514 36.2293 18.8083C36.2046 18.7651 36.1877 18.7265 36.1917 18.7223C36.1958 18.7183 36.5899 18.4547 37.0673 18.1365C37.5448 17.8186 37.9423 17.5557 37.9504 17.5525C37.9605 17.5487 38.0015 17.612 38.0757 17.7462C38.1365 17.8557 38.2517 18.0766 38.3319 18.2368C38.412 18.397 38.5312 18.6492 38.5966 18.7971C38.6621 18.945 38.7558 19.1668 38.8048 19.2901C38.8538 19.4134 38.9272 19.6064 38.9679 19.7191C39.0087 19.8319 39.0673 20.0007 39.0983 20.0945C39.1292 20.1882 39.1846 20.3658 39.2215 20.4891C39.2582 20.6123 39.3206 20.8392 39.36 20.9933C39.3995 21.1474 39.4542 21.3781 39.4818 21.5059C39.5093 21.6339 39.5495 21.8356 39.5711 21.9541C39.5927 22.0728 39.6228 22.253 39.638 22.3547C39.6533 22.4564 39.6759 22.6203 39.6882 22.7189C39.7006 22.8175 39.7182 22.9738 39.7276 23.0662C39.7369 23.1587 39.752 23.3376 39.7613 23.464C39.7706 23.5903 39.7834 23.8628 39.7898 24.0695C39.7977 24.328 39.7977 24.5605 39.7898 24.8146C39.7834 25.0177 39.7708 25.2899 39.7616 25.4193C39.7525 25.5487 39.7398 25.7075 39.7334 25.7723C39.727 25.8371 39.7116 25.9757 39.6993 26.0804C39.687 26.1852 39.6617 26.3742 39.643 26.5006C39.6244 26.627 39.5893 26.8377 39.5652 26.9688C39.5411 27.1 39.5011 27.2991 39.4762 27.4114C39.4513 27.5237 39.4058 27.716 39.3752 27.8385C39.3445 27.9612 39.2875 28.173 39.2483 28.3092C39.2092 28.4454 39.1395 28.6702 39.0936 28.8089C39.0476 28.9475 38.9686 29.1719 38.9181 29.3075C38.8675 29.4431 38.7797 29.665 38.7228 29.8005C38.666 29.9361 38.5828 30.1277 38.5379 30.2263C38.4931 30.3249 38.3877 30.5417 38.3038 30.7082C38.2198 30.8745 38.1045 31.0939 38.0477 31.1956C37.9908 31.2972 37.8838 31.4813 37.8101 31.6046C37.7363 31.7278 37.6081 31.932 37.5253 32.0584C37.4423 32.1846 37.3265 32.3561 37.2677 32.4393C37.209 32.5225 37.1005 32.6713 37.0268 32.7699C36.9531 32.8685 36.8335 33.0232 36.7612 33.1138C36.6887 33.2042 36.5749 33.3429 36.5083 33.4219C36.4416 33.5008 36.315 33.6462 36.2268 33.7448C36.1385 33.8434 35.9179 34.0731 35.7363 34.255C35.5547 34.4371 35.3157 34.6666 35.2051 34.7651C35.0946 34.8635 34.9438 34.9946 34.8701 35.0564C34.7964 35.1183 34.6733 35.2194 34.5965 35.2811C34.5198 35.3428 34.3865 35.4464 34.3006 35.5111C34.2146 35.576 34.0809 35.6747 34.0035 35.7305C33.9262 35.7862 33.7713 35.8933 33.6593 35.9684C33.5473 36.0435 33.3644 36.1616 33.2528 36.231C33.1411 36.3003 32.9619 36.4077 32.8544 36.4696C32.7469 36.5315 32.5759 36.6267 32.4746 36.6812C32.3734 36.7356 32.1748 36.8366 32.0335 36.9056C31.8922 36.9747 31.6909 37.0691 31.5861 37.1156C31.4814 37.1621 31.301 37.2387 31.1852 37.2858C31.0695 37.333 30.8939 37.4019 30.795 37.439C30.6962 37.476 30.5273 37.5364 30.4197 37.573C30.3123 37.6096 30.1188 37.6718 29.9898 37.7111C29.8608 37.7503 29.6397 37.8129 29.4984 37.8503C29.3571 37.8878 29.1533 37.9383 29.0455 37.9625C28.9377 37.9867 28.7593 38.0244 28.649 38.0461C28.5388 38.0678 28.3581 38.1008 28.2476 38.1194C28.137 38.1379 27.9536 38.1656 27.8399 38.1812C27.7264 38.1967 27.5379 38.2197 27.4211 38.2321C27.3044 38.2445 27.1084 38.2622 26.9856 38.2714C26.8627 38.2806 26.5839 38.2941 26.3658 38.3015C26.0584 38.3118 25.8814 38.3118 25.5784 38.3013C25.3635 38.294 25.0896 38.2805 24.9698 38.2714C24.8501 38.2624 24.6541 38.2446 24.5343 38.2321C24.4145 38.2195 24.191 38.1914 24.0376 38.1697C23.8843 38.1479 23.6507 38.1101 23.5183 38.0855C23.3861 38.061 23.1824 38.0207 23.0657 37.9958C22.949 37.971 22.7279 37.9187 22.5743 37.8794C22.4207 37.8401 22.1996 37.7799 22.0829 37.7455C21.9662 37.7109 21.7431 37.6398 21.5871 37.5872C21.431 37.5347 21.2124 37.457 21.1013 37.4147C20.99 37.3723 20.8087 37.3003 20.6981 37.2546C20.5875 37.209 20.4042 37.1294 20.2905 37.078C20.1769 37.0264 19.9507 36.9175 19.7879 36.8359C19.6252 36.7542 19.3939 36.6327 19.2742 36.5657C19.1545 36.4988 18.966 36.3892 18.8554 36.3222C18.7448 36.2553 18.5766 36.1503 18.4813 36.089C18.3861 36.0277 18.2278 35.9218 18.1295 35.8536C18.0312 35.7854 17.8629 35.6642 17.7553 35.5843C17.6479 35.5044 17.4644 35.3623 17.3477 35.2687C17.231 35.1749 17.0752 35.0461 17.0015 34.9826C16.9278 34.9192 16.8023 34.8088 16.7225 34.7373C16.6429 34.666 16.4525 34.484 16.2996 34.3331C16.1467 34.182 15.9428 33.9728 15.8465 33.868C15.7501 33.7633 15.6188 33.617 15.5547 33.5429C15.4905 33.4689 15.3913 33.352 15.3343 33.2831C15.2773 33.2142 15.2069 33.1405 15.178 33.1194C15.149 33.0982 15.1041 33.0701 15.0782 33.057C15.0523 33.0439 14.9995 33.0257 14.9609 33.0165C14.9224 33.0075 14.8604 32.9998 14.8233 32.9997C14.7862 32.9997 14.7268 33.0073 14.6912 33.0165C14.6557 33.0258 14.5989 33.0466 14.5651 33.0626C14.5313 33.0786 14.4726 33.121 14.4348 33.1566C14.3969 33.1922 14.3488 33.2499 14.328 33.2847C14.3071 33.3194 14.2808 33.3816 14.2694 33.4228C14.2575 33.4654 14.2486 33.5343 14.2486 33.5825C14.2486 33.6291 14.2563 33.6969 14.2657 33.7332C14.2752 33.7694 14.296 33.8233 14.312 33.8529C14.3281 33.8826 14.3791 33.9535 14.4256 34.0106C14.472 34.0678 14.5729 34.1876 14.65 34.277C14.727 34.3663 14.8654 34.5226 14.9575 34.6243C15.0496 34.726 15.2508 34.9353 15.4047 35.0894C15.5585 35.2434 15.7822 35.4585 15.9018 35.5674C16.0214 35.6762 16.1946 35.8291 16.2867 35.9073C16.3789 35.9857 16.5246 36.1062 16.6106 36.1755C16.6966 36.2447 16.8499 36.3644 16.9512 36.4414C17.0526 36.5184 17.2064 36.6322 17.2932 36.6943C17.3799 36.7564 17.5482 36.8723 17.6673 36.952C17.7864 37.0317 17.9768 37.155 18.0904 37.2261C18.204 37.2971 18.3975 37.4131 18.5203 37.4839C18.6431 37.5546 18.8351 37.6614 18.9468 37.7212C19.0586 37.7811 19.2721 37.8898 19.4214 37.9627C19.5708 38.0358 19.786 38.137 19.8995 38.1877C20.0132 38.2385 20.2112 38.3226 20.3398 38.3749C20.4683 38.4272 20.6718 38.5066 20.7921 38.5514C20.9123 38.5962 21.1414 38.6763 21.3011 38.7291C21.4608 38.782 21.707 38.8587 21.8483 38.8994C21.9896 38.9403 22.2459 39.0084 22.4179 39.0507C22.5898 39.0931 22.854 39.1529 23.0048 39.1837C23.1556 39.2145 23.4019 39.2598 23.552 39.2845C23.7022 39.309 23.9231 39.3419 24.0428 39.3577C24.1626 39.3734 24.3586 39.3964 24.4783 39.4087C24.5982 39.4209 24.8017 39.4385 24.9306 39.4477C25.0596 39.4569 25.3159 39.4702 25.5002 39.4773C25.7002 39.485 25.9861 39.4874 26.2094 39.4831C26.4152 39.4792 26.7078 39.4686 26.8598 39.4596C27.0118 39.4505 27.246 39.4329 27.3802 39.4204C27.5143 39.4077 27.7241 39.3849 27.8463 39.3695C27.9684 39.3541 28.1664 39.3264 28.2864 39.3078C28.4062 39.2893 28.6125 39.2539 28.7445 39.2291C28.8766 39.2043 29.0877 39.1613 29.2135 39.1335C29.3395 39.1056 29.5506 39.0552 29.6826 39.0212C29.8147 38.9874 30.0347 38.9271 30.1717 38.8872C30.3087 38.8473 30.5223 38.7815 30.6464 38.7408C30.7704 38.7001 30.975 38.6293 31.1009 38.5832C31.2269 38.5373 31.4279 38.4602 31.5476 38.4121C31.6674 38.3641 31.8693 38.2791 31.9961 38.2234C32.1231 38.1678 32.294 38.0905 32.3758 38.052C32.4578 38.0135 32.6329 37.9267 32.7649 37.8593C32.8969 37.7919 33.088 37.6912 33.1893 37.6354C33.2906 37.5797 33.4465 37.4914 33.5355 37.4393C33.6246 37.3872 33.7754 37.2963 33.8705 37.2374C33.9658 37.1785 34.1492 37.0597 34.2782 36.9736C34.4071 36.8876 34.6031 36.7524 34.7137 36.6733C34.8243 36.5943 34.9977 36.4657 35.099 36.3875C35.2003 36.3094 35.3737 36.171 35.4843 36.08C35.5948 35.9891 35.7582 35.8506 35.8472 35.7724C35.9363 35.6942 36.0946 35.5507 36.199 35.4535C36.3034 35.3564 36.5095 35.1539 36.6569 35.0038C36.8043 34.8536 36.993 34.6552 37.0762 34.5627C37.1594 34.4703 37.288 34.3241 37.3619 34.2378C37.4359 34.1515 37.569 33.9901 37.658 33.8792C37.7467 33.7683 37.8873 33.5868 37.9703 33.4758C38.0533 33.3649 38.1692 33.206 38.2279 33.1229C38.2867 33.0397 38.4075 32.8607 38.4965 32.7251C38.5855 32.5895 38.7062 32.4003 38.7645 32.3049C38.8229 32.2093 38.9208 32.0429 38.9822 31.9351C39.0438 31.8272 39.1282 31.6759 39.17 31.5989C39.2117 31.5219 39.3122 31.3252 39.3933 31.1619C39.4744 30.9986 39.5863 30.7641 39.6419 30.6409C39.6975 30.5177 39.7854 30.3134 39.8372 30.1871C39.889 30.0607 39.9653 29.8667 40.0069 29.7557C40.0483 29.6448 40.1092 29.477 40.1421 29.3828C40.175 29.2887 40.2346 29.1072 40.2745 28.9794C40.3143 28.8517 40.3698 28.6666 40.398 28.568C40.426 28.4694 40.4813 28.2598 40.5206 28.1023C40.56 27.9448 40.6149 27.7078 40.6426 27.5757C40.6702 27.4436 40.7107 27.2371 40.7323 27.117C40.7541 26.9968 40.7844 26.8152 40.7996 26.7136C40.8149 26.6118 40.8398 26.4278 40.8551 26.3046C40.8704 26.1813 40.8907 25.9996 40.9003 25.9008C40.9098 25.8019 40.925 25.6154 40.9341 25.4862C40.9432 25.357 40.9564 25.071 40.9635 24.8507C40.9731 24.5488 40.9731 24.3515 40.9635 24.0496C40.9564 23.8293 40.9431 23.5431 40.9338 23.4137C40.9245 23.2843 40.9067 23.0749 40.8942 22.9487C40.8817 22.8223 40.8591 22.6256 40.8439 22.5117C40.8287 22.3976 40.8035 22.2211 40.7878 22.1195C40.7722 22.0177 40.7402 21.8311 40.7165 21.7049C40.6928 21.5785 40.6529 21.3798 40.6279 21.2633C40.6028 21.1466 40.5836 21.05 40.5852 21.0485C40.5868 21.0469 40.965 20.9567 41.4255 20.848C41.8862 20.7395 42.4993 20.5948 42.788 20.5267C43.0767 20.4585 43.3702 20.3854 43.4403 20.3642C43.5104 20.3429 43.6302 20.3028 43.7066 20.275C43.783 20.2472 43.8985 20.2017 43.9633 20.1739C44.0281 20.1462 44.1495 20.0891 44.233 20.047C44.3167 20.005 44.4278 19.9457 44.4799 19.9153C44.5322 19.8848 44.6176 19.8332 44.6698 19.8004C44.722 19.7675 44.8144 19.7054 44.875 19.6624C44.9357 19.6193 45.0462 19.5353 45.1207 19.4757C45.1952 19.4161 45.3195 19.3087 45.3969 19.2371C45.4744 19.1655 45.5965 19.0418 45.6681 18.9623C45.7398 18.8829 45.8461 18.7577 45.9045 18.6843C45.9628 18.6108 46.0548 18.4851 46.1091 18.405C46.1632 18.3248 46.2393 18.2063 46.278 18.1416C46.3166 18.0769 46.3867 17.9483 46.4339 17.8559C46.4811 17.7635 46.5456 17.6258 46.5774 17.5502C46.6091 17.4746 46.6582 17.3485 46.6866 17.2701C46.7148 17.1916 46.76 17.0512 46.7866 16.958C46.8133 16.8647 46.853 16.7008 46.8746 16.5939C46.8963 16.4867 46.9249 16.321 46.938 16.2255C46.9579 16.0809 46.9628 15.9808 46.9667 15.626C46.9693 15.3919 46.964 14.5296 46.955 13.71C46.9406 12.4113 46.9362 12.2112 46.9205 12.1534C46.9107 12.1169 46.8869 12.0575 46.8678 12.0215C46.8474 11.9831 46.8016 11.9261 46.7573 11.8842C46.7125 11.8419 46.6528 11.799 46.611 11.7792C46.5721 11.7608 46.5138 11.7402 46.4812 11.7335C46.4487 11.7267 46.3913 11.7211 46.3538 11.7211C46.3065 11.7211 46.1474 11.7538 45.8378 11.8271C45.5916 11.8853 44.8549 12.0594 44.2007 12.2139C43.5466 12.3683 42.9711 12.505 42.922 12.5176C42.8729 12.5303 42.7699 12.5609 42.6931 12.5857C42.6164 12.6105 42.478 12.6605 42.3858 12.6968C42.2936 12.7331 42.1372 12.8027 42.0384 12.8513C41.9396 12.9001 41.8039 12.9716 41.737 13.0102C41.6701 13.0489 41.5591 13.1176 41.4902 13.1628C41.4214 13.2082 41.3055 13.2899 41.2327 13.3443C41.1598 13.3988 41.0453 13.4905 40.9781 13.548C40.9109 13.6053 40.7832 13.7259 40.694 13.8159C40.605 13.9057 40.4838 14.0372 40.4249 14.108C40.3658 14.1787 40.28 14.287 40.2341 14.3487C40.1881 14.4103 40.1236 14.5011 40.0905 14.5504C40.0576 14.5997 39.9886 14.7104 39.9375 14.7965C39.8864 14.8826 39.8049 15.0339 39.7567 15.1327C39.7083 15.2314 39.6361 15.3956 39.5961 15.4972C39.5561 15.5988 39.5031 15.7476 39.4783 15.8278C39.4536 15.9079 39.4205 16.0213 39.4051 16.0799C39.3896 16.1384 39.3618 16.2619 39.3433 16.3544C39.3248 16.4468 39.2993 16.6005 39.2863 16.6961C39.2701 16.8166 39.2611 16.9601 39.2567 17.1646L39.2503 17.4594L39.2258 17.4167C39.2124 17.3933 39.1444 17.2706 39.0747 17.1443C39.0051 17.0179 38.8904 16.8188 38.8199 16.7017C38.7494 16.5846 38.627 16.3884 38.5478 16.2658C38.4686 16.1431 38.3455 15.9591 38.2742 15.8568C38.2029 15.7545 38.0791 15.5825 37.9991 15.4747C37.9192 15.3668 37.7959 15.2055 37.7252 15.1162C37.6544 15.0268 37.5462 14.8932 37.4846 14.8193C37.4231 14.7453 37.3398 14.6469 37.2996 14.6008C37.2594 14.5545 37.159 14.4411 37.0765 14.3486C36.9939 14.2562 36.7652 14.0189 36.5683 13.8212C36.3713 13.6237 36.1348 13.3941 36.0426 13.3112C35.9505 13.2282 35.8047 13.0998 35.7188 13.0259C35.6328 12.952 35.4745 12.8206 35.367 12.7341C35.2595 12.6475 35.0987 12.5212 35.0096 12.4535C34.9206 12.3857 34.7698 12.2748 34.6746 12.207C34.5794 12.1391 34.411 12.023 34.3004 11.9491C34.1899 11.875 34.0316 11.7717 33.9486 11.7194C33.8656 11.667 33.7301 11.5837 33.6471 11.534C33.5641 11.4844 33.4537 11.4197 33.4014 11.3905C33.3491 11.3611 33.305 11.3359 33.3032 11.3344C33.3013 11.333 33.5339 10.6315 33.8201 9.77551C34.1061 8.91968 34.3576 8.15639 34.3788 8.07937C34.4002 8.00228 34.4329 7.86613 34.4517 7.77683C34.4706 7.68741 34.496 7.5488 34.5083 7.46868C34.5205 7.38856 34.5379 7.25241 34.5467 7.16614C34.5555 7.07986 34.5659 6.90081 34.5698 6.76835C34.5742 6.62235 34.5719 6.44799 34.5638 6.32573C34.5566 6.2148 34.5407 6.04338 34.5284 5.94476C34.5161 5.84616 34.4863 5.66708 34.4621 5.54696C34.438 5.42673 34.4029 5.27299 34.3841 5.20522C34.3653 5.13743 34.327 5.01137 34.299 4.92509C34.2708 4.83881 34.2202 4.69762 34.1863 4.61135C34.1525 4.52507 34.081 4.36361 34.0275 4.25244C33.974 4.14129 33.8909 3.9825 33.8429 3.89946C33.7947 3.81643 33.7185 3.69205 33.6732 3.62291C33.628 3.55389 33.5463 3.43724 33.4916 3.36374C33.4369 3.29023 33.3507 3.18032 33.3 3.11959C33.2493 3.05875 33.1546 2.9514 33.0896 2.88113C33.0246 2.81077 32.9061 2.69289 32.8263 2.61904C32.7464 2.5452 32.6178 2.43383 32.5403 2.37153C32.4628 2.30923 32.3476 2.22104 32.2842 2.17555C32.2208 2.12993 31.4725 1.66928 30.6214 1.15172C29.7718 0.63279 29.0266 0.180314 28.9683 0.144791C28.9101 0.109383 28.8418 0.0696017 28.8157 0.0565022C28.7896 0.0433893 28.7373 0.0252211 28.6992 0.0160501C28.659 0.00696779 28.5967 -0.000312136 28.5566 1.03133e-05L28.5556 0.00141667ZM27.5828 10.6901C27.5942 10.6901 27.7178 10.7053 27.8575 10.724C27.9973 10.7426 28.2136 10.7755 28.3384 10.7969C28.4631 10.8182 28.6764 10.8587 28.8123 10.8868C28.9484 10.9148 29.181 10.968 29.3293 11.0049C29.4777 11.0419 29.7046 11.1024 29.8336 11.1394C29.9626 11.1765 30.2014 11.2513 30.3641 11.3057C30.5268 11.3601 30.7622 11.4433 30.8869 11.4906C31.0115 11.5378 31.2075 11.6161 31.3225 11.6644C31.4373 11.7128 31.6152 11.7905 31.7179 11.8372C31.8205 11.884 32.031 11.9857 32.1856 12.0633C32.3401 12.1408 32.5576 12.2549 32.669 12.3166C32.7803 12.3785 32.9655 12.4852 33.0806 12.5541C33.1958 12.6227 33.2849 12.6807 33.2789 12.6827C33.2727 12.6848 33.1983 12.6811 33.1136 12.6743C33.0288 12.6677 32.8664 12.6622 32.7529 12.6622C32.6393 12.6622 32.4788 12.6675 32.3962 12.6739C32.3135 12.6804 32.163 12.6975 32.0617 12.7121C31.9604 12.7266 31.7944 12.7571 31.6931 12.7797C31.5918 12.8025 31.4361 12.8437 31.3469 12.8713C31.2579 12.899 31.1172 12.947 31.0342 12.9782C30.9513 13.0092 30.8137 13.0666 30.7285 13.1056C30.6432 13.1447 30.5075 13.2127 30.4269 13.257C30.3463 13.3012 30.2347 13.367 30.179 13.4031L30.0776 13.4688L29.8719 13.3957C29.7588 13.3554 29.5606 13.2901 29.4317 13.2507C29.3027 13.2111 29.1031 13.1536 28.9881 13.1228C28.8732 13.0921 28.6769 13.0441 28.5521 13.0162C28.4272 12.9883 28.228 12.9475 28.1093 12.9257C27.9904 12.9039 27.7896 12.8711 27.663 12.8527C27.5362 12.8344 27.3346 12.8095 27.2148 12.7973C27.0951 12.7851 26.9091 12.7695 26.8016 12.7626C26.6942 12.7557 26.5621 12.7467 26.5082 12.7425L26.4103 12.735L26.836 11.9787C27.0701 11.5627 27.3293 11.1025 27.4119 10.9562C27.5232 10.7594 27.5675 10.6901 27.5828 10.6901ZM26.1594 13.9022C26.3068 13.9049 26.5128 13.912 26.6172 13.9181C26.7217 13.9243 26.9076 13.9392 27.0305 13.9514C27.1533 13.9636 27.3468 13.9865 27.4604 14.0021C27.5741 14.0178 27.7613 14.048 27.8765 14.0692C27.9918 14.0903 28.1677 14.1259 28.2674 14.148C28.3671 14.1702 28.5241 14.2078 28.6164 14.2314C28.7085 14.2552 28.7956 14.2789 28.81 14.2843C28.8331 14.2928 28.7442 14.3552 28.0646 14.8073C27.4612 15.2086 27.2803 15.3343 27.2344 15.3842C27.2021 15.4191 27.1619 15.4762 27.145 15.5109C27.1281 15.5455 27.1068 15.6031 27.0975 15.6388C27.0883 15.6745 27.0807 15.7368 27.0807 15.7774C27.0807 15.8179 27.0884 15.8808 27.0978 15.917C27.1071 15.9532 27.1308 16.0135 27.1504 16.051C27.1731 16.0945 27.2224 16.1558 27.2868 16.2205C27.3423 16.2762 27.6793 16.6017 28.0355 16.9438C28.3918 17.2858 28.9333 17.8061 29.239 18.0999C29.5445 18.3937 29.8511 18.6813 29.9202 18.7391C29.9893 18.797 30.0936 18.8795 30.1518 18.9225C30.2103 18.9655 30.3007 19.0285 30.3529 19.0623C30.4051 19.0963 30.4974 19.1532 30.5579 19.1888C30.6184 19.2245 30.7541 19.2955 30.8594 19.3465C30.9648 19.3973 31.1238 19.467 31.2128 19.5011C31.3019 19.5353 31.4425 19.5837 31.5255 19.6088C31.6085 19.6339 31.7465 19.6698 31.8324 19.6888C31.9183 19.7076 31.9905 19.7251 31.9929 19.7274C31.9953 19.7299 31.9655 19.7886 31.9269 19.8583C31.8882 19.9279 31.8092 20.0647 31.7511 20.1623C31.6931 20.2598 31.5846 20.4312 31.51 20.5433C31.4354 20.6552 31.3216 20.8194 31.2572 20.9079C31.1929 20.9964 31.0757 21.1502 30.9967 21.2496C30.9177 21.349 30.8097 21.4749 30.7566 21.5293C30.7034 21.5838 30.615 21.6663 30.56 21.7129C30.505 21.7596 30.412 21.8333 30.3534 21.8768C30.2948 21.9202 30.1836 21.9972 30.1064 22.048C30.0292 22.0986 29.8817 22.1886 29.7786 22.248C29.6755 22.3073 29.4907 22.4063 29.3677 22.4681C29.2448 22.5298 29.0709 22.6132 28.9813 22.6535C28.8917 22.6937 28.7579 22.7518 28.6838 22.7825C28.6098 22.8132 28.4764 22.8662 28.3873 22.9002C28.2983 22.9343 28.1299 22.9947 28.0132 23.0344C27.8965 23.074 27.7247 23.1287 27.6316 23.1558C27.5384 23.1829 27.3901 23.2228 27.3021 23.2445C27.2141 23.2661 27.0717 23.2966 26.9857 23.3123C26.8998 23.3279 26.7867 23.3462 26.7345 23.3528C26.68 23.3599 26.3292 23.3676 25.9108 23.371C25.4358 23.3749 25.0859 23.3726 24.9057 23.364C24.7537 23.3569 24.5565 23.3437 24.4674 23.3349C24.3784 23.3259 24.2652 23.3133 24.2161 23.3068C24.167 23.3003 24.0743 23.285 24.0103 23.2728C23.9462 23.2606 23.8532 23.2403 23.8037 23.2277C23.7541 23.2151 23.6683 23.1893 23.6131 23.1704C23.5578 23.1514 23.4674 23.1136 23.4122 23.0862C23.357 23.0589 23.2768 23.0131 23.2339 22.9845C23.191 22.9559 23.1215 22.8999 23.0792 22.8599C23.0371 22.82 22.9709 22.7449 22.9322 22.6932C22.8934 22.6414 22.8363 22.5503 22.8053 22.4908C22.7743 22.4313 22.7259 22.3236 22.6978 22.2515C22.6697 22.1793 22.6264 22.0492 22.6016 21.9625C22.5768 21.8758 22.5395 21.7231 22.5187 21.6232C22.4981 21.5233 22.4682 21.3583 22.4525 21.2567C22.4367 21.1549 22.4063 20.9141 22.3845 20.7215C22.3628 20.5288 22.3322 20.2944 22.3164 20.2005C22.3006 20.1066 22.2681 19.9515 22.2441 19.8561C22.2202 19.7605 22.1849 19.6344 22.1658 19.5759C22.1467 19.5173 22.1133 19.4241 22.0917 19.3686C22.07 19.3138 22.0202 19.2048 21.981 19.127C21.9416 19.0492 21.8743 18.9325 21.8313 18.8676C21.7884 18.8027 21.706 18.6949 21.6484 18.628C21.5909 18.5613 21.4987 18.467 21.4437 18.4188C21.3886 18.3707 21.3055 18.3025 21.2591 18.2675C21.2123 18.2326 21.1225 18.1715 21.059 18.1316C20.9958 18.0921 20.868 18.0202 20.775 17.972C20.6822 17.9241 20.539 17.8539 20.4566 17.8162C20.3745 17.7786 20.2017 17.7026 20.0728 17.6474C19.9439 17.5921 19.7227 17.49 19.5813 17.4206C19.4401 17.3513 19.2591 17.258 19.1794 17.2133C19.0994 17.1685 18.947 17.078 18.8405 17.0123L18.6469 16.893L18.7164 16.8285C18.7546 16.7931 18.7929 16.7641 18.8015 16.7641C18.8101 16.7641 18.8659 16.7787 18.9256 16.7965C18.9853 16.8142 19.112 16.8469 19.2072 16.869C19.3025 16.8911 19.4581 16.9219 19.5534 16.9372C19.6487 16.9527 19.8069 16.9739 19.9052 16.9842C20.0311 16.9975 20.1845 17.0031 20.4245 17.0032C20.6663 17.0034 20.8218 16.9978 20.9606 16.9841C21.0681 16.9733 21.2239 16.9547 21.3068 16.9427C21.3898 16.9306 21.5229 16.9078 21.6027 16.892C21.6826 16.8762 21.818 16.8458 21.9038 16.8245C21.9896 16.8032 22.1102 16.7711 22.1718 16.753C22.2335 16.735 22.3588 16.6946 22.4501 16.6634C22.5416 16.6321 22.6924 16.576 22.7852 16.5385C22.8781 16.5011 23.0596 16.419 23.1886 16.3558C23.3175 16.2927 23.4985 16.1967 23.5906 16.1425C23.6827 16.0882 23.8255 15.9988 23.9079 15.9438C23.9902 15.8888 24.1033 15.8097 24.1592 15.7681C24.215 15.7264 24.3309 15.6348 24.4167 15.5643C24.5026 15.4939 24.666 15.3431 24.7801 15.229C24.8942 15.1149 25.0356 14.9637 25.0942 14.8928C25.153 14.822 25.2387 14.7136 25.2849 14.6519C25.331 14.5903 25.4066 14.4818 25.4529 14.411C25.4993 14.3402 25.5846 14.1989 25.6426 14.0973L25.7479 13.9124L25.8196 13.9052C25.8589 13.9013 26.0118 13.9002 26.1592 13.9028L26.1594 13.9022ZM11.7049 19.5663C11.7767 19.5655 11.8934 19.5724 11.9642 19.5817C12.035 19.591 12.1521 19.614 12.2244 19.6327C12.2967 19.6513 12.4203 19.6924 12.4989 19.7239C12.5775 19.7554 12.6956 19.8111 12.7613 19.8476C12.827 19.8843 12.9232 19.9423 12.9749 19.9768C13.0266 20.0112 13.1196 20.0795 13.1815 20.1284C13.2433 20.1774 13.3797 20.3038 13.4843 20.4093C13.589 20.5149 13.7187 20.6567 13.7725 20.7245C13.8263 20.7923 13.9161 20.9122 13.972 20.9911C14.0278 21.0699 14.0997 21.1583 14.1316 21.1875C14.1636 21.2169 14.2219 21.2566 14.2612 21.2757C14.3005 21.2949 14.3593 21.316 14.3919 21.3229C14.4244 21.3296 14.4847 21.3351 14.5259 21.3351C14.567 21.335 14.6277 21.3277 14.6607 21.319C14.6936 21.3101 14.7477 21.2896 14.7807 21.2735C14.8138 21.2572 14.8684 21.2186 14.9021 21.1876C14.9358 21.1567 15.0044 21.0732 15.0543 21.0021C15.1044 20.9309 15.1958 20.809 15.2578 20.7314C15.3197 20.6536 15.4509 20.5088 15.5495 20.4097C15.648 20.3104 15.7808 20.1878 15.8445 20.1373C15.9082 20.0867 16.0037 20.0163 16.0566 19.9807C16.1097 19.9452 16.1999 19.8898 16.2572 19.8575C16.3145 19.8252 16.4063 19.779 16.4613 19.7548C16.5161 19.7305 16.6131 19.6932 16.6769 19.6718C16.7407 19.6504 16.8423 19.6228 16.9028 19.6105C16.9634 19.5981 17.0582 19.5828 17.1135 19.5765C17.1687 19.5702 17.2642 19.565 17.3256 19.565C17.3871 19.565 17.4826 19.5702 17.5378 19.5765C17.5931 19.5829 17.6863 19.5977 17.7449 19.6097C17.8034 19.6217 17.9065 19.6496 17.9738 19.6718C18.0412 19.694 18.1616 19.744 18.2414 19.783C18.3213 19.822 18.4469 19.8941 18.5206 19.9433C18.5943 19.9925 18.7099 20.0806 18.7775 20.1392C18.845 20.1977 18.9333 20.2827 18.9735 20.3282C19.0137 20.3736 19.0746 20.4461 19.1089 20.4892C19.1432 20.5324 19.1989 20.6105 19.2327 20.6629C19.2664 20.7152 19.317 20.801 19.345 20.8534C19.3731 20.9057 19.4138 20.9904 19.4355 21.0415C19.4573 21.0926 19.4905 21.1808 19.5095 21.2376C19.5285 21.2943 19.556 21.3912 19.5705 21.4529C19.585 21.5145 19.6045 21.6229 19.6136 21.6938C19.6229 21.7646 19.6334 21.868 19.6371 21.9235C19.6408 21.979 19.6387 22.0974 19.6322 22.1868C19.6258 22.2761 19.6103 22.4111 19.5977 22.4867C19.5851 22.5622 19.5597 22.6857 19.5414 22.7612C19.5231 22.8366 19.4955 22.9387 19.4802 22.988C19.4648 23.0373 19.4317 23.1331 19.4067 23.2009C19.3816 23.2687 19.3217 23.4063 19.2736 23.5068C19.2256 23.6072 19.1601 23.7358 19.1282 23.7925C19.0963 23.8492 19.0135 23.9813 18.944 24.0861C18.8747 24.1908 18.7712 24.3365 18.7143 24.4098C18.6573 24.4831 18.5491 24.6149 18.4738 24.7028C18.3987 24.7906 18.2562 24.946 18.1572 25.048C18.0584 25.1501 17.8886 25.3164 17.78 25.4176C17.6714 25.5187 17.4971 25.6763 17.3927 25.7677C17.2883 25.8591 17.0571 26.0554 16.8789 26.2039C16.7008 26.3524 16.4521 26.5564 16.3261 26.6573C16.2003 26.7581 16.0256 26.9007 15.9382 26.974C15.8507 27.0476 15.705 27.1735 15.6143 27.254C15.5236 27.3344 15.3566 27.4874 15.2428 27.5938C15.1293 27.7004 14.9195 27.9052 14.7768 28.0492L14.5174 28.3111L14.2519 28.0437C14.1059 27.8967 13.8885 27.6845 13.7687 27.5723C13.6489 27.46 13.4705 27.2976 13.3722 27.2113C13.2739 27.125 13.1332 27.0039 13.0595 26.9422C12.9858 26.8803 12.8501 26.7698 12.7579 26.6964C12.6658 26.6232 12.4925 26.4824 12.3727 26.3838C12.2529 26.2851 12.0369 26.1043 11.8924 25.9817C11.7482 25.8592 11.5371 25.6751 11.4234 25.5727C11.3098 25.4703 11.106 25.2754 10.9707 25.1397C10.8353 25.0039 10.6594 24.8172 10.5798 24.7248C10.5002 24.6324 10.3919 24.5013 10.3392 24.4335C10.2864 24.3657 10.2026 24.2522 10.153 24.1814C10.1033 24.1104 10.0215 23.9844 9.97136 23.9012C9.92111 23.818 9.84505 23.6803 9.80239 23.595C9.75973 23.5098 9.7002 23.3799 9.67004 23.3063C9.64001 23.2328 9.59534 23.1109 9.57088 23.0355C9.54654 22.9601 9.51403 22.8479 9.49873 22.7863C9.48344 22.7247 9.46299 22.6339 9.4535 22.5846C9.44388 22.5353 9.42793 22.4345 9.41788 22.3605C9.40682 22.2788 9.39978 22.1491 9.39978 22.0299C9.39978 21.922 9.40548 21.7909 9.4125 21.7386C9.41943 21.6862 9.4355 21.5904 9.44812 21.5257C9.46074 21.461 9.49558 21.3334 9.5254 21.2423C9.55522 21.1512 9.61239 21.0095 9.65249 20.9275C9.69247 20.8455 9.7625 20.7225 9.80795 20.6543C9.8534 20.586 9.92265 20.4907 9.96173 20.4424C10.0009 20.3942 10.0756 20.3119 10.1279 20.2593C10.1801 20.2068 10.2706 20.1254 10.3289 20.0785C10.3873 20.0315 10.4827 19.9621 10.5411 19.9241C10.5995 19.8862 10.7125 19.8229 10.7924 19.7834C10.8722 19.7441 10.9914 19.694 11.0572 19.6722C11.123 19.6503 11.2285 19.6222 11.2917 19.6095C11.3549 19.597 11.4444 19.5824 11.4904 19.5772C11.5365 19.572 11.6329 19.5671 11.7049 19.5663ZM19.5331 25.257C19.5372 25.2569 19.6077 25.2839 19.6898 25.3169C19.7719 25.35 19.8849 25.3984 19.9409 25.4246C19.997 25.4507 20.0455 25.4804 20.0487 25.4905C20.0518 25.5007 20.0829 25.5897 20.1176 25.6883C20.1523 25.7869 20.2026 25.9432 20.2291 26.0356C20.2556 26.1281 20.2951 26.2844 20.3166 26.383C20.3382 26.4816 20.3662 26.6278 20.3788 26.7079C20.3914 26.788 20.4092 26.9191 20.4185 26.9993C20.4276 27.0794 20.4407 27.2458 20.4474 27.369C20.4542 27.4923 20.4567 27.6789 20.4527 27.7836C20.4489 27.8884 20.4409 28.0346 20.4349 28.1086C20.4288 28.1825 20.414 28.3237 20.4019 28.4223C20.3898 28.5209 20.3746 28.6369 20.368 28.68C20.3615 28.7232 20.3437 28.8232 20.3286 28.9023C20.3134 28.9814 20.2839 29.1126 20.2629 29.1937C20.242 29.2748 20.2016 29.4084 20.1731 29.4905C20.1446 29.5726 20.097 29.6936 20.0673 29.7594C20.0377 29.8252 19.9891 29.923 19.9593 29.9768C19.9295 30.0306 19.8727 30.1213 19.8328 30.1785C19.7931 30.2356 19.7026 30.3408 19.6318 30.4122C19.5385 30.5066 19.4588 30.5731 19.3413 30.6549C19.2523 30.7169 19.0487 30.8529 18.889 30.9571C18.7293 31.0613 18.4885 31.2166 18.354 31.3021L18.1092 31.4576L18.0646 31.4079C18.04 31.3804 17.9549 31.2798 17.8754 31.1843C17.7958 31.0887 17.6573 30.9126 17.5675 30.7927C17.4777 30.6728 17.3285 30.461 17.2361 30.3221C17.1436 30.1832 17.0197 29.9887 16.9609 29.8901C16.9021 29.7915 16.8107 29.6316 16.7579 29.5348C16.7049 29.4381 16.6238 29.283 16.5775 29.1902C16.5313 29.0976 16.4587 28.9447 16.4162 28.8508C16.3738 28.7568 16.306 28.6002 16.2656 28.5027C16.225 28.4051 16.192 28.319 16.192 28.3114C16.192 28.3037 16.2445 28.2511 16.3086 28.1947C16.3728 28.1382 16.5624 27.9772 16.7302 27.8369C16.8979 27.6966 17.098 27.5316 17.1747 27.4705C17.2516 27.4092 17.3621 27.3211 17.4204 27.2748C17.4788 27.2286 17.6145 27.1175 17.722 27.0281C17.8295 26.9387 18.0054 26.7866 18.1128 26.6903C18.2204 26.5938 18.4149 26.4133 18.5453 26.289C18.6757 26.1647 18.8837 25.956 19.0076 25.8251C19.1316 25.6944 19.2989 25.5131 19.3793 25.4222C19.4598 25.3313 19.529 25.2571 19.5331 25.257ZM28.1337 29.0904C28.1514 29.1297 28.1986 29.2401 28.2384 29.3356C28.2784 29.4311 28.3482 29.6203 28.3936 29.7558C28.439 29.8914 28.4887 30.0582 28.5039 30.1263C28.5192 30.1944 28.5396 30.3029 28.5492 30.3672C28.559 30.4315 28.5714 30.58 28.5771 30.6971C28.5852 30.8686 28.5928 30.9307 28.616 31.0164C28.6319 31.0749 28.667 31.1687 28.6941 31.2247C28.7211 31.2806 28.7728 31.3664 28.809 31.4152C28.8451 31.464 28.9058 31.5326 28.9439 31.5679C28.988 31.6087 29.0505 31.6504 29.1161 31.6829C29.1729 31.7109 29.2594 31.7448 29.3085 31.7583C29.388 31.7801 29.4259 31.7827 29.6492 31.783C29.8313 31.7832 29.9357 31.7779 30.0289 31.7639C30.0996 31.7533 30.2377 31.7291 30.336 31.7102C30.4343 31.6914 30.611 31.6538 30.7285 31.6265C30.8462 31.5993 31.1509 31.5243 31.4055 31.46C31.6603 31.3956 31.9686 31.3225 32.0907 31.2975C32.2128 31.2726 32.3805 31.2439 32.4635 31.2338C32.5686 31.2209 32.6582 31.2172 32.7594 31.2216C32.8641 31.226 32.9295 31.2352 32.994 31.2541C33.0433 31.2687 33.1183 31.2999 33.1608 31.3238C33.2034 31.3477 33.2799 31.4075 33.3315 31.4571C33.3829 31.5067 33.4605 31.5939 33.5039 31.6511L33.5827 31.7551L33.5136 31.8331C33.4756 31.8761 33.3456 32.0043 33.2248 32.1182C33.1039 32.2321 32.9524 32.3714 32.8878 32.428C32.8234 32.4846 32.6978 32.5901 32.6087 32.6624C32.5196 32.7347 32.3764 32.8467 32.2904 32.9113C32.2044 32.9759 32.0762 33.0694 32.0056 33.1194C31.935 33.1693 31.8118 33.2528 31.732 33.3051C31.6521 33.3574 31.4989 33.4531 31.3914 33.5178C31.2839 33.5825 31.1105 33.6825 31.0061 33.7398C30.9017 33.7973 30.7194 33.8914 30.6009 33.9489C30.4825 34.0065 30.3176 34.0838 30.2343 34.1208C30.151 34.1578 29.9765 34.2303 29.8465 34.282C29.7164 34.3337 29.4984 34.414 29.362 34.4605C29.2255 34.507 29.017 34.5729 28.8985 34.6069C28.7801 34.6408 28.5802 34.6937 28.4542 34.7243C28.3284 34.7549 28.1223 34.8 27.9963 34.8247C27.8705 34.8492 27.6798 34.8825 27.5727 34.8985C27.4658 34.9146 27.2949 34.9374 27.193 34.9494C27.0913 34.9613 26.905 34.9799 26.779 34.9906C26.601 35.006 26.4272 35.0104 25.9973 35.0107C25.5542 35.0109 25.3958 35.0069 25.1988 34.9904C25.0637 34.979 24.9355 34.9662 24.914 34.9618L24.8749 34.954L24.8646 34.8873C24.8589 34.8506 24.8541 34.6793 24.8537 34.5068L24.8531 34.193L24.8787 34.0754C24.8929 34.0106 24.924 33.9072 24.9482 33.8453C24.9723 33.7835 25.0182 33.6927 25.0501 33.6436C25.0822 33.5945 25.1488 33.5138 25.1982 33.4642C25.2477 33.4147 25.3309 33.3458 25.383 33.3113C25.4353 33.2768 25.5383 33.2169 25.612 33.1784C25.6857 33.14 25.7862 33.0819 25.8353 33.0495C25.8845 33.0173 25.9552 32.9663 25.9924 32.9364C26.0295 32.9064 26.0949 32.8509 26.1375 32.8128C26.1802 32.7748 26.2618 32.691 26.3191 32.6267C26.3763 32.5623 26.4611 32.4599 26.5075 32.399C26.5539 32.338 26.6216 32.2439 26.658 32.1899C26.6944 32.1358 26.7585 32.0343 26.8006 31.9645C26.8426 31.8946 26.9184 31.7604 26.9689 31.6663C27.0195 31.572 27.1035 31.4036 27.1556 31.2921C27.2079 31.1805 27.2882 31.0009 27.3341 30.8931C27.3801 30.7852 27.4529 30.6087 27.496 30.5009C27.5391 30.393 27.6385 30.1409 27.7168 29.9407C27.7952 29.7403 27.8899 29.5027 27.9273 29.4124C27.9647 29.3222 28.0192 29.1967 28.0484 29.1335L28.1015 29.0186L28.1337 29.0904Z" fill="white"/>
</svg>
