<svg width="157" height="84" viewBox="0 0 157 84" fill="none" xmlns="http://www.w3.org/2000/svg">
<path d="M0.73818 81.6678V76.8201L0 76.7364V76.4092H2.10799V76.7364L1.36981 76.8201V81.6678L2.10799 81.7439V82.0635H0V81.7363L0.73818 81.6678Z" fill="#6CAD55"/>
<path d="M3.38195 78.3414L2.79597 78.2121V77.8696L3.76245 77.7478H3.78528L3.92987 77.8696V78.2044L3.92227 78.3947C4.10998 78.2324 4.35858 78.0827 4.66805 77.9457C4.97751 77.8087 5.26415 77.7402 5.52797 77.7402C5.85268 77.7402 6.10127 77.8037 6.27375 77.9305C6.45132 78.0522 6.57308 78.2425 6.63903 78.5012C6.71005 78.7549 6.74556 79.0973 6.74556 79.5286V81.6822L7.31632 81.7355V82.0627H5.60406V81.7355L6.12917 81.6822V79.521C6.12917 79.2013 6.10633 78.9502 6.06067 78.7676C6.02009 78.5849 5.93638 78.4479 5.80954 78.3566C5.68778 78.2602 5.50769 78.212 5.26925 78.212C5.06631 78.212 4.84562 78.2627 4.60717 78.3642C4.3738 78.4657 4.17087 78.5849 3.99837 78.7219V81.6746L4.5539 81.7354V82.0627H2.87209V81.7354L3.38196 81.6746L3.38195 78.3414Z" fill="#6CAD55"/>
<path d="M7.86955 79.9258C7.86955 79.4844 7.96088 79.0963 8.14352 78.7615C8.33123 78.4267 8.57475 78.1705 8.87406 77.9929C9.17847 77.8153 9.49555 77.7266 9.82531 77.7266C10.4645 77.7266 10.9364 77.9346 11.2408 78.3506C11.5502 78.7666 11.705 79.2993 11.705 79.9487C11.705 80.3901 11.6111 80.7782 11.4234 81.113C11.2408 81.4478 10.9972 81.7041 10.6928 81.8816C10.3935 82.0592 10.079 82.148 9.74919 82.148C9.10996 82.148 8.6356 81.9399 8.32612 81.5239C8.02171 81.1079 7.86955 80.5752 7.86955 79.9258ZM9.78728 81.7522C10.1779 81.7522 10.4798 81.6026 10.6929 81.3032C10.906 81.0039 11.0125 80.5676 11.0125 79.9943C11.0125 79.4464 10.9136 78.9974 10.7157 78.6473C10.5179 78.2973 10.2109 78.1222 9.79493 78.1222C9.40427 78.1222 9.09988 78.2719 8.88173 78.5712C8.66864 78.8706 8.5621 79.3069 8.5621 79.8802C8.5621 80.4332 8.66103 80.8847 8.85889 81.2347C9.06182 81.5797 9.37126 81.7522 9.78728 81.7522Z" fill="#6CAD55"/>
<path d="M12.0728 78.1528V77.8408H13.6861V78.1528L13.123 78.2517L13.9373 80.5119L14.3102 81.5926L14.6298 80.55L15.4441 78.2517L14.9114 78.1528V77.8408H16.3649V78.1528L15.9768 78.2517L14.4776 82.1253H13.9677L12.4305 78.2517L12.0728 78.1528Z" fill="#6CAD55"/>
<path d="M16.758 80.9511C16.758 80.459 17.0016 80.1039 17.4886 79.8857C17.9756 79.6625 18.5819 79.5432 19.3074 79.528V79.2921C19.3074 79.0334 19.2795 78.8304 19.2237 78.6833C19.173 78.5311 19.0816 78.422 18.9497 78.3561C18.8178 78.2851 18.6327 78.2496 18.3942 78.2496C17.9782 78.2496 17.5317 78.384 17.0549 78.6529L16.8874 78.318C16.9432 78.2673 17.0599 78.1963 17.2375 78.1049C17.4201 78.0136 17.6281 77.9324 17.8615 77.8614C18.0949 77.7904 18.3181 77.7549 18.5312 77.7549C18.8762 77.7549 19.1476 77.8031 19.3455 77.8995C19.5484 77.9959 19.693 78.1506 19.7792 78.3637C19.8706 78.5768 19.9162 78.8634 19.9162 79.2236V81.7349H20.3881V82.0165C20.109 82.0926 19.8731 82.1306 19.6803 82.1306C19.5586 82.1306 19.4749 82.1103 19.4292 82.0697C19.3835 82.0342 19.3607 81.948 19.3607 81.811V81.5294C19.1781 81.6918 18.9777 81.8364 18.7595 81.9632C18.5464 82.085 18.3029 82.1459 18.0289 82.1459C17.6637 82.1459 17.3593 82.0444 17.1158 81.8414C16.8773 81.6385 16.758 81.3418 16.758 80.9511ZM18.2572 81.6969C18.3993 81.6969 18.5692 81.6512 18.7671 81.5599C18.965 81.4686 19.1451 81.3595 19.3074 81.2327V79.8857C18.6935 79.8908 18.2268 79.9821 17.9071 80.1597C17.5926 80.3372 17.4353 80.5757 17.4353 80.875C17.4353 81.1642 17.5089 81.3747 17.656 81.5066C17.8031 81.6335 18.0035 81.6969 18.2572 81.6969Z" fill="#6CAD55"/>
<path d="M21.4278 78.3414L20.8419 78.2121V77.8696L21.8083 77.7478H21.8312L21.9757 77.8696V78.2044L21.9682 78.3947C22.1559 78.2324 22.4045 78.0827 22.7139 77.9457C23.0234 77.8087 23.31 77.7402 23.5738 77.7402C23.8985 77.7402 24.1471 77.8037 24.3196 77.9305C24.4972 78.0522 24.619 78.2425 24.6849 78.5012C24.7559 78.7549 24.7914 79.0973 24.7914 79.5286V81.6822L25.3622 81.7355V82.0627H23.6499V81.7355L24.175 81.6822V79.521C24.175 79.2013 24.1522 78.9502 24.1066 78.7676C24.066 78.5849 23.9823 78.4479 23.8554 78.3566C23.7337 78.2602 23.5536 78.212 23.3151 78.212C23.1122 78.212 22.8915 78.2627 22.653 78.3642C22.4197 78.4657 22.2167 78.5849 22.0442 78.7219V81.6746L22.5998 81.7354V82.0627H20.918V81.7354L21.4278 81.6746L21.4278 78.3414Z" fill="#6CAD55"/>
<path d="M27.5863 82.1464C27.287 82.1464 27.0105 82.0703 26.7568 81.9181C26.5031 81.7608 26.3002 81.5249 26.148 81.2103C25.9958 80.8958 25.9197 80.5102 25.9197 80.0536C25.9197 79.6173 26.0085 79.2241 26.1861 78.8741C26.3636 78.5189 26.6148 78.2399 26.9395 78.037C27.2692 77.829 27.6523 77.725 28.0886 77.725C28.3676 77.725 28.6365 77.7554 28.8952 77.8163V76.3095L28.1038 76.2334V75.9594L29.3518 75.8301H29.367L29.5116 75.9366V81.7201H29.9758V82.0169C29.9505 82.022 29.8642 82.0423 29.7171 82.0778C29.57 82.1133 29.4127 82.1311 29.2453 82.1311C29.1286 82.1311 29.0449 82.1108 28.9941 82.0702C28.9485 82.0296 28.9256 81.9408 28.9256 81.8038V81.5375C28.7684 81.71 28.5756 81.8546 28.3473 81.9713C28.1241 82.0879 27.8704 82.1464 27.5863 82.1464ZM27.8374 81.6669C28.0556 81.6669 28.2611 81.6162 28.4538 81.5147C28.6517 81.4082 28.7988 81.2915 28.8952 81.1647V78.3642C28.8546 78.2932 28.7481 78.2323 28.5756 78.1816C28.4082 78.1309 28.2281 78.1055 28.0353 78.1055C27.599 78.1055 27.2489 78.2628 26.9851 78.5773C26.7213 78.8868 26.5894 79.3586 26.5894 79.9928C26.5894 80.561 26.7061 80.9821 26.9394 81.256C27.1728 81.53 27.4722 81.6669 27.8374 81.6669Z" fill="#6CAD55"/>
<path d="M30.61 79.9258C30.61 79.4844 30.7013 79.0963 30.884 78.7615C31.0717 78.4267 31.3152 78.1705 31.6145 77.9929C31.9189 77.8153 32.236 77.7266 32.5658 77.7266C33.205 77.7266 33.6768 77.9346 33.9812 78.3506C34.2907 78.7666 34.4454 79.2993 34.4454 79.9487C34.4454 80.3901 34.3516 80.7782 34.1638 81.113C33.9812 81.4478 33.7377 81.7041 33.4333 81.8816C33.134 82.0592 32.8194 82.148 32.4896 82.148C31.8504 82.148 31.376 81.9399 31.0666 81.5239C30.7622 81.1079 30.61 80.5752 30.61 79.9258ZM32.5277 81.7522C32.9184 81.7522 33.2203 81.6026 33.4333 81.3032C33.6464 81.0039 33.753 80.5676 33.753 79.9943C33.753 79.4464 33.654 78.9974 33.4562 78.6473C33.2583 78.2973 32.9514 78.1222 32.5354 78.1222C32.1447 78.1222 31.8403 78.2719 31.6222 78.5712C31.4091 78.8706 31.3025 79.3069 31.3025 79.8802C31.3025 80.4332 31.4015 80.8847 31.5993 81.2347C31.8023 81.5797 32.1117 81.7522 32.5277 81.7522Z" fill="#6CAD55"/>
<path d="M41.3826 79.7955C41.3826 80.2318 41.2938 80.63 41.1163 80.9902C40.9387 81.3454 40.685 81.6269 40.3552 81.8349C40.0305 82.0429 39.6576 82.1469 39.2366 82.1469C39.0945 82.1469 38.9448 82.1342 38.7876 82.1089C38.6303 82.0886 38.5009 82.0607 38.3995 82.0252L38.4147 82.672V83.4939L39.2594 83.57V83.9048H37.2199V83.57L37.8059 83.4939V78.342L37.2123 78.2126V77.8702L38.1864 77.7484H38.2016L38.3386 77.8702V78.3344C38.5009 78.167 38.6988 78.0249 38.9322 77.9082C39.1655 77.7865 39.4268 77.7256 39.716 77.7256C40.0103 77.7256 40.2842 77.7992 40.5379 77.9463C40.7915 78.0934 40.9945 78.3217 41.1467 78.6312C41.3039 78.9406 41.3826 79.3287 41.3826 79.7955ZM39.4649 78.1898C39.2467 78.1898 39.0438 78.2354 38.8561 78.3267C38.6684 78.4181 38.5212 78.5195 38.4147 78.6311V81.5305C38.4553 81.5965 38.5567 81.6574 38.7191 81.7132C38.8865 81.7639 39.0692 81.7893 39.267 81.7893C39.7033 81.7893 40.0534 81.6295 40.3172 81.3099C40.5861 80.9852 40.7205 80.5083 40.7205 79.8792C40.7205 79.316 40.6013 78.895 40.3628 78.6159C40.1295 78.3318 39.8301 78.1898 39.4649 78.1898Z" fill="#6CAD55"/>
<path d="M42.1146 80.9511C42.1146 80.459 42.3581 80.1039 42.8451 79.8857C43.3322 79.6625 43.9384 79.5432 44.6639 79.528V79.2921C44.6639 79.0334 44.636 78.8304 44.5802 78.6833C44.5295 78.5311 44.4382 78.422 44.3063 78.3561C44.1744 78.2851 43.9892 78.2496 43.7508 78.2496C43.3347 78.2496 42.8883 78.384 42.4114 78.6529L42.244 78.318C42.2998 78.2673 42.4165 78.1963 42.594 78.1049C42.7767 78.0136 42.9847 77.9324 43.2181 77.8614C43.4514 77.7904 43.6747 77.7549 43.8877 77.7549C44.2327 77.7549 44.5041 77.8031 44.702 77.8995C44.905 77.9959 45.0495 78.1506 45.1358 78.3637C45.2271 78.5768 45.2728 78.8634 45.2728 79.2236V81.7349H45.7446V82.0165C45.4656 82.0926 45.2297 82.1306 45.0369 82.1306C44.9151 82.1306 44.8314 82.1103 44.7858 82.0697C44.7401 82.0342 44.7173 81.948 44.7173 81.811V81.5294C44.5346 81.6918 44.3342 81.8364 44.1161 81.9632C43.903 82.085 43.6595 82.1459 43.3855 82.1459C43.0202 82.1459 42.7158 82.0444 42.4723 81.8414C42.2339 81.6385 42.1146 81.3418 42.1146 80.9511ZM43.6138 81.6969C43.7558 81.6969 43.9258 81.6512 44.1237 81.5599C44.3215 81.4686 44.5016 81.3595 44.6639 81.2327V79.8857C44.0501 79.8908 43.5833 79.9821 43.2637 80.1597C42.9491 80.3372 42.7919 80.5757 42.7919 80.875C42.7919 81.1642 42.8654 81.3747 43.0126 81.5066C43.1597 81.6335 43.3601 81.6969 43.6138 81.6969Z" fill="#6CAD55"/>
<path d="M46.3366 81.7446L46.9454 81.6989V78.343L46.3594 78.2136V77.8712L47.3259 77.7494H47.3411L47.4857 77.8712V77.9929L47.4705 78.5713H47.4857C47.4959 78.5611 47.5618 78.485 47.6836 78.343C47.8104 78.1959 47.9956 78.0563 48.2391 77.9244C48.4877 77.7925 48.7363 77.7266 48.9849 77.7266C49.0661 77.7266 49.1422 77.7367 49.2132 77.757V78.4267C49.1929 78.4115 49.1472 78.3963 49.0762 78.381C49.0103 78.3658 48.9392 78.3582 48.8631 78.3582C48.574 78.3582 48.3279 78.4013 48.125 78.4876C47.922 78.5738 47.7343 78.6804 47.5618 78.8072V81.6914L48.5739 81.7523V82.0643H46.3366L46.3366 81.7446Z" fill="#6CAD55"/>
<path d="M49.7678 80.9511C49.7678 80.459 50.0113 80.1039 50.4983 79.8857C50.9853 79.6625 51.5916 79.5432 52.3171 79.528V79.2921C52.3171 79.0334 52.2892 78.8304 52.2334 78.6833C52.1827 78.5311 52.0914 78.422 51.9594 78.3561C51.8275 78.2851 51.6424 78.2496 51.4039 78.2496C50.9879 78.2496 50.5415 78.384 50.0646 78.6529L49.8972 78.318C49.953 78.2673 50.0696 78.1963 50.2472 78.1049C50.4298 78.0136 50.6379 77.9324 50.8712 77.8614C51.1046 77.7904 51.3278 77.7549 51.5409 77.7549C51.8859 77.7549 52.1573 77.8031 52.3552 77.8995C52.5581 77.9959 52.7027 78.1506 52.789 78.3637C52.8803 78.5768 52.9259 78.8634 52.9259 79.2236V81.7349H53.3978V82.0165C53.1187 82.0926 52.8828 82.1306 52.69 82.1306C52.5683 82.1306 52.4846 82.1103 52.4389 82.0697C52.3932 82.0342 52.3704 81.948 52.3704 81.811V81.5294C52.1878 81.6918 51.9874 81.8364 51.7692 81.9632C51.5561 82.085 51.3126 82.1459 51.0387 82.1459C50.6734 82.1459 50.369 82.0444 50.1255 81.8414C49.887 81.6385 49.7678 81.3418 49.7678 80.9511ZM51.2669 81.6969C51.409 81.6969 51.579 81.6512 51.7768 81.5599C51.9747 81.4686 52.1548 81.3595 52.3171 81.2327V79.8857C51.7032 79.8908 51.2365 79.9821 50.9169 80.1597C50.6023 80.3372 50.445 80.5757 50.445 80.875C50.445 81.1642 50.5186 81.3747 50.6657 81.5066C50.8129 81.6335 51.0133 81.6969 51.2669 81.6969Z" fill="#6CAD55"/>
<path d="M59.6293 82.1304C59.4974 82.1304 59.401 82.1076 59.3401 82.062C59.2792 82.0163 59.2488 81.9326 59.2488 81.8108V81.514C59.0611 81.6814 58.8404 81.8286 58.5867 81.9554C58.3331 82.0822 58.0794 82.1457 57.8257 82.1457C57.3641 82.1457 57.0343 82.0163 56.8364 81.7576C56.6436 81.4988 56.5472 81.0777 56.5472 80.4943V78.2569L56.0982 78.1276V77.846L57.019 77.7471H57.0266L57.1636 77.8384V80.403C57.1636 80.7226 57.1864 80.9737 57.2321 81.1564C57.2778 81.3339 57.3615 81.4659 57.4832 81.5521C57.605 81.6383 57.7826 81.6815 58.0159 81.6815C58.2392 81.6815 58.4523 81.6333 58.6552 81.5369C58.8581 81.4405 59.0332 81.3263 59.1803 81.1944V78.257L58.6019 78.1276V77.846L59.6141 77.7471H59.6217L59.7967 77.8384V81.7271H60.2685L60.2609 82.0163C60.2356 82.0214 60.162 82.0417 60.0402 82.0772C59.9185 82.1127 59.7815 82.1304 59.6293 82.1304Z" fill="#6CAD55"/>
<path d="M60.9235 81.7354L61.4106 81.6745V78.3414L60.8246 78.2121V77.8696L61.7911 77.7479L61.9585 77.8696V78.2045L61.9509 78.3947C62.1386 78.2324 62.3847 78.0827 62.6891 77.9457C62.9935 77.8087 63.27 77.7402 63.5186 77.7402C63.7926 77.7402 64.0107 77.7859 64.173 77.8772C64.3405 77.9686 64.4673 78.1106 64.5535 78.3034C64.7108 78.1715 64.9391 78.0446 65.2384 77.9229C65.5428 77.8011 65.8219 77.7402 66.0756 77.7402C66.3952 77.7402 66.6412 77.8011 66.8137 77.9229C66.9913 78.0446 67.1156 78.2324 67.1866 78.486C67.2577 78.7397 67.2932 79.0821 67.2932 79.5134V81.6746L67.8715 81.7355V82.0627H66.1669V81.7355L66.6843 81.6746V79.5362C66.6843 79.2166 66.6615 78.963 66.6158 78.7752C66.5702 78.5875 66.4814 78.4455 66.3495 78.3491C66.2176 78.2527 66.0248 78.2045 65.7711 78.2045C65.5834 78.2045 65.3856 78.2476 65.1776 78.3339C64.9746 78.415 64.7996 78.5089 64.6525 78.6154C64.7032 78.8488 64.7286 79.1532 64.7286 79.5286V81.6747L65.3069 81.7356V82.0628H63.5642V81.7356L64.1121 81.6747V79.521C64.1121 79.1963 64.0918 78.9427 64.0513 78.76C64.0157 78.5774 63.9371 78.4404 63.8153 78.3491C63.6936 78.2578 63.5135 78.2121 63.2751 78.2121C63.0772 78.2121 62.8616 78.2628 62.6282 78.3643C62.3999 78.4607 62.1995 78.5774 62.027 78.7144V81.6747L62.5673 81.7356V82.0628H60.9235L60.9235 81.7354Z" fill="#6CAD55"/>
<path d="M74.6611 79.7955C74.6611 80.2318 74.5724 80.63 74.3948 80.9902C74.2172 81.3454 73.9635 81.6269 73.6338 81.8349C73.3091 82.0429 72.9362 82.1469 72.5151 82.1469C72.373 82.1469 72.2234 82.1342 72.0661 82.1089C71.9088 82.0886 71.7795 82.0607 71.678 82.0252L71.6932 82.672V83.4939L72.5379 83.57V83.9048H70.4984V83.57L71.0844 83.4939V78.342L70.4908 78.2126V77.8702L71.4649 77.7484H71.4802L71.6171 77.8702V78.3344C71.7795 78.167 71.9773 78.0249 72.2107 77.9082C72.4441 77.7865 72.7053 77.7256 72.9945 77.7256C73.2888 77.7256 73.5627 77.7992 73.8164 77.9463C74.0701 78.0934 74.273 78.3217 74.4252 78.6312C74.5825 78.9406 74.6611 79.3287 74.6611 79.7955ZM72.7434 78.1898C72.5252 78.1898 72.3223 78.2354 72.1346 78.3267C71.9469 78.4181 71.7998 78.5195 71.6932 78.6311V81.5305C71.7338 81.5965 71.8353 81.6574 71.9976 81.7132C72.1651 81.7639 72.3477 81.7893 72.5456 81.7893C72.9819 81.7893 73.3319 81.6295 73.5957 81.3099C73.8646 80.9852 73.9991 80.5083 73.9991 79.8792C73.9991 79.316 73.8798 78.895 73.6414 78.6159C73.408 78.3318 73.1087 78.1898 72.7434 78.1898Z" fill="#6CAD55"/>
<path d="M75.9705 81.6735V76.3085L75.3236 76.24V75.9585L76.4347 75.8291H76.4423L76.5868 75.928V81.6813L77.3022 81.7345V82.0617H75.3008V81.7345L75.9705 81.6735Z" fill="#6CAD55"/>
<path d="M77.8915 80.9511C77.8915 80.459 78.1351 80.1039 78.6221 79.8857C79.1091 79.6625 79.7154 79.5432 80.4409 79.528V79.2921C80.4409 79.0334 80.413 78.8304 80.3572 78.6833C80.3065 78.5311 80.2151 78.422 80.0832 78.3561C79.9513 78.2851 79.7661 78.2496 79.5277 78.2496C79.1117 78.2496 78.6652 78.384 78.1884 78.6529L78.0209 78.318C78.0767 78.2673 78.1934 78.1963 78.371 78.1049C78.5536 78.0136 78.7616 77.9324 78.995 77.8614C79.2284 77.7904 79.4516 77.7549 79.6647 77.7549C80.0097 77.7549 80.2811 77.8031 80.479 77.8995C80.6819 77.9959 80.8265 78.1506 80.9127 78.3637C81.0041 78.5768 81.0497 78.8634 81.0497 79.2236V81.7349H81.5216V82.0165C81.2425 82.0926 81.0066 82.1306 80.8138 82.1306C80.6921 82.1306 80.6083 82.1103 80.5627 82.0697C80.517 82.0342 80.4942 81.948 80.4942 81.811V81.5294C80.3116 81.6918 80.1112 81.8364 79.893 81.9632C79.6799 82.085 79.4364 82.1459 79.1624 82.1459C78.7972 82.1459 78.4928 82.0444 78.2492 81.8414C78.0108 81.6385 77.8915 81.3418 77.8915 80.9511ZM79.3907 81.6969C79.5328 81.6969 79.7027 81.6512 79.9006 81.5599C80.0985 81.4686 80.2786 81.3595 80.4409 81.2327V79.8857C79.827 79.8908 79.3603 79.9821 79.0406 80.1597C78.7261 80.3372 78.5688 80.5757 78.5688 80.875C78.5688 81.1642 78.6424 81.3747 78.7895 81.5066C78.9366 81.6335 79.137 81.6969 79.3907 81.6969Z" fill="#6CAD55"/>
<path d="M82.5613 78.3414L81.9753 78.2121V77.8696L82.9418 77.7478H82.9646L83.1092 77.8696V78.2044L83.1016 78.3947C83.2894 78.2324 83.5379 78.0827 83.8474 77.9457C84.1569 77.8087 84.4435 77.7402 84.7073 77.7402C85.032 77.7402 85.2806 77.8037 85.4531 77.9305C85.6307 78.0522 85.7524 78.2425 85.8184 78.5012C85.8894 78.7549 85.9249 79.0973 85.9249 79.5286V81.6822L86.4957 81.7355V82.0627H84.7834V81.7355L85.3085 81.6822V79.521C85.3085 79.2013 85.2857 78.9502 85.24 78.7676C85.1995 78.5849 85.1157 78.4479 84.9889 78.3566C84.8672 78.2602 84.6871 78.212 84.4486 78.212C84.2457 78.212 84.025 78.2627 83.7865 78.3642C83.5532 78.4657 83.3502 78.5849 83.1777 78.7219V81.6746L83.7333 81.7354V82.0627H82.0515V81.7354L82.5613 81.6746V78.3414Z" fill="#6CAD55"/>
<path d="M88.8928 82.146C88.3043 82.146 87.8502 81.9456 87.5306 81.5448C87.216 81.139 87.0588 80.6012 87.0588 79.9315C87.0588 79.5003 87.1425 79.1172 87.3099 78.7824C87.4773 78.4476 87.7082 78.1888 88.0024 78.0062C88.3017 77.8185 88.6366 77.7246 89.0069 77.7246C89.4585 77.7246 89.8085 77.854 90.0571 78.1127C90.3108 78.3714 90.4478 78.7443 90.4681 79.2314C90.4681 79.5459 90.4529 79.7692 90.4224 79.9011H87.7132C87.7132 80.4338 87.8325 80.8701 88.0709 81.21C88.3144 81.5448 88.6544 81.7122 89.0907 81.7122C89.3038 81.7122 89.5219 81.6742 89.7451 81.5981C89.9684 81.522 90.1409 81.4307 90.2626 81.3241L90.3844 81.6057C90.2372 81.7579 90.0216 81.8873 89.7375 81.9938C89.4585 82.0953 89.1769 82.146 88.8928 82.146ZM89.7832 79.5434C89.7984 79.4369 89.806 79.3253 89.806 79.2086C89.801 78.8737 89.7198 78.6074 89.5625 78.4095C89.4103 78.2116 89.1744 78.1127 88.8548 78.1127C88.1597 78.1127 87.7817 78.5896 87.7209 79.5434L89.7832 79.5434Z" fill="#6CAD55"/>
<path d="M92.4632 82.1457C92.1943 82.1457 91.9913 82.0848 91.8544 81.9631C91.7174 81.8362 91.6489 81.613 91.6489 81.2934V78.2874H91.0706V77.9906C91.3242 77.9348 91.4713 77.8942 91.5119 77.8689C91.588 77.8283 91.6438 77.7497 91.6794 77.633C91.7098 77.5569 91.7504 77.4199 91.8011 77.222C91.8518 77.0241 91.8899 76.8694 91.9153 76.7578H92.2653V77.8384H93.6123V78.2874H92.2653V80.7531C92.2653 81.0474 92.2754 81.2554 92.2958 81.3771C92.3161 81.4938 92.3567 81.5699 92.4175 81.6054C92.4784 81.641 92.5849 81.6587 92.7371 81.6587C92.8843 81.6587 93.0492 81.6384 93.2318 81.5978C93.4144 81.5572 93.5514 81.5141 93.6428 81.4685L93.7417 81.7576C93.625 81.849 93.4322 81.9377 93.1633 82.024C92.8944 82.1052 92.6611 82.1457 92.4632 82.1457Z" fill="#6CAD55"/>
<path d="M94.2852 80.9511C94.2852 80.459 94.5287 80.1039 95.0157 79.8857C95.5028 79.6625 96.109 79.5432 96.8345 79.528V79.2921C96.8345 79.0334 96.8066 78.8304 96.7508 78.6833C96.7001 78.5311 96.6088 78.422 96.4769 78.3561C96.3449 78.2851 96.1598 78.2496 95.9213 78.2496C95.5053 78.2496 95.0589 78.384 94.582 78.6529L94.4146 78.318C94.4704 78.2673 94.5871 78.1963 94.7646 78.1049C94.9473 78.0136 95.1553 77.9324 95.3886 77.8614C95.622 77.7904 95.8452 77.7549 96.0583 77.7549C96.4033 77.7549 96.6747 77.8031 96.8726 77.8995C97.0755 77.9959 97.2201 78.1506 97.3064 78.3637C97.3977 78.5768 97.4433 78.8634 97.4433 79.2236V81.7349H97.9152V82.0165C97.6361 82.0926 97.4002 82.1306 97.2074 82.1306C97.0857 82.1306 97.002 82.1103 96.9563 82.0697C96.9107 82.0342 96.8878 81.948 96.8878 81.811V81.5294C96.7052 81.6918 96.5048 81.8364 96.2866 81.9632C96.0735 82.085 95.83 82.1459 95.5561 82.1459C95.1908 82.1459 94.8864 82.0444 94.6429 81.8414C94.4044 81.6385 94.2852 81.3418 94.2852 80.9511ZM95.7844 81.6969C95.9264 81.6969 96.0964 81.6512 96.2942 81.5599C96.4921 81.4686 96.6722 81.3595 96.8345 81.2327V79.8857C96.2207 79.8908 95.7539 79.9821 95.4343 80.1597C95.1197 80.3372 94.9625 80.5757 94.9625 80.875C94.9625 81.1642 95.036 81.3747 95.1831 81.5066C95.3303 81.6335 95.5307 81.6969 95.7844 81.6969Z" fill="#6CAD55"/>
<path d="M100.651 81.7354L101.138 81.6745V78.3414L100.552 78.2121V77.8696L101.518 77.7479L101.686 77.8696V78.2045L101.678 78.3947C101.866 78.2324 102.112 78.0827 102.416 77.9457C102.721 77.8087 102.997 77.7402 103.246 77.7402C103.52 77.7402 103.738 77.7859 103.9 77.8772C104.068 77.9686 104.194 78.1106 104.281 78.3034C104.438 78.1715 104.666 78.0446 104.965 77.9229C105.27 77.8011 105.549 77.7402 105.803 77.7402C106.122 77.7402 106.368 77.8011 106.541 77.9229C106.718 78.0446 106.843 78.2324 106.914 78.486C106.985 78.7397 107.02 79.0821 107.02 79.5134V81.6746L107.599 81.7355V82.0627H105.894V81.7355L106.411 81.6746V79.5362C106.411 79.2166 106.389 78.963 106.343 78.7752C106.297 78.5875 106.208 78.4455 106.077 78.3491C105.945 78.2527 105.752 78.2045 105.498 78.2045C105.31 78.2045 105.113 78.2476 104.905 78.3339C104.702 78.415 104.527 78.5089 104.38 78.6154C104.43 78.8488 104.456 79.1532 104.456 79.5286V81.6747L105.034 81.7356V82.0628H103.291V81.7356L103.839 81.6747V79.521C103.839 79.1963 103.819 78.9427 103.778 78.76C103.743 78.5774 103.664 78.4404 103.542 78.3491C103.421 78.2578 103.241 78.2121 103.002 78.2121C102.804 78.2121 102.589 78.2628 102.355 78.3643C102.127 78.4607 101.927 78.5774 101.754 78.7144V81.6747L102.294 81.7356V82.0628H100.648L100.651 81.7354Z" fill="#6CAD55"/>
<path d="M108.196 80.9511C108.196 80.459 108.439 80.1039 108.926 79.8857C109.413 79.6625 110.02 79.5432 110.745 79.528V79.2921C110.745 79.0334 110.717 78.8304 110.661 78.6833C110.611 78.5311 110.519 78.422 110.388 78.3561C110.256 78.2851 110.07 78.2496 109.832 78.2496C109.416 78.2496 108.97 78.384 108.493 78.6529L108.325 78.318C108.381 78.2673 108.498 78.1963 108.675 78.1049C108.858 78.0136 109.066 77.9324 109.299 77.8614C109.533 77.7904 109.756 77.7549 109.969 77.7549C110.314 77.7549 110.585 77.8031 110.783 77.8995C110.986 77.9959 111.131 78.1506 111.217 78.3637C111.308 78.5768 111.354 78.8634 111.354 79.2236V81.7349H111.826V82.0165C111.547 82.0926 111.311 82.1306 111.118 82.1306C110.996 82.1306 110.913 82.1103 110.867 82.0697C110.821 82.0342 110.798 81.948 110.798 81.811V81.5294C110.616 81.6918 110.415 81.8364 110.197 81.9632C109.984 82.085 109.741 82.1459 109.467 82.1459C109.101 82.1459 108.797 82.0444 108.554 81.8414C108.315 81.6385 108.196 81.3418 108.196 80.9511ZM109.695 81.6969C109.837 81.6969 110.007 81.6512 110.205 81.5599C110.403 81.4686 110.583 81.3595 110.745 81.2327V79.8857C110.131 79.8908 109.665 79.9821 109.345 80.1597C109.03 80.3372 108.873 80.5757 108.873 80.875C108.873 81.1642 108.947 81.3747 109.094 81.5066C109.241 81.6335 109.441 81.6969 109.695 81.6969Z" fill="#6CAD55"/>
<path d="M113.276 76.9634C113.16 76.9634 113.066 76.9228 112.995 76.8416C112.929 76.7553 112.896 76.6513 112.896 76.5296C112.896 76.3926 112.934 76.2759 113.01 76.1795C113.091 76.0781 113.203 76.0273 113.345 76.0273C113.467 76.0273 113.563 76.0705 113.634 76.1567C113.705 76.243 113.741 76.3444 113.741 76.4611C113.741 76.6082 113.7 76.73 113.619 76.8264C113.543 76.9177 113.431 76.9634 113.284 76.9634L113.276 76.9634ZM113.033 81.6739V78.3408L112.439 78.2114V77.869L113.482 77.7472H113.497L113.649 77.869V81.6817L114.311 81.735V82.0622H112.363V81.735L113.033 81.6739Z" fill="#6CAD55"/>
<path d="M115.478 81.4608C115.534 81.547 115.651 81.6231 115.828 81.6891C116.006 81.755 116.196 81.788 116.399 81.788C117.018 81.788 117.328 81.5597 117.328 81.1031C117.328 80.8951 117.241 80.7277 117.069 80.6009C116.896 80.469 116.602 80.3244 116.186 80.1671C115.775 80.02 115.476 79.8449 115.288 79.642C115.1 79.439 115.007 79.1676 115.007 78.8277C115.007 78.6095 115.073 78.4193 115.204 78.257C115.341 78.0946 115.522 77.9703 115.745 77.884C115.973 77.7927 116.219 77.7471 116.483 77.7471C116.742 77.7471 116.957 77.7699 117.13 77.8156C117.307 77.8612 117.482 77.917 117.655 77.983V78.8886H117.282L117.145 78.3331C117.109 78.2671 117.018 78.2113 116.871 78.1656C116.729 78.12 116.572 78.0971 116.399 78.0971C116.156 78.0971 115.958 78.153 115.806 78.2646C115.653 78.3711 115.577 78.5157 115.577 78.6983C115.577 78.8607 115.615 78.9951 115.691 79.1017C115.768 79.2082 115.861 79.2945 115.973 79.3604C116.085 79.4213 116.239 79.4923 116.437 79.5735L116.582 79.6344C116.871 79.746 117.104 79.8525 117.282 79.954C117.46 80.0504 117.607 80.1798 117.723 80.3421C117.84 80.4994 117.898 80.6972 117.898 80.9357C117.898 81.3111 117.754 81.6079 117.465 81.8261C117.18 82.0391 116.8 82.1457 116.323 82.1457C116.105 82.1457 115.856 82.1102 115.577 82.0391C115.298 81.9681 115.09 81.8971 114.953 81.8261V80.8672H115.364L115.478 81.4608Z" fill="#6CAD55"/>
<path d="M121.439 81.6735V76.3085L120.792 76.24V75.9585L121.903 75.8291H121.911L122.056 75.928V81.6813L122.771 81.7345V82.0617H120.769V81.7345L121.439 81.6735Z" fill="#6CAD55"/>
<path d="M124.203 76.9634C124.087 76.9634 123.993 76.9228 123.922 76.8416C123.856 76.7553 123.823 76.6513 123.823 76.5296C123.823 76.3926 123.861 76.2759 123.937 76.1795C124.018 76.0781 124.13 76.0273 124.272 76.0273C124.394 76.0273 124.49 76.0705 124.561 76.1567C124.632 76.243 124.668 76.3444 124.668 76.4611C124.668 76.6082 124.627 76.73 124.546 76.8264C124.47 76.9177 124.358 76.9634 124.211 76.9634L124.203 76.9634ZM123.96 81.6739V78.3408L123.366 78.2114V77.869L124.409 77.7472H124.424L124.576 77.869V81.6817L125.238 81.735V82.0622H123.29V81.735L123.96 81.6739Z" fill="#6CAD55"/>
<path d="M125.772 81.7354L126.259 81.6745V78.3414L125.673 78.2121V77.8696L126.64 77.7479L126.807 77.8696V78.2045L126.8 78.3947C126.987 78.2324 127.233 78.0827 127.538 77.9457C127.842 77.8087 128.119 77.7402 128.367 77.7402C128.641 77.7402 128.859 77.7859 129.022 77.8772C129.189 77.9686 129.316 78.1106 129.402 78.3034C129.56 78.1715 129.788 78.0446 130.087 77.9229C130.392 77.8011 130.671 77.7402 130.924 77.7402C131.244 77.7402 131.49 77.8011 131.662 77.9229C131.84 78.0446 131.964 78.2324 132.035 78.486C132.106 78.7397 132.142 79.0821 132.142 79.5134V81.6746L132.72 81.7355V82.0627H131.016V81.7355L131.533 81.6746V79.5362C131.533 79.2166 131.51 78.963 131.465 78.7752C131.419 78.5875 131.33 78.4455 131.198 78.3491C131.066 78.2527 130.874 78.2045 130.62 78.2045C130.432 78.2045 130.234 78.2476 130.026 78.3339C129.823 78.415 129.648 78.5089 129.501 78.6154C129.552 78.8488 129.577 79.1532 129.577 79.5286V81.6747L130.156 81.7356V82.0628H128.413V81.7356L128.961 81.6747V79.521C128.961 79.1963 128.941 78.9427 128.9 78.76C128.865 78.5774 128.786 78.4404 128.664 78.3491C128.542 78.2578 128.362 78.2121 128.124 78.2121C127.926 78.2121 127.71 78.2628 127.477 78.3643C127.249 78.4607 127.048 78.5774 126.876 78.7144V81.6747L127.416 81.7356V82.0628H125.772L125.772 81.7354Z" fill="#6CAD55"/>
<path d="M137.326 79.7955C137.326 80.2318 137.238 80.63 137.06 80.9902C136.882 81.3454 136.629 81.6269 136.299 81.8349C135.974 82.0429 135.601 82.1469 135.18 82.1469C135.038 82.1469 134.889 82.1342 134.731 82.1089C134.574 82.0886 134.445 82.0607 134.343 82.0252L134.358 82.672V83.4939L135.203 83.57V83.9048H133.164V83.57L133.75 83.4939V78.342L133.156 78.2126V77.8702L134.13 77.7484H134.145L134.282 77.8702V78.3344C134.445 78.167 134.643 78.0249 134.876 77.9082C135.109 77.7865 135.371 77.7256 135.66 77.7256C135.954 77.7256 136.228 77.7992 136.482 77.9463C136.735 78.0934 136.938 78.3217 137.09 78.6312C137.248 78.9406 137.326 79.3287 137.326 79.7955ZM135.409 78.1898C135.19 78.1898 134.987 78.2354 134.8 78.3267C134.612 78.4181 134.465 78.5195 134.358 78.6311V81.5305C134.399 81.5965 134.5 81.6574 134.663 81.7132C134.83 81.7639 135.013 81.7893 135.211 81.7893C135.647 81.7893 135.997 81.6295 136.261 81.3099C136.53 80.9852 136.664 80.5083 136.664 79.8792C136.664 79.316 136.545 78.895 136.307 78.6159C136.073 78.3318 135.774 78.1898 135.409 78.1898Z" fill="#6CAD55"/>
<path d="M138.012 79.9258C138.012 79.4844 138.103 79.0963 138.286 78.7615C138.474 78.4267 138.717 78.1705 139.016 77.9929C139.321 77.8153 139.638 77.7266 139.968 77.7266C140.607 77.7266 141.079 77.9346 141.383 78.3506C141.693 78.7666 141.847 79.2993 141.847 79.9487C141.847 80.3901 141.754 80.7782 141.566 81.113C141.383 81.4478 141.14 81.7041 140.835 81.8816C140.536 82.0592 140.221 82.148 139.892 82.148C139.252 82.148 138.778 81.9399 138.469 81.5239C138.164 81.1079 138.012 80.5752 138.012 79.9258ZM139.93 81.7522C140.32 81.7522 140.622 81.6026 140.835 81.3032C141.048 81.0039 141.155 80.5676 141.155 79.9943C141.155 79.4464 141.056 78.9974 140.858 78.6473C140.66 78.2973 140.353 78.1222 139.937 78.1222C139.547 78.1222 139.242 78.2719 139.024 78.5712C138.811 78.8706 138.705 79.3069 138.705 79.8802C138.705 80.4332 138.803 80.8847 139.001 81.2347C139.204 81.5797 139.514 81.7522 139.93 81.7522Z" fill="#6CAD55"/>
<path d="M16.1436 56.1259C16.1436 56.1935 16.0667 56.4335 15.9129 56.8457C15.7591 57.258 15.6606 57.5041 15.6175 57.5841C15.1069 58.4209 14.1439 59.1469 12.7288 59.7622C11.5598 60.2483 9.79695 60.9804 7.44038 61.9587C6.65282 62.1679 5.90218 62.3956 5.18845 62.6417C4.60392 62.8324 3.75482 63.2816 2.64116 63.9892C2.54887 64.6721 2.47196 65.4135 2.41043 66.2134C2.33044 67.284 2.22585 68.3977 2.09664 69.5545C1.9059 69.813 1.66594 69.9422 1.37675 69.9422C1.40136 69.9422 1.41366 69.9391 1.41366 69.9329C1.37059 69.9083 1.21985 69.8683 0.96142 69.813V69.1854C0.96142 68.5947 1.01064 67.9948 1.10909 67.3857C1.10909 67.3733 1.16446 67.2165 1.27522 66.915C1.38597 66.6258 1.44134 66.4504 1.44134 66.3889C1.44134 66.0382 1.37673 65.6813 1.24752 65.3183C1.16139 65.5644 1.00449 65.7244 0.776844 65.7982C0.506129 65.6383 0.370765 65.3614 0.370765 64.9676C0.370765 64.9246 0.598418 64.5923 1.05372 63.9709C1.52134 63.3248 1.79206 62.8818 1.8659 62.6419C1.92743 62.4634 2.0351 61.8882 2.18892 60.916C2.41659 59.4762 2.61656 58.4241 2.78883 57.7596C3.15801 56.3137 3.59487 55.3938 4.0994 55L4.62546 55.3969V55.803C4.29936 56.0552 4.06863 56.5136 3.93327 57.1781C3.8902 57.3812 3.79175 57.9041 3.63793 58.7471C3.60717 58.9009 3.48104 59.3009 3.25953 59.9469C3.06264 60.513 2.96419 60.8575 2.96419 60.9806V62.1619C3.01957 62.2173 3.07187 62.245 3.1211 62.245C3.38568 62.245 3.79792 62.1342 4.35782 61.9127C5.02847 61.6605 5.44994 61.5097 5.62224 61.4605C8.47106 60.7222 10.6676 59.8823 12.2118 58.9409C13.5654 58.1226 14.3868 57.5657 14.676 57.2704C15.0206 56.932 15.1929 56.4736 15.1929 55.8953C15.1929 54.88 14.7345 54.0309 13.8177 53.348C12.9748 52.7142 12.0303 52.3974 10.9843 52.3974C10.1599 52.3974 9.18464 52.4989 8.05868 52.7019C6.6066 52.9665 5.24375 53.3357 3.97015 53.8094C2.03816 54.5232 0.976748 55.2953 0.785921 56.126L0.545962 56.3013C0.182942 55.9875 0.00143433 55.6922 0.00143433 55.4153C0.00143433 55.0215 0.410595 54.5416 1.22892 53.9756C1.89957 53.5079 2.4964 53.1972 3.01941 53.0434C6.4958 51.9728 9.09229 51.4375 10.8089 51.4375C12.4332 51.4375 13.7284 51.862 14.6945 52.7111C15.6605 53.5541 16.1436 54.6922 16.1436 56.1259Z" fill="#6CAD55"/>
<path d="M24.7263 65.2704C24.7263 65.9287 24.5879 66.4917 24.311 66.9593C24.0587 67.3839 23.1635 67.8023 21.6253 68.2145C20.2532 68.5837 19.2103 68.7683 18.4967 68.7683C17.6599 68.7683 16.8323 68.5683 16.014 68.1684C15.0234 67.6762 14.5281 67.064 14.5281 66.3318C14.5281 66.0057 14.7157 65.6734 15.0911 65.335C15.4233 65.095 15.9248 64.6428 16.5954 63.9783C17.0384 63.4368 17.8506 63 19.032 62.6677C20.0287 62.3847 20.9609 62.2432 21.8284 62.2432C22.0622 62.2432 22.413 62.3447 22.8805 62.5477C23.3482 62.7631 23.6681 62.96 23.8404 63.1384C24.0127 63.3291 24.2034 63.6737 24.4126 64.1721C24.6218 64.6643 24.7263 65.0304 24.7263 65.2704ZM23.785 65.1965C23.785 64.7412 23.5111 64.3075 22.9635 63.8952C22.459 63.5076 21.9606 63.3138 21.4684 63.3138C21.3761 63.3138 20.6593 63.4461 19.318 63.7106C18.8011 63.8152 18.3304 64.0152 17.9059 64.3105C16.4538 65.3442 15.7278 66.0579 15.7278 66.4517C15.7278 66.784 16.1246 67.0855 16.9184 67.3562C17.5952 67.59 18.1458 67.7069 18.5704 67.7069C19.2041 67.7069 20.0932 67.5777 21.2376 67.3193C22.2836 67.0855 23.0281 66.7317 23.4711 66.2579C23.6803 66.0426 23.785 65.6888 23.785 65.1965Z" fill="#6CAD55"/>
<path d="M28.4635 52.8581L27.9375 64.5239C27.9067 64.5485 27.8913 64.6224 27.8913 64.7454C27.8913 64.8685 27.9067 65.0377 27.9375 65.253C28.0052 65.8314 28.1651 66.9266 28.4174 68.5386C28.4051 68.5939 28.3005 68.6555 28.1036 68.7232C28.0667 68.7293 28.0329 68.7324 28.0021 68.7324C27.356 68.7324 26.9376 67.9879 26.7469 66.4989C26.7407 66.4682 26.7377 66.4066 26.7377 66.3143C26.7377 66.0252 26.753 65.4314 26.7838 64.5331C26.8269 63.3763 26.8792 62.1673 26.9407 60.906C26.9592 60.426 27.0299 59.5339 27.153 58.2295C27.2699 57.0358 27.3283 56.1498 27.3283 55.5715C27.3283 53.8056 27.4452 52.572 27.6791 51.8706L27.8175 51.8613C27.836 51.8613 27.8513 51.8613 27.8636 51.8613C28.0728 51.8613 28.2143 51.9782 28.2882 52.2121C28.3436 52.3659 28.402 52.5812 28.4635 52.8581Z" fill="#6CAD55"/>
<path d="M40.3417 65.2704C40.3417 65.9287 40.2033 66.4917 39.9264 66.9593C39.6741 67.3839 38.7789 67.8023 37.2407 68.2145C35.8686 68.5837 34.8257 68.7683 34.1121 68.7683C33.2753 68.7683 32.4477 68.5683 31.6294 68.1684C30.6388 67.6762 30.1435 67.064 30.1435 66.3318C30.1435 66.0057 30.3311 65.6734 30.7065 65.335C31.0387 65.095 31.5402 64.6428 32.2108 63.9783C32.6538 63.4368 33.466 63 34.6474 62.6677C35.6441 62.3847 36.5763 62.2432 37.4438 62.2432C37.6777 62.2432 38.0284 62.3447 38.4959 62.5477C38.9636 62.7631 39.2835 62.96 39.4558 63.1384C39.6281 63.3291 39.8188 63.6737 40.028 64.1721C40.2372 64.6643 40.3417 65.0304 40.3417 65.2704ZM39.4004 65.1965C39.4004 64.7412 39.1265 64.3075 38.5789 63.8952C38.0744 63.5076 37.576 63.3138 37.0838 63.3138C36.9915 63.3138 36.2747 63.4461 34.9334 63.7106C34.4165 63.8152 33.9458 64.0152 33.5213 64.3105C32.0692 65.3442 31.3432 66.0579 31.3432 66.4517C31.3432 66.784 31.7401 67.0855 32.5338 67.3562C33.2106 67.59 33.7613 67.7069 34.1858 67.7069C34.8196 67.7069 35.7086 67.5777 36.8531 67.3193C37.899 67.0855 38.6435 66.7317 39.0865 66.2579C39.2957 66.0426 39.4004 65.6888 39.4004 65.1965Z" fill="#6CAD55"/>
<path d="M64.9756 64.644C64.9756 65.4561 64.0219 66.336 62.1145 67.2835C61.9053 67.3943 61.5084 67.6066 60.9239 67.9204C60.7393 68.0557 60.3548 68.2218 59.7702 68.4187C59.6041 68.468 59.195 68.6033 58.5428 68.8248L55.7002 70.1815C54.8018 70.4892 53.8389 70.8399 52.8114 71.2336C51.6854 71.6582 50.904 72.2642 50.4672 73.0518C50.018 72.8549 49.7935 72.6211 49.7935 72.3504C49.7935 71.3229 51.0178 70.3907 53.4666 69.5539C53.7004 69.4739 54.1434 69.317 54.7956 69.0832C55.1401 68.8617 56.0723 68.4587 57.5921 67.8742C59.3333 67.2097 60.3885 66.7913 60.7578 66.619C61.9391 66.0591 62.902 65.4438 63.6465 64.7732C63.6834 64.6932 63.7357 64.5578 63.8034 64.3671C63.3665 64.0717 62.942 63.8595 62.5298 63.7303C62.4498 63.7057 61.9822 63.6503 61.1269 63.5641C58.8874 63.3304 57.4015 63.2135 56.6693 63.2135C56.6386 63.2135 56.5401 63.235 56.374 63.2781C56.2079 63.315 56.1094 63.3334 56.0786 63.3334C55.088 63.3334 54.1836 63.1673 53.3652 62.835V62.4566C53.3652 62.3274 53.4175 62.2075 53.5221 62.0967C59.6503 58.8604 62.7144 56.427 62.7144 54.7965C62.7144 54.2058 62.3391 53.7628 61.5884 53.4675C61.0408 53.2521 60.4101 53.1444 59.6964 53.1444C59.5857 53.1444 59.2103 53.2213 58.5704 53.3752C57.9305 53.529 57.5552 53.6059 57.4445 53.6059C57.4014 53.6059 57.3399 53.5874 57.2599 53.5505C57.1861 53.5075 57.1307 53.4859 57.0938 53.4859C56.9707 53.4859 56.8938 53.5105 56.863 53.5597C56.82 53.6274 56.7861 53.6705 56.7615 53.689C56.7 53.7259 56.2447 53.852 55.3956 54.0674C53.5805 54.5165 52.3499 55.1872 51.7039 56.0793C51.5378 56.3193 51.4547 56.9592 51.4547 57.999C51.4547 58.1159 51.4793 58.5374 51.5285 59.2634C51.5778 59.9894 51.6024 60.414 51.6024 60.537C51.6024 62.1798 51.8024 64.118 52.2023 66.3514C52.2208 66.4498 52.3038 66.7267 52.4515 67.182C52.5745 67.5635 52.6361 67.8004 52.6361 67.8927C52.6361 68.0342 52.5622 68.1819 52.4146 68.3357C52.2669 68.4834 52.1223 68.5572 51.9808 68.5572C51.6732 68.5572 51.4855 68.308 51.4178 67.8097C51.3932 67.662 51.3532 67.3051 51.2978 66.7391C51.144 66.013 51.0148 65.3116 50.9102 64.6348L50.8733 64.441C50.7687 63.7642 50.6733 61.2876 50.5872 57.0113C50.5749 56.9436 50.5287 56.836 50.4487 56.6883C50.3995 56.7683 50.2795 56.8083 50.0888 56.8083C49.7381 56.8083 49.5627 56.6329 49.5627 56.2822C49.5627 55.8884 50.0827 55.4423 51.1225 54.944C51.5901 54.7225 53.1006 54.1103 55.6539 53.1073C56.0169 52.9105 56.4507 52.7382 56.9552 52.5905C58.1551 52.2398 59.1118 52.0645 59.8256 52.0645C60.7792 52.0645 61.6314 52.249 62.382 52.6182C63.3234 53.092 63.7941 53.7596 63.7941 54.621C63.7941 55.6485 63.0835 56.799 61.6622 58.0727C60.8869 58.7618 59.7302 59.6078 58.192 60.6107C57.509 61.0599 56.7645 61.589 55.9585 62.1981C56.0508 62.272 56.5246 62.3089 57.3798 62.3089C62.4437 62.3089 64.9756 63.0873 64.9756 64.644Z" fill="#6CAD55"/>
<path d="M73.7962 63.8592L73.5009 64.1268C72.8548 63.9238 72.3534 63.8223 71.9965 63.8223C71.9719 63.8223 71.9473 63.8223 71.9227 63.8223C71.4612 63.8469 71.1228 63.8592 70.9075 63.8592H70.1691C70.1568 63.8592 69.9415 63.9269 69.5231 64.0622C69.2585 64.0807 68.8678 64.1484 68.351 64.2653C67.5265 64.6283 67.0343 65.2682 66.8743 66.185C66.8066 66.548 66.7728 66.8679 66.7728 67.1448C66.7728 67.2186 66.7759 67.2925 66.782 67.3663C66.8313 68.0493 66.8559 68.4523 66.8559 68.5753C66.7144 68.6122 66.4867 68.6492 66.1729 68.6861C66.0006 68.3538 65.9145 68.1231 65.9145 67.9939C65.9145 67.9262 65.9299 67.7508 65.9606 67.4678C65.9791 67.1848 65.9883 66.9941 65.9883 66.8956C65.9883 66.3788 66.216 65.4897 66.6713 64.2284C66.8251 63.9084 67.0466 63.6469 67.3358 63.4439C67.9634 63.0132 69.1232 62.7979 70.8153 62.7979C72.5135 62.804 73.5072 63.0286 73.7964 63.4716L73.7962 63.8592Z" fill="#6CAD55"/>
<path d="M83.6176 68.6123C83.4884 68.7908 83.3469 68.88 83.1931 68.88C83.0946 68.88 82.7624 68.5846 82.1963 67.994C81.6303 67.3971 81.2519 67.0987 81.0611 67.0987C81.0611 67.111 80.3905 67.3695 79.0491 67.874C77.6771 68.3847 76.8033 68.64 76.428 68.64C76.1204 68.64 75.7789 68.4893 75.4036 68.1878C75.0283 67.8863 74.8406 67.6033 74.8406 67.3387C74.8406 66.6557 75.5882 65.859 77.0833 64.9484C78.4861 64.087 79.5567 63.6562 80.295 63.6562C80.6026 63.6562 80.8795 63.8316 81.1256 64.1823V64.5792C81.0026 64.7576 80.861 64.8468 80.7011 64.8468C80.6703 64.8468 80.5626 64.8068 80.3781 64.7269C80.1996 64.6469 80.0919 64.6069 80.055 64.6069C79.8089 64.6069 79.2459 64.8591 78.3661 65.3637C77.5293 65.8374 76.9693 66.1912 76.6863 66.425C76.4033 66.6711 76.2218 66.9511 76.1418 67.2649C76.3571 67.4679 76.6125 67.5694 76.9078 67.5694C77.0616 67.5694 77.8031 67.3141 79.1321 66.8034C80.4549 66.2866 81.2548 66.0281 81.5317 66.0281C81.9378 66.0281 82.2301 66.1297 82.4085 66.3327C82.4516 66.3819 82.6084 66.6588 82.8792 67.1633C83.0822 67.5448 83.3283 67.8894 83.6175 68.197L83.6176 68.6123Z" fill="#6CAD55"/>
<path d="M90.65 66.4159C90.65 66.9389 90.4808 67.2866 90.1424 67.4589C89.8901 67.5758 89.2749 67.785 88.2965 68.0864C87.2813 68.4002 86.6599 68.5571 86.4322 68.5571C86.3953 68.5571 86.3461 68.5387 86.2846 68.5018C86.2231 68.4587 86.1769 68.4372 86.1461 68.4372C86.0108 68.4372 85.7493 68.634 85.3617 69.0278C85.091 68.8248 84.9556 68.6679 84.9556 68.5571C84.9556 67.868 85.9924 67.3143 88.066 66.8959C88.1952 66.8651 88.4352 66.819 88.7859 66.7574C88.8844 66.6898 89.0351 66.5544 89.2381 66.3514C89.0412 66.0253 88.7367 65.7822 88.3244 65.6223C87.9122 65.4807 87.1677 65.2008 86.091 64.7824C85.0204 64.3702 84.4851 63.9056 84.4851 63.3888C84.4851 62.7181 85.1557 62.3828 86.497 62.3828C87.0077 62.3828 87.663 62.4413 88.4628 62.5582C89.3981 62.6935 90.0072 62.8474 90.2902 63.0196L90.1426 63.2596L86.7184 63.4349C86.6999 63.4596 86.6261 63.5211 86.4969 63.6195L88.9611 64.7178C90.087 65.2162 90.65 65.7822 90.65 66.4159Z" fill="#6CAD55"/>
<path d="M94.4798 59.6863L94.4891 59.7232C94.4891 59.9632 94.2368 60.2555 93.7323 60.6C93.5846 60.557 93.2831 60.3047 92.8278 59.8432C93.0124 59.4002 93.2124 59.1787 93.4277 59.1787C93.6308 59.1787 93.9815 59.3479 94.4798 59.6863ZM93.6123 66.7373C93.5385 67.7341 93.5015 68.3125 93.5015 68.4724C93.2062 68.6386 92.9416 68.7216 92.7078 68.7216C92.6094 68.4386 92.5602 68.0879 92.5602 67.6695C92.5602 65.3437 92.8493 64.11 93.4277 63.9686C93.6308 64.0609 93.7415 64.2178 93.76 64.4393C93.7538 64.3593 93.7446 64.3162 93.7323 64.3101C93.7384 64.3777 93.7415 64.4608 93.7415 64.5592C93.7415 64.9961 93.6984 65.7221 93.6123 66.7373Z" fill="#6CAD55"/>
<path d="M98.1272 52.8581L97.6012 64.5239C97.5704 64.5485 97.555 64.6224 97.555 64.7454C97.555 64.8685 97.5704 65.0377 97.6012 65.253C97.6689 65.8314 97.8288 66.9266 98.0811 68.5386C98.0688 68.5939 97.9642 68.6555 97.7673 68.7232C97.7304 68.7293 97.6966 68.7324 97.6658 68.7324C97.0197 68.7324 96.6013 67.9879 96.4106 66.4989C96.4044 66.4682 96.4014 66.4066 96.4014 66.3143C96.4014 66.0252 96.4168 65.4314 96.4475 64.5331C96.4906 63.3763 96.5429 62.1673 96.6044 60.906C96.6229 60.426 96.6936 59.5339 96.8167 58.2295C96.9336 57.0358 96.992 56.1498 96.992 55.5715C96.992 53.8056 97.109 52.572 97.3428 51.8706L97.4812 51.8613C97.4997 51.8613 97.5151 51.8613 97.5274 51.8613C97.7366 51.8613 97.8781 51.9782 97.9519 52.2121C98.0073 52.3659 98.0657 52.5812 98.1272 52.8581Z" fill="#6CAD55"/>
<path d="M128.851 68.0934C127.99 68.0934 126.495 68.0503 124.366 67.9642L122.16 67.8719L111.242 68.8409C111.015 68.8594 110.833 68.8686 110.698 68.8686C109.953 68.8686 109.255 68.724 108.603 68.4349C108.03 68.1888 107.744 67.9457 107.744 67.7058C107.744 67.029 108.741 65.8414 110.735 64.1432C110.821 64.0694 112.663 62.6112 116.263 59.7687C118.25 58.1997 119.244 57.2276 119.244 56.8522C119.244 56.4215 118.527 56.2062 117.094 56.2062C116.528 56.2062 116.078 56.2216 115.746 56.2523C115.543 56.3138 115.226 56.3846 114.796 56.4646C114.199 56.4892 113.411 56.5538 112.433 56.6584C112.347 56.6707 112.045 56.7538 111.528 56.9076C111.135 57.0245 110.839 57.083 110.642 57.083C110.433 57.083 110.258 56.9907 110.116 56.8061C110.245 56.523 110.532 56.2769 110.975 56.0677C111.098 56.037 111.35 55.9816 111.731 55.9016C113.977 55.434 115.651 55.2002 116.752 55.2002H116.817C119.222 55.2002 120.425 55.6124 120.425 56.4369C120.425 56.8492 120.154 57.3783 119.613 58.0243C118.709 59.1011 117.524 60.2363 116.06 61.43C114.214 62.9313 112.937 63.9619 112.23 64.5219C111.947 64.7372 111.439 65.1218 110.707 65.6755C110.098 66.1432 109.661 66.5892 109.396 67.0138V67.3276C109.864 67.6229 110.479 67.7706 111.242 67.7706C111.341 67.7706 111.864 67.7244 112.811 67.6321L115.866 67.3368C117.829 67.1461 120.305 67.0507 123.296 67.0507C126.434 67.0507 128.285 67.3981 128.851 68.0934Z" fill="#6CAD55"/>
<path d="M136.761 68.1487C136.533 68.4194 136.238 68.5548 135.875 68.5548H132.608C131.851 68.5548 131.008 68.441 130.079 68.2133C128.861 67.918 128.172 67.5457 128.012 67.0966C127.833 66.592 127.744 66.109 127.744 65.6476C127.744 64.7185 128.144 64.0048 128.944 63.5064C129.621 63.0757 130.445 62.8604 131.417 62.8604C132.254 62.8604 132.918 63.0419 133.411 63.4049C133.903 63.7617 134.149 64.2509 134.149 64.8723C134.149 65.2169 133.558 65.5953 132.377 66.0075C131.399 66.3583 130.688 66.5336 130.245 66.5336C130.19 66.5336 130.14 66.5305 130.097 66.5244C130.097 66.6105 130.03 66.7151 129.894 66.8382C129.968 66.9612 130.328 67.1027 130.974 67.2627C131.553 67.4104 131.965 67.4842 132.211 67.4842H135.146C135.146 67.4904 135.515 67.5457 136.253 67.6503C136.487 67.798 136.657 67.9641 136.761 68.1487ZM132.959 64.4663C132.614 64.1156 132.06 63.9403 131.297 63.9403C130.762 63.9403 130.267 64.0449 129.811 64.2541C129.221 64.5248 128.925 64.8909 128.925 65.3524C128.925 65.5185 128.981 65.6354 129.091 65.7031H129.682C129.891 65.7031 130.457 65.5277 131.38 65.177C132.303 64.8263 132.829 64.5894 132.959 64.4663Z" fill="#6CAD55"/>
<path d="M145.637 63.8592L145.342 64.1268C144.696 63.9238 144.195 63.8223 143.838 63.8223C143.813 63.8223 143.789 63.8223 143.764 63.8223C143.302 63.8469 142.964 63.8592 142.749 63.8592H142.01C141.998 63.8592 141.783 63.9269 141.364 64.0622C141.1 64.0807 140.709 64.1484 140.192 64.2653C139.368 64.6283 138.876 65.2682 138.716 66.185C138.648 66.548 138.614 66.8679 138.614 67.1448C138.614 67.2186 138.617 67.2925 138.623 67.3663C138.672 68.0493 138.697 68.4523 138.697 68.5753C138.556 68.6122 138.328 68.6492 138.014 68.6861C137.842 68.3538 137.756 68.1231 137.756 67.9939C137.756 67.9262 137.771 67.7508 137.802 67.4678C137.82 67.1848 137.83 66.9941 137.83 66.8956C137.83 66.3788 138.057 65.4897 138.512 64.2284C138.666 63.9084 138.888 63.6469 139.177 63.4439C139.805 63.0132 140.964 62.7979 142.656 62.7979C144.355 62.804 145.348 63.0286 145.638 63.4716L145.637 63.8592Z" fill="#6CAD55"/>
<path d="M157 65.2704C157 65.9287 156.861 66.4917 156.585 66.9593C156.332 67.3839 155.437 67.8023 153.899 68.2145C152.527 68.5837 151.484 68.7683 150.77 68.7683C149.933 68.7683 149.106 68.5683 148.288 68.1684C147.297 67.6762 146.802 67.064 146.802 66.3318C146.802 66.0057 146.989 65.6734 147.365 65.335C147.697 65.095 148.198 64.6428 148.869 63.9783C149.312 63.4368 150.124 63 151.306 62.6677C152.302 62.3847 153.234 62.2432 154.102 62.2432C154.336 62.2432 154.687 62.3447 155.154 62.5477C155.622 62.7631 155.942 62.96 156.114 63.1384C156.286 63.3291 156.477 63.6737 156.686 64.1721C156.895 64.6643 157 65.0304 157 65.2704ZM156.059 65.1965C156.059 64.7412 155.785 64.3075 155.237 63.8952C154.733 63.5076 154.234 63.3138 153.742 63.3138C153.65 63.3138 152.933 63.4461 151.592 63.7106C151.075 63.8152 150.604 64.0152 150.179 64.3105C148.727 65.3442 148.001 66.0579 148.001 66.4517C148.001 66.784 148.398 67.0855 149.192 67.3562C149.869 67.59 150.419 67.7069 150.844 67.7069C151.478 67.7069 152.367 67.5777 153.511 67.3193C154.557 67.0855 155.302 66.7317 155.745 66.2579C155.954 66.0426 156.059 65.6888 156.059 65.1965Z" fill="#6CAD55"/>
<path d="M31.9998 0.00162829C31.9539 0.00193714 31.8855 0.0105251 31.848 0.0206862C31.8104 0.0307238 31.7469 0.054944 31.7067 0.0745188C31.6665 0.0940998 31.5987 0.142775 31.5559 0.18283C31.5133 0.222884 31.4597 0.28664 31.437 0.324501C31.4093 0.370995 31.1672 1.07562 30.6942 2.48625C30.3082 3.63727 29.9749 4.64282 29.9535 4.72077C29.932 4.79869 29.8972 4.94061 29.8762 5.03628C29.8551 5.13184 29.8234 5.30573 29.8055 5.42265C29.7878 5.53947 29.7656 5.7047 29.7563 5.78969C29.7459 5.8868 29.7396 6.11192 29.7396 6.39501C29.7396 6.67989 29.7458 6.90269 29.7565 7.00032C29.7657 7.08532 29.7851 7.23304 29.7993 7.32874C29.8135 7.4243 29.8425 7.58658 29.8635 7.68935C29.8846 7.792 29.9196 7.94269 29.9413 8.02421C29.963 8.1056 30.0068 8.25346 30.0386 8.35264C30.0706 8.45181 30.1272 8.61112 30.1647 8.70683C30.2022 8.80239 30.2627 8.94729 30.2992 9.0288C30.3358 9.1102 30.4066 9.25508 30.4568 9.35077C30.5069 9.44633 30.5914 9.59702 30.6445 9.68562C30.6977 9.7741 30.7847 9.91036 30.838 9.98828C30.8913 10.0662 30.9727 10.1792 31.019 10.2394C31.0652 10.2996 31.1581 10.4155 31.2254 10.497C31.2928 10.5784 31.4348 10.7335 31.541 10.8415C31.6902 10.9934 31.7277 11.0379 31.7058 11.0379C31.6904 11.0379 31.6212 11.0296 31.5521 11.0192C31.4831 11.0089 31.334 10.9887 31.2207 10.9744C31.1073 10.9601 30.9248 10.9391 30.815 10.9279L30.6153 10.9075L29.6945 10.6304C29.1881 10.4781 28.478 10.2644 28.1168 10.1556C27.7556 10.0469 27.1036 9.85085 26.668 9.71988C26.2324 9.5889 25.8035 9.4641 25.7149 9.44258C25.6264 9.42093 25.4757 9.389 25.38 9.37162C25.2845 9.35411 25.1338 9.33079 25.0452 9.31971C24.9567 9.30878 24.8031 9.29306 24.7039 9.28494C24.5894 9.27568 24.3684 9.27296 24.0986 9.27747C23.787 9.28275 23.6155 9.29177 23.456 9.31108C23.3363 9.32563 23.1508 9.35268 23.0438 9.37109C22.9369 9.3895 22.7624 9.42441 22.6562 9.44862C22.5499 9.47284 22.3808 9.51585 22.2805 9.54419C22.1802 9.57251 22.0207 9.62224 21.9263 9.65444C21.8319 9.68676 21.6591 9.75089 21.5421 9.797C21.4253 9.84324 21.1905 9.94975 21.0205 10.0337C20.8505 10.1178 20.6217 10.2408 20.5118 10.307C20.4021 10.3732 20.26 10.4624 20.1963 10.5055C20.1325 10.5484 20.0108 10.6354 19.9258 10.6988C19.8408 10.7623 19.6998 10.8737 19.6123 10.9464C19.525 11.0192 19.3693 11.1609 19.2664 11.2611C19.1635 11.3614 19.0229 11.5072 18.9541 11.5852C18.8852 11.6632 18.7822 11.7859 18.7251 11.8579C18.6681 11.9299 18.5832 12.0436 18.5365 12.1106C18.4898 12.1774 18.4175 12.2866 18.3757 12.3531C18.3339 12.4195 17.7389 13.4679 17.0534 14.6827C16.3679 15.8975 15.7906 16.9262 15.7707 16.9687C15.7506 17.0113 15.7283 17.0773 15.7211 17.1154C15.7138 17.1535 15.7081 17.2143 15.7081 17.2506C15.7082 17.2868 15.7171 17.3535 15.7278 17.399C15.7385 17.4443 15.7658 17.5168 15.7884 17.56C15.8111 17.6031 15.8647 17.6734 15.9073 17.7162C15.9533 17.7624 16.0188 17.8111 16.0686 17.836C16.1208 17.8622 16.6914 18.0398 17.5883 18.309C18.3781 18.5461 19.0812 18.7577 19.1506 18.7791L19.2771 18.8181L19.1699 18.9345C19.1111 18.9985 18.9882 19.1359 18.8969 19.2397C18.8056 19.3435 18.6602 19.5155 18.5738 19.6217C18.4874 19.728 18.3471 19.9076 18.2622 20.021C18.1773 20.1343 18.0612 20.2936 18.0041 20.3752C17.9471 20.4566 17.8339 20.6246 17.7526 20.7487C17.6713 20.8725 17.5527 21.061 17.4891 21.1672C17.4253 21.2735 17.3424 21.4154 17.3047 21.4827L17.236 21.6051L17.0665 21.7062C16.9734 21.7617 16.826 21.858 16.739 21.9201C16.652 21.9822 16.5126 22.0889 16.4293 22.1572C16.3458 22.2255 16.1996 22.3581 16.1043 22.452C16.009 22.5458 15.9042 22.6525 15.8715 22.6891L15.8108 22.7558L15.7107 22.6504C15.6556 22.5925 15.5613 22.4971 15.5011 22.4382C15.4407 22.3792 15.3329 22.2803 15.2618 22.2182C15.1907 22.1563 15.0747 22.0621 15.0043 22.0088C14.9338 21.9557 14.824 21.8772 14.7601 21.8348C14.6964 21.7922 14.5929 21.7271 14.5301 21.6903C14.4676 21.6532 14.3524 21.5911 14.2744 21.552C14.1963 21.5129 14.071 21.4559 13.9955 21.4253C13.9202 21.3947 13.7949 21.3489 13.7171 21.3234C13.639 21.2979 13.503 21.2599 13.4143 21.2391C13.3258 21.2182 13.1896 21.1916 13.1118 21.18C13.0339 21.1685 12.885 21.1544 12.7809 21.1486C12.6769 21.1428 12.4985 21.1429 12.3844 21.1489C12.2704 21.1549 12.1034 21.1718 12.0133 21.1864C11.9233 21.2009 11.7773 21.2308 11.6886 21.2528C11.6002 21.275 11.4553 21.3177 11.3667 21.348C11.2782 21.3783 11.1303 21.4372 11.0382 21.4792C10.9462 21.5211 10.8013 21.5949 10.7163 21.643C10.6313 21.6912 10.4951 21.7761 10.4136 21.8316C10.3322 21.8872 10.2249 21.9649 10.1754 22.0044C10.1258 22.0438 10.0226 22.1321 9.94598 22.2006C9.86948 22.269 9.74571 22.3929 9.67101 22.4759C9.59631 22.559 9.50035 22.6722 9.45772 22.7277C9.41509 22.7831 9.35044 22.8718 9.31413 22.9249C9.2778 22.978 9.21418 23.0765 9.17284 23.1438C9.1315 23.2112 9.05229 23.359 8.99692 23.4724C8.94153 23.5857 8.86709 23.7566 8.83142 23.8523C8.79587 23.9479 8.74899 24.0894 8.72735 24.1669C8.70558 24.2441 8.67378 24.3746 8.65652 24.4566C8.63926 24.5387 8.61569 24.6724 8.60436 24.7539C8.5929 24.8353 8.57885 24.9999 8.57294 25.1196C8.56713 25.2393 8.56729 25.4305 8.57325 25.5446C8.5793 25.6586 8.59319 25.8185 8.60428 25.9001C8.61524 25.9815 8.63893 26.1264 8.65696 26.2218C8.67487 26.3173 8.70925 26.4709 8.73307 26.5631C8.75704 26.6553 8.80223 26.809 8.83353 26.9047C8.86482 27.0002 8.91789 27.1481 8.95151 27.2331C8.98512 27.3181 9.06896 27.5035 9.13786 27.6452C9.20663 27.7869 9.31121 27.9839 9.37033 28.0831C9.42932 28.1823 9.52977 28.3416 9.59352 28.4373C9.65714 28.5328 9.77305 28.6951 9.8511 28.7979C9.92902 28.9005 10.0484 29.051 10.1161 29.132C10.1839 29.213 10.294 29.3405 10.3607 29.4153C10.4274 29.4901 10.6246 29.6935 10.7987 29.8674C10.9728 30.0411 11.208 30.2665 11.3211 30.3681C11.4341 30.4699 11.6428 30.6525 11.7847 30.7741C11.9266 30.8956 12.1905 31.1168 12.3711 31.2653C12.5518 31.4139 12.7748 31.5928 12.8669 31.6628C12.959 31.7329 13.1213 31.8608 13.2275 31.9471C13.3338 32.0334 13.5192 32.19 13.6397 32.2952C13.7601 32.4003 14.027 32.6546 14.2329 32.8605C14.4387 33.0663 14.6914 33.3313 14.7944 33.4494C14.8974 33.5675 15.0507 33.7502 15.1349 33.8551C15.2193 33.9602 15.3191 34.076 15.3567 34.1125C15.3944 34.1489 15.4626 34.1971 15.5082 34.2195C15.5538 34.242 15.6359 34.2696 15.6908 34.2808C15.7722 34.2975 15.8083 34.2987 15.8873 34.2874C15.9406 34.2796 16.0173 34.261 16.0577 34.2459C16.098 34.2308 16.1656 34.193 16.2079 34.1619C16.2649 34.1198 16.3273 34.0486 16.4521 33.8826C16.5442 33.7601 16.6397 33.6366 16.6645 33.6082L16.7094 33.5567L16.7312 33.6082C16.7432 33.6366 16.7961 33.7525 16.8489 33.8658C16.9017 33.9792 16.997 34.1726 17.0608 34.2956C17.1245 34.4187 17.2175 34.5926 17.2675 34.682C17.3174 34.7715 17.4135 34.9374 17.4811 35.0507C17.5486 35.164 17.682 35.3755 17.7775 35.5208C17.8729 35.6659 18.0151 35.8743 18.0935 35.9838C18.172 36.0931 18.2996 36.2641 18.3771 36.3637C18.4545 36.4633 18.5776 36.617 18.6506 36.7057C18.7235 36.7941 18.8364 36.9274 18.9013 37.0019C18.9663 37.0762 19.1216 37.2466 19.2467 37.3804C19.3716 37.5142 19.5754 37.72 19.6993 37.8377C19.8233 37.9554 20.0074 38.1252 20.1084 38.2151C20.2095 38.305 20.3846 38.4544 20.4975 38.5471C20.6103 38.6398 20.8203 38.8039 20.964 38.9118C21.1079 39.0196 21.3559 39.1953 21.5152 39.3021C21.6747 39.409 21.8948 39.5514 22.0046 39.6188C22.1145 39.6861 22.3144 39.8033 22.449 39.8795C22.5835 39.9554 22.8617 40.1008 23.0671 40.2026C23.2726 40.3043 23.5633 40.4399 23.7132 40.5038C23.8631 40.5678 24.0986 40.6634 24.2368 40.7164C24.375 40.7694 24.6088 40.8532 24.7564 40.9028C24.904 40.9523 25.1378 41.0254 25.2759 41.0653C25.4141 41.1053 25.6401 41.1662 25.7782 41.2006C25.9164 41.2351 26.125 41.2838 26.2418 41.3086C26.3588 41.3335 26.55 41.3711 26.6668 41.3921C26.7838 41.4132 26.9808 41.445 27.1047 41.4629C27.2287 41.4808 27.4344 41.5072 27.5619 41.5215C27.6894 41.5358 27.9097 41.5568 28.0513 41.568C28.1985 41.5797 28.5435 41.5916 28.8563 41.5957C29.1955 41.6002 29.5114 41.5973 29.6869 41.5881C29.8428 41.5801 30.0718 41.5648 30.1957 41.5541C30.3197 41.5434 30.5428 41.52 30.6915 41.5019C30.8403 41.4839 31.0953 41.4467 31.2582 41.4191C31.4211 41.3917 31.6559 41.3483 31.7798 41.3228C31.9038 41.2974 32.121 41.2481 32.2627 41.2132C32.4044 41.1784 32.6334 41.1176 32.7715 41.0782C32.9097 41.0387 33.1588 40.9608 33.3253 40.9051C33.4918 40.8494 33.7294 40.7648 33.8533 40.7172C33.9773 40.6696 34.1946 40.5815 34.3363 40.5213C34.4779 40.4612 34.7619 40.3297 34.9673 40.2291C35.1728 40.1285 35.448 39.9865 35.5791 39.9134C35.7102 39.8404 35.8899 39.737 35.9784 39.6835C36.067 39.6301 36.2379 39.5231 36.3583 39.4457C36.4787 39.3682 36.6595 39.2473 36.7603 39.177C36.861 39.1067 37.0291 38.9848 37.1338 38.9059C37.2385 38.8272 37.3937 38.7071 37.4785 38.6389C37.5634 38.5709 37.7199 38.4407 37.8263 38.3497C37.9326 38.2586 38.1215 38.0895 38.2459 37.9739C38.3703 37.8582 38.5615 37.6716 38.6709 37.5593C38.7802 37.447 38.9453 37.2713 39.0378 37.1689C39.1303 37.0664 39.2552 36.9246 39.3156 36.8538C39.3759 36.7829 39.5036 36.6264 39.5994 36.506C39.6951 36.3856 39.8373 36.2002 39.9151 36.0939C39.993 35.9877 40.1235 35.8022 40.205 35.6818C40.2865 35.5614 40.4077 35.3759 40.4741 35.2697C40.5405 35.1634 40.6662 34.9518 40.7534 34.7996C40.8406 34.6472 40.9807 34.3864 41.0648 34.22C41.1488 34.0535 41.2623 33.8189 41.3169 33.6984C41.3715 33.578 41.4556 33.3838 41.504 33.267C41.5523 33.15 41.6275 32.9588 41.6713 32.842C41.715 32.725 41.7873 32.5194 41.8323 32.3848C41.8771 32.2502 41.9459 32.03 41.985 31.8954C42.024 31.7608 42.0821 31.5463 42.1141 31.4188C42.1459 31.2913 42.1893 31.1087 42.2105 31.0131C42.2317 30.9174 42.2693 30.732 42.2941 30.601C42.3189 30.4699 42.3566 30.244 42.378 30.0987C42.3992 29.9535 42.4286 29.7246 42.4431 29.59C42.4577 29.4554 42.4787 29.2322 42.4896 29.0942C42.5006 28.956 42.5128 28.6054 42.5168 28.315C42.5214 27.9853 42.5187 27.6782 42.5093 27.4972C42.5011 27.3377 42.4858 27.1059 42.4752 26.982C42.4646 26.858 42.4412 26.6349 42.423 26.4862C42.4049 26.3374 42.3702 26.0954 42.346 25.9484C42.3218 25.8013 42.2814 25.5782 42.2563 25.4525C42.231 25.3268 42.1792 25.0957 42.141 24.9387C42.1027 24.7817 42.042 24.5498 42.0058 24.4235C41.9696 24.2972 41.899 24.0691 41.849 23.9169C41.7991 23.7645 41.7156 23.5269 41.6637 23.3888C41.6118 23.2506 41.5314 23.0464 41.4849 22.9348C41.4385 22.8233 41.3479 22.6177 41.2836 22.4776C41.2195 22.3378 41.1071 22.1073 41.0339 21.9657C40.9609 21.824 40.8777 21.6675 40.8492 21.6179C40.8208 21.5684 40.8013 21.5239 40.806 21.5192C40.8106 21.5145 41.2651 21.2115 41.8156 20.8458C42.3663 20.4804 42.8247 20.1782 42.8341 20.1746C42.8457 20.1702 42.893 20.243 42.9786 20.3971C43.0487 20.5231 43.1816 20.7769 43.2741 20.9611C43.3664 21.1453 43.5038 21.4351 43.5793 21.605C43.6548 21.775 43.7628 22.0301 43.8193 22.1717C43.8759 22.3134 43.9605 22.5353 44.0075 22.6649C44.0545 22.7944 44.1221 22.9885 44.1578 23.0963C44.1935 23.204 44.2574 23.4081 44.2999 23.5498C44.3422 23.6915 44.4142 23.9523 44.4597 24.1294C44.5052 24.3064 44.5683 24.5716 44.6001 24.7186C44.6318 24.8657 44.6781 25.0975 44.7031 25.2337C44.728 25.3701 44.7627 25.5772 44.7802 25.6942C44.7979 25.811 44.8239 25.9994 44.8381 26.1127C44.8524 26.2261 44.8727 26.4057 44.8835 26.512C44.8942 26.6182 44.9117 26.8239 44.9224 26.9692C44.9332 27.1143 44.9479 27.4275 44.9553 27.6651C44.9644 27.9622 44.9644 28.2294 44.9553 28.5215C44.9479 28.755 44.9334 29.0678 44.9228 29.2165C44.9123 29.3653 44.8976 29.5478 44.8902 29.6223C44.8829 29.6967 44.8651 29.856 44.851 29.9764C44.8368 30.0969 44.8076 30.3141 44.786 30.4594C44.7645 30.6047 44.7241 30.8468 44.6963 30.9975C44.6684 31.1483 44.6224 31.3772 44.5936 31.5062C44.5649 31.6353 44.5125 31.8563 44.4772 31.9972C44.4418 32.1382 44.376 32.3816 44.3308 32.5381C44.2857 32.6947 44.2053 32.9531 44.1524 33.1125C44.0993 33.2718 44.0083 33.5297 43.9501 33.6856C43.8917 33.8414 43.7904 34.0964 43.7248 34.2523C43.6593 34.4081 43.5633 34.6283 43.5115 34.7417C43.4599 34.855 43.3383 35.1042 43.2416 35.2955C43.1447 35.4867 43.0118 35.7388 42.9463 35.8557C42.8806 35.9725 42.7572 36.1841 42.6722 36.3258C42.5872 36.4674 42.4394 36.7021 42.3438 36.8474C42.2481 36.9925 42.1145 37.1896 42.0468 37.2852C41.9791 37.3808 41.854 37.5518 41.769 37.6652C41.684 37.7785 41.5461 37.9564 41.4626 38.0604C41.379 38.1644 41.2478 38.3238 41.171 38.4146C41.0941 38.5053 40.9481 38.6724 40.8463 38.7857C40.7446 38.899 40.4901 39.163 40.2807 39.3722C40.0713 39.5815 39.7957 39.8452 39.6682 39.9585C39.5407 40.0715 39.3668 40.2222 39.2818 40.2933C39.1968 40.3644 39.0549 40.4806 38.9663 40.5515C38.8778 40.6225 38.7242 40.7415 38.625 40.8159C38.5258 40.8905 38.3717 41.004 38.2824 41.0681C38.1933 41.1321 38.0147 41.2552 37.8855 41.3415C37.7563 41.4278 37.5454 41.5636 37.4167 41.6433C37.2879 41.723 37.0812 41.8464 36.9572 41.9176C36.8333 41.9887 36.6361 42.0982 36.5193 42.1607C36.4025 42.2233 36.1735 42.3394 36.0106 42.4187C35.8477 42.4981 35.6155 42.6066 35.4947 42.6601C35.3739 42.7135 35.1659 42.8015 35.0323 42.8557C34.8989 42.9099 34.6965 42.9892 34.5823 43.0318C34.4684 43.0743 34.2736 43.1437 34.1496 43.1858C34.0257 43.2279 33.8025 43.2994 33.6538 43.3445C33.505 43.3896 33.25 43.4615 33.0871 43.5046C32.9242 43.5476 32.6891 43.6057 32.5648 43.6335C32.4405 43.6613 32.2347 43.7046 32.1076 43.7296C31.9805 43.7545 31.7721 43.7924 31.6446 43.8138C31.5171 43.835 31.3056 43.867 31.1745 43.8849C31.0436 43.9026 30.8262 43.929 30.6916 43.9433C30.557 43.9576 30.3309 43.978 30.1893 43.9885C30.0476 43.9991 29.726 44.0146 29.4745 44.0231C29.12 44.0349 28.9159 44.0349 28.5665 44.0229C28.3186 44.0144 28.0028 43.999 27.8646 43.9885C27.7266 43.9781 27.5006 43.9578 27.3624 43.9433C27.2243 43.9289 26.9665 43.8966 26.7896 43.8716C26.6128 43.8466 26.3434 43.8031 26.1908 43.7749C26.0383 43.7467 25.8034 43.7003 25.6688 43.6717C25.5342 43.6433 25.2792 43.5831 25.1021 43.5379C24.925 43.4928 24.67 43.4236 24.5354 43.384C24.4009 43.3443 24.1435 43.2626 23.9636 43.2022C23.7836 43.1418 23.5316 43.0525 23.4034 43.0038C23.2751 42.9551 23.066 42.8723 22.9385 42.8198C22.811 42.7674 22.5995 42.6759 22.4684 42.6168C22.3374 42.5576 22.0766 42.4324 21.8888 42.3386C21.7012 42.2447 21.4345 42.105 21.2964 42.028C21.1583 41.9511 20.9409 41.8251 20.8134 41.7481C20.6859 41.6712 20.4919 41.5505 20.382 41.4801C20.2722 41.4097 20.0896 41.288 19.9763 41.2095C19.8629 41.1312 19.6688 40.9919 19.5448 40.9C19.4209 40.8082 19.2093 40.6449 19.0747 40.5373C18.9401 40.4295 18.7605 40.2815 18.6755 40.2084C18.5905 40.1356 18.4457 40.0087 18.3538 39.9265C18.2619 39.8445 18.0423 39.6353 17.866 39.4619C17.6897 39.2882 17.4545 39.0478 17.3435 38.9274C17.2324 38.8069 17.0809 38.6389 17.007 38.5537C16.9329 38.4686 16.8186 38.3343 16.7529 38.255C16.6871 38.1758 16.6059 38.0911 16.5726 38.0669C16.5391 38.0425 16.4873 38.0102 16.4574 37.9952C16.4276 37.9801 16.3668 37.9592 16.3222 37.9487C16.2778 37.9382 16.2063 37.9294 16.1635 37.9294C16.1208 37.9294 16.0523 37.938 16.0112 37.9487C15.9702 37.9593 15.9048 37.9832 15.8658 38.0016C15.8268 38.02 15.7591 38.0687 15.7155 38.1096C15.6718 38.1506 15.6163 38.2169 15.5924 38.2569C15.5683 38.2968 15.5379 38.3683 15.5247 38.4157C15.5111 38.4646 15.5008 38.5438 15.5008 38.5992C15.5008 38.6527 15.5097 38.7307 15.5205 38.7724C15.5314 38.814 15.5554 38.8759 15.5739 38.9099C15.5925 38.9441 15.6513 39.0256 15.7049 39.0913C15.7584 39.157 15.8748 39.2946 15.9637 39.3974C16.0525 39.5001 16.2121 39.6797 16.3183 39.7967C16.4245 39.9135 16.6566 40.1541 16.834 40.3312C17.0113 40.5082 17.2693 40.7554 17.4072 40.8806C17.5452 41.0056 17.7449 41.1814 17.8512 41.2713C17.9574 41.3613 18.1255 41.4999 18.2247 41.5795C18.3238 41.6591 18.5007 41.7967 18.6175 41.8851C18.7344 41.9736 18.9118 42.1045 19.0118 42.1758C19.1119 42.2472 19.306 42.3805 19.4433 42.472C19.5806 42.5636 19.8002 42.7054 19.9312 42.7871C20.0623 42.8687 20.2853 43.002 20.427 43.0834C20.5686 43.1647 20.7901 43.2874 20.9188 43.3562C21.0478 43.425 21.294 43.5499 21.4662 43.6337C21.6384 43.7177 21.8866 43.834 22.0175 43.8923C22.1487 43.9507 22.377 44.0474 22.5252 44.1075C22.6735 44.1676 22.9081 44.2589 23.0468 44.3104C23.1855 44.3619 23.4497 44.4539 23.6338 44.5146C23.818 44.5754 24.102 44.6635 24.2649 44.7104C24.4278 44.7574 24.7234 44.8356 24.9217 44.8843C25.12 44.9329 25.4246 45.0017 25.5985 45.0371C25.7725 45.0726 26.0565 45.1246 26.2296 45.1529C26.4028 45.1811 26.6576 45.219 26.7956 45.2371C26.9338 45.2552 27.1598 45.2816 27.2979 45.2958C27.4361 45.3098 27.6707 45.33 27.8195 45.3406C27.9682 45.3511 28.2638 45.3664 28.4763 45.3746C28.707 45.3835 29.0367 45.3861 29.2941 45.3813C29.5315 45.3768 29.8689 45.3645 30.0442 45.3542C30.2195 45.3438 30.4896 45.3236 30.6444 45.3091C30.799 45.2946 31.0409 45.2683 31.1818 45.2507C31.3227 45.2329 31.551 45.2011 31.6894 45.1797C31.8276 45.1585 32.0654 45.1178 32.2177 45.0893C32.37 45.0608 32.6134 45.0114 32.7586 44.9794C32.9038 44.9474 33.1473 44.8894 33.2995 44.8504C33.4518 44.8115 33.7056 44.7422 33.8636 44.6964C34.0215 44.6505 34.2679 44.5748 34.4109 44.528C34.554 44.4813 34.79 44.3999 34.9351 44.347C35.0804 44.2942 35.3122 44.2055 35.4503 44.1503C35.5885 44.095 35.8212 43.9974 35.9675 43.9334C36.1139 43.8694 36.311 43.7807 36.4054 43.7364C36.4999 43.6921 36.7019 43.5924 36.8541 43.5148C37.0063 43.4374 37.2267 43.3217 37.3435 43.2575C37.4603 43.1935 37.6401 43.092 37.7427 43.0321C37.8455 42.9722 38.0194 42.8678 38.1291 42.8001C38.239 42.7323 38.4504 42.5958 38.5992 42.4969C38.7479 42.398 38.974 42.2427 39.1014 42.1517C39.2289 42.0609 39.4289 41.9131 39.5458 41.8232C39.6626 41.7334 39.8626 41.5744 39.9901 41.4698C40.1176 41.3653 40.306 41.2061 40.4086 41.1162C40.5114 41.0263 40.6939 40.8614 40.8143 40.7497C40.9347 40.638 41.1724 40.4053 41.3424 40.2328C41.5124 40.0602 41.73 39.8321 41.826 39.7258C41.9219 39.6196 42.0701 39.4515 42.1554 39.3524C42.2408 39.2532 42.3943 39.0677 42.4968 38.9402C42.5992 38.8127 42.7613 38.6041 42.857 38.4766C42.9527 38.3491 43.0864 38.1665 43.1541 38.0709C43.2219 37.9753 43.3612 37.7695 43.4639 37.6137C43.5665 37.4578 43.7056 37.2404 43.7729 37.1307C43.8402 37.0208 43.9532 36.8296 44.024 36.7057C44.095 36.5817 44.1923 36.4078 44.2405 36.3193C44.2887 36.2307 44.4046 36.0047 44.4981 35.817C44.5916 35.6293 44.7206 35.3598 44.7847 35.2182C44.8489 35.0765 44.9502 34.8417 45.01 34.6966C45.0697 34.5513 45.1577 34.3283 45.2056 34.2008C45.2534 34.0733 45.3236 33.8803 45.3616 33.7721C45.3995 33.664 45.4682 33.4553 45.5142 33.3085C45.5602 33.1617 45.6242 32.9489 45.6566 32.8356C45.689 32.7223 45.7527 32.4814 45.7981 32.3004C45.8435 32.1193 45.9068 31.8469 45.9387 31.695C45.9706 31.5432 46.0173 31.3059 46.0422 31.1678C46.0673 31.0297 46.1023 30.821 46.1198 30.7041C46.1374 30.5872 46.1661 30.3757 46.1838 30.2341C46.2014 30.0924 46.2249 29.8835 46.2359 29.7699C46.2469 29.6563 46.2644 29.4419 46.275 29.2934C46.2854 29.1449 46.3006 28.8162 46.3088 28.563C46.3199 28.216 46.3199 27.9893 46.3088 27.6422C46.3006 27.389 46.2853 27.0601 46.2746 26.9113C46.2639 26.7625 46.2433 26.522 46.2289 26.3768C46.2144 26.2315 46.1884 26.0055 46.1709 25.8745C46.1534 25.7434 46.1243 25.5406 46.1062 25.4238C46.0882 25.3068 46.0513 25.0924 46.024 24.9472C45.9967 24.802 45.9507 24.5736 45.9218 24.4397C45.8929 24.3056 45.8707 24.1946 45.8725 24.1928C45.8744 24.1909 46.3105 24.0873 46.8416 23.9624C47.3729 23.8376 48.0799 23.6713 48.4129 23.593C48.7458 23.5147 49.0842 23.4306 49.1651 23.4063C49.2459 23.3818 49.3841 23.3357 49.4722 23.3037C49.5603 23.2718 49.6936 23.2195 49.7682 23.1876C49.8429 23.1558 49.9829 23.0901 50.0793 23.0417C50.1757 22.9934 50.3039 22.9252 50.364 22.8903C50.4243 22.8553 50.5228 22.7959 50.5829 22.7582C50.6432 22.7205 50.7497 22.6491 50.8197 22.5997C50.8896 22.5501 51.0171 22.4536 51.103 22.3851C51.1889 22.3166 51.3322 22.1931 51.4215 22.1108C51.5109 22.0285 51.6516 21.8863 51.7342 21.795C51.8169 21.7037 51.9395 21.5598 52.0068 21.4754C52.0741 21.391 52.1802 21.2464 52.2428 21.1544C52.3052 21.0623 52.393 20.926 52.4375 20.8517C52.4821 20.7773 52.563 20.6295 52.6173 20.5233C52.6718 20.417 52.7462 20.2589 52.7828 20.1719C52.8194 20.085 52.876 19.9401 52.9088 19.85C52.9413 19.7598 52.9934 19.5984 53.0242 19.4913C53.0549 19.384 53.1007 19.1957 53.1256 19.0727C53.1506 18.9496 53.1836 18.7591 53.1987 18.6494C53.2217 18.4831 53.2273 18.3681 53.2318 17.9603C53.2349 17.6912 53.2287 16.7001 53.2184 15.758C53.2017 14.2654 53.1966 14.0353 53.1786 13.9689C53.1672 13.927 53.1398 13.8588 53.1178 13.8173C53.0942 13.7732 53.0414 13.7077 52.9903 13.6595C52.9386 13.6108 52.8699 13.5616 52.8216 13.5388C52.7767 13.5177 52.7095 13.494 52.6719 13.4863C52.6344 13.4784 52.5682 13.472 52.525 13.472C52.4705 13.472 52.287 13.5096 51.93 13.5938C51.646 13.6608 50.7965 13.8609 50.042 14.0384C49.2877 14.2159 48.624 14.373 48.5674 14.3876C48.5107 14.4021 48.392 14.4373 48.3034 14.4657C48.2149 14.4943 48.0553 14.5518 47.9491 14.5935C47.8427 14.6352 47.6624 14.7152 47.5484 14.7711C47.4344 14.8271 47.2779 14.9093 47.2008 14.9537C47.1237 14.9982 46.9957 15.0771 46.9162 15.1291C46.8369 15.1813 46.7032 15.2752 46.6192 15.3378C46.5352 15.4004 46.4031 15.5057 46.3257 15.5718C46.2482 15.6377 46.1008 15.7763 45.998 15.8797C45.8954 15.983 45.7557 16.1341 45.6877 16.2155C45.6195 16.2967 45.5206 16.4213 45.4677 16.4921C45.4146 16.563 45.3402 16.6673 45.3021 16.7239C45.2641 16.7806 45.1846 16.9079 45.1256 17.0069C45.0666 17.1058 44.9727 17.2797 44.9171 17.3933C44.8613 17.5067 44.778 17.6954 44.7319 17.8122C44.6858 17.929 44.6246 18.1001 44.596 18.1922C44.5676 18.2842 44.5294 18.4146 44.5117 18.4819C44.4938 18.5492 44.4617 18.6912 44.4403 18.7975C44.4191 18.9037 44.3896 19.0804 44.3746 19.1902C44.356 19.3287 44.3456 19.4937 44.3405 19.7287L44.3332 20.0675L44.3048 20.0185C44.2894 19.9915 44.211 19.8505 44.1306 19.7054C44.0504 19.5601 43.9181 19.3312 43.8368 19.1966C43.7554 19.0621 43.6143 18.8365 43.523 18.6957C43.4317 18.5546 43.2897 18.3431 43.2075 18.2256C43.1253 18.108 42.9825 17.9103 42.8903 17.7864C42.7981 17.6624 42.6559 17.4769 42.5743 17.3743C42.4927 17.2715 42.3679 17.118 42.2969 17.033C42.226 16.948 42.1299 16.8349 42.0835 16.7819C42.0372 16.7287 41.9214 16.5983 41.8262 16.4921C41.731 16.3858 41.4673 16.1131 41.2402 15.8859C41.013 15.6588 40.7402 15.3949 40.634 15.2996C40.5277 15.2043 40.3597 15.0567 40.2605 14.9717C40.1613 14.8869 39.9788 14.7358 39.8548 14.6364C39.7309 14.5368 39.5455 14.3917 39.4427 14.3139C39.34 14.236 39.1662 14.1085 39.0563 14.0305C38.9466 13.9525 38.7524 13.8191 38.6248 13.7341C38.4973 13.6489 38.3149 13.5302 38.2191 13.4701C38.1235 13.4099 37.9671 13.3141 37.8714 13.257C37.7757 13.2 37.6483 13.1257 37.5881 13.0921C37.5278 13.0583 37.4769 13.0293 37.4749 13.0275C37.4727 13.026 37.7409 12.2196 38.0709 11.2358C38.4007 10.2521 38.6908 9.37482 38.7153 9.2863C38.7399 9.19769 38.7776 9.0412 38.7994 8.93856C38.8211 8.83579 38.8504 8.67647 38.8645 8.58438C38.8787 8.49229 38.8987 8.33581 38.9088 8.23664C38.919 8.13748 38.931 7.93168 38.9355 7.77943C38.9405 7.61162 38.938 7.41122 38.9285 7.27069C38.9203 7.14319 38.9019 6.94616 38.8877 6.83281C38.8735 6.71948 38.8392 6.51365 38.8113 6.37559C38.7835 6.2374 38.7431 6.06069 38.7213 5.9828C38.6997 5.90488 38.6555 5.75999 38.6232 5.66082C38.5907 5.56165 38.5324 5.39937 38.4932 5.30021C38.4542 5.20104 38.3718 5.01546 38.3101 4.88768C38.2484 4.75993 38.1526 4.57742 38.0972 4.48198C38.0417 4.38655 37.9537 4.24358 37.9016 4.16411C37.8494 4.08478 37.7551 3.95071 37.6922 3.86623C37.6291 3.78174 37.5296 3.65541 37.4712 3.58561C37.4127 3.51568 37.3035 3.39229 37.2285 3.31153C37.1536 3.23065 37.0169 3.09517 36.9248 3.01029C36.8328 2.92542 36.6844 2.7974 36.595 2.72579C36.5056 2.65419 36.3729 2.55283 36.2997 2.50054C36.2266 2.44811 35.3637 1.91864 34.3822 1.32377C33.4023 0.727319 32.543 0.20725 32.4758 0.16642C32.4086 0.125723 32.3299 0.0799991 32.2998 0.0649427C32.2696 0.0498709 32.2094 0.0289887 32.1654 0.0184477C32.1191 0.00800867 32.0473 -0.000358764 32.0009 1.1854e-05L31.9998 0.00162829ZM30.878 12.287C30.8912 12.287 31.0336 12.3045 31.1947 12.326C31.356 12.3474 31.6054 12.3851 31.7493 12.4097C31.8932 12.4343 32.1391 12.4808 32.2959 12.5131C32.4528 12.5453 32.7211 12.6064 32.8921 12.6489C33.0632 12.6914 33.3249 12.7609 33.4737 12.8034C33.6224 12.8461 33.8978 12.9321 34.0855 12.9946C34.2731 13.0572 34.5445 13.1527 34.6883 13.2071C34.8321 13.2614 35.0581 13.3513 35.1906 13.4068C35.323 13.4625 35.5282 13.5518 35.6467 13.6055C35.765 13.6592 36.0078 13.7762 36.186 13.8653C36.3642 13.9544 36.615 14.0856 36.7434 14.1565C36.8718 14.2276 37.0854 14.3503 37.2182 14.4294C37.351 14.5084 37.4537 14.575 37.4468 14.5773C37.4397 14.5797 37.3539 14.5754 37.2562 14.5676C37.1584 14.56 36.9712 14.5537 36.8402 14.5537C36.7092 14.5537 36.5241 14.5598 36.4288 14.5671C36.3335 14.5746 36.1599 14.5943 36.0431 14.611C35.9263 14.6278 35.7349 14.6628 35.6181 14.6888C35.5013 14.715 35.3216 14.7624 35.2188 14.794C35.1162 14.8259 34.9539 14.8811 34.8582 14.9169C34.7625 14.9526 34.6039 15.0185 34.5056 15.0633C34.4072 15.1083 34.2508 15.1865 34.1579 15.2373C34.0649 15.2882 33.9362 15.3638 33.872 15.4053L33.755 15.4809L33.5178 15.3968C33.3873 15.3505 33.1589 15.2755 33.0101 15.2301C32.8614 15.1847 32.6312 15.1186 32.4986 15.0832C32.366 15.0479 32.1397 14.9926 31.9958 14.9606C31.8518 14.9285 31.622 14.8816 31.4851 14.8566C31.3481 14.8315 31.1165 14.7938 30.9704 14.7727C30.8243 14.7517 30.5918 14.7231 30.4536 14.709C30.3156 14.695 30.1011 14.6771 29.9771 14.6691C29.8532 14.6612 29.7008 14.6508 29.6388 14.6461L29.5258 14.6375L30.0168 13.7681C30.2867 13.2899 30.5856 12.7611 30.681 12.5929C30.8092 12.3666 30.8604 12.287 30.878 12.287ZM29.2365 15.979C29.4065 15.9821 29.6441 15.9902 29.7645 15.9972C29.8849 16.0043 30.0993 16.0215 30.241 16.0355C30.3827 16.0496 30.6058 16.0758 30.7368 16.0938C30.8679 16.1119 31.0838 16.1465 31.2167 16.1709C31.3496 16.1952 31.5525 16.236 31.6675 16.2615C31.7825 16.287 31.9636 16.3302 32.0699 16.3573C32.1762 16.3846 32.2767 16.412 32.2933 16.4181C32.3198 16.4279 32.2173 16.4997 31.4336 17.0192C30.7377 17.4805 30.5291 17.625 30.4762 17.6823C30.4389 17.7225 30.3926 17.7881 30.3731 17.828C30.3537 17.8678 30.3291 17.934 30.3184 17.9749C30.3077 18.016 30.2989 18.0876 30.2989 18.1343C30.2989 18.1809 30.3078 18.2531 30.3186 18.2947C30.3295 18.3363 30.3568 18.4056 30.3793 18.4488C30.4055 18.4987 30.4624 18.5692 30.5367 18.6436C30.6007 18.7076 30.9893 19.0818 31.4001 19.475C31.8109 19.8681 32.4354 20.466 32.7879 20.8037C33.1403 21.1414 33.4938 21.472 33.5736 21.5385C33.6531 21.6049 33.7734 21.6998 33.8406 21.7492C33.908 21.7986 34.0123 21.871 34.0725 21.9099C34.1327 21.9489 34.2391 22.0143 34.3089 22.0553C34.3787 22.0964 34.5352 22.1779 34.6567 22.2365C34.7781 22.295 34.9615 22.3751 35.0642 22.4142C35.1669 22.4535 35.3291 22.5091 35.4248 22.538C35.5205 22.5668 35.6796 22.6082 35.7787 22.63C35.8777 22.6516 35.961 22.6717 35.9637 22.6744C35.9665 22.6772 35.9322 22.7447 35.8876 22.8248C35.8431 22.9048 35.7519 23.0621 35.6849 23.1742C35.6181 23.2863 35.4929 23.4833 35.4069 23.6121C35.3208 23.7408 35.1896 23.9294 35.1154 24.0312C35.0412 24.1329 34.906 24.3097 34.8149 24.424C34.7239 24.5382 34.5993 24.6829 34.538 24.7454C34.4767 24.808 34.3747 24.9029 34.3114 24.9565C34.2479 25.0101 34.1407 25.0948 34.0731 25.1448C34.0055 25.1948 33.8772 25.2832 33.7882 25.3416C33.6992 25.3998 33.5291 25.5032 33.4102 25.5715C33.2914 25.6396 33.0782 25.7535 32.9364 25.8244C32.7946 25.8954 32.5941 25.9912 32.4908 26.0376C32.3874 26.0838 32.2331 26.1505 32.1477 26.1858C32.0623 26.2211 31.9085 26.282 31.8058 26.3212C31.7031 26.3603 31.5089 26.4297 31.3743 26.4753C31.2397 26.5209 31.0416 26.5838 30.9342 26.6149C30.8268 26.6461 30.6558 26.692 30.5543 26.7168C30.4528 26.7417 30.2886 26.7767 30.1895 26.7947C30.0903 26.8128 29.96 26.8337 29.8997 26.8413C29.8368 26.8495 29.4323 26.8583 28.9499 26.8622C28.402 26.8667 27.9985 26.8641 27.7907 26.8542C27.6155 26.8461 27.388 26.8309 27.2853 26.8207C27.1826 26.8104 27.0521 26.7959 26.9955 26.7884C26.9388 26.7809 26.8319 26.7634 26.7581 26.7494C26.6842 26.7353 26.5769 26.712 26.5199 26.6975C26.4627 26.6831 26.3638 26.6534 26.3 26.6317C26.2363 26.6099 26.1321 26.5664 26.0683 26.535C26.0047 26.5035 25.9122 26.4509 25.8628 26.418C25.8133 26.3852 25.7331 26.3208 25.6844 26.2748C25.6359 26.229 25.5595 26.1427 25.5148 26.0832C25.4701 26.0237 25.4043 25.919 25.3685 25.8506C25.3328 25.7822 25.2769 25.6584 25.2446 25.5755C25.2121 25.4925 25.1622 25.343 25.1336 25.2434C25.105 25.1437 25.062 24.9681 25.038 24.8534C25.0142 24.7385 24.9798 24.5489 24.9616 24.4321C24.9435 24.3152 24.9083 24.0384 24.8832 23.817C24.8582 23.5955 24.8229 23.3261 24.8046 23.2181C24.7865 23.1102 24.749 22.9319 24.7213 22.8222C24.6938 22.7124 24.6531 22.5675 24.631 22.5003C24.609 22.4329 24.5705 22.3257 24.5455 22.262C24.5205 22.199 24.4631 22.0737 24.4179 21.9843C24.3725 21.8949 24.2949 21.7607 24.2453 21.6861C24.1957 21.6116 24.1008 21.4876 24.0343 21.4107C23.9681 21.3341 23.8617 21.2257 23.7983 21.1703C23.7348 21.1149 23.6389 21.0366 23.5854 20.9963C23.5314 20.9563 23.4279 20.8861 23.3547 20.8402C23.2817 20.7948 23.1344 20.7121 23.0271 20.6568C22.9201 20.6016 22.755 20.521 22.66 20.4777C22.5653 20.4344 22.366 20.3471 22.2174 20.2836C22.0686 20.2201 21.8136 20.1027 21.6506 20.023C21.4877 19.9433 21.279 19.8361 21.187 19.7846C21.0948 19.7332 20.919 19.6292 20.7963 19.5537L20.573 19.4166L20.6531 19.3424C20.6972 19.3017 20.7413 19.2684 20.7513 19.2684C20.7612 19.2684 20.8256 19.2851 20.8944 19.3056C20.9633 19.326 21.1093 19.3636 21.2191 19.3889C21.329 19.4143 21.5085 19.4497 21.6184 19.4674C21.7282 19.4851 21.9107 19.5095 22.0241 19.5213C22.1692 19.5367 22.3462 19.5431 22.6229 19.5432C22.9018 19.5435 23.0812 19.537 23.2411 19.5212C23.3652 19.5089 23.5448 19.4875 23.6404 19.4737C23.7361 19.4598 23.8896 19.4335 23.9817 19.4154C24.0737 19.3972 24.23 19.3623 24.3289 19.3378C24.4278 19.3134 24.5669 19.2764 24.638 19.2556C24.7091 19.2349 24.8536 19.1885 24.9589 19.1526C25.0644 19.1167 25.2383 19.0522 25.3453 19.0091C25.4524 18.9661 25.6617 18.8717 25.8105 18.7991C25.9592 18.7266 26.1679 18.6162 26.2741 18.5539C26.3804 18.4915 26.545 18.3888 26.64 18.3255C26.7349 18.2623 26.8654 18.1714 26.9298 18.1236C26.9942 18.0757 27.1279 17.9703 27.2268 17.8893C27.3258 17.8084 27.5143 17.6351 27.6458 17.504C27.7775 17.3729 27.9405 17.199 28.0081 17.1176C28.0759 17.0362 28.1748 16.9115 28.228 16.8407C28.2812 16.7699 28.3683 16.6452 28.4218 16.5638C28.4752 16.4824 28.5736 16.32 28.6405 16.2032L28.7619 15.9907L28.8446 15.9824C28.8899 15.9779 29.0663 15.9766 29.2363 15.9797L29.2365 15.979ZM12.5673 22.4892C12.6501 22.4882 12.7847 22.4962 12.8663 22.5069C12.948 22.5176 13.0831 22.544 13.1664 22.5655C13.2499 22.5869 13.3923 22.6342 13.483 22.6704C13.5737 22.7066 13.7098 22.7706 13.7856 22.8125C13.8614 22.8547 13.9723 22.9214 14.0319 22.961C14.0915 23.0006 14.1988 23.079 14.2702 23.1353C14.3415 23.1916 14.4988 23.3369 14.6194 23.4582C14.7401 23.5795 14.8896 23.7425 14.9517 23.8205C15.0138 23.8984 15.1174 24.0362 15.1818 24.1268C15.2461 24.2174 15.3291 24.319 15.3659 24.3526C15.4027 24.3863 15.47 24.4319 15.5153 24.454C15.5606 24.476 15.6284 24.5003 15.666 24.5082C15.7035 24.5159 15.773 24.5222 15.8205 24.5222C15.8679 24.5221 15.938 24.5137 15.976 24.5037C16.014 24.4935 16.0763 24.4699 16.1144 24.4514C16.1526 24.4327 16.2155 24.3883 16.2544 24.3527C16.2933 24.3172 16.3724 24.2212 16.43 24.1395C16.4877 24.0577 16.5932 23.9176 16.6646 23.8283C16.736 23.7389 16.8873 23.5725 17.001 23.4585C17.1146 23.3444 17.2678 23.2035 17.3412 23.1455C17.4147 23.0874 17.5248 23.0064 17.5859 22.9655C17.647 22.9247 17.7511 22.861 17.8172 22.8239C17.8832 22.7868 17.9891 22.7337 18.0525 22.7059C18.1157 22.678 18.2276 22.6351 18.3011 22.6105C18.3747 22.5859 18.4919 22.5542 18.5617 22.54C18.6315 22.5257 18.7408 22.5082 18.8046 22.5009C18.8683 22.4936 18.9784 22.4877 19.0493 22.4877C19.1201 22.4877 19.2302 22.4937 19.294 22.5009C19.3577 22.5082 19.4651 22.5253 19.5328 22.5391C19.6002 22.5529 19.7191 22.585 19.7968 22.6105C19.8744 22.636 20.0133 22.6934 20.1054 22.7382C20.1974 22.7831 20.3423 22.866 20.4273 22.9225C20.5123 22.9791 20.6456 23.0803 20.7236 23.1476C20.8015 23.2149 20.9032 23.3126 20.9496 23.3649C20.9959 23.4171 21.0663 23.5004 21.1058 23.55C21.1453 23.5996 21.2096 23.6893 21.2485 23.7496C21.2874 23.8098 21.3457 23.9083 21.3781 23.9686C21.4104 24.0287 21.4574 24.1261 21.4824 24.1848C21.5075 24.2435 21.5459 24.3449 21.5678 24.4102C21.5897 24.4753 21.6214 24.5867 21.6381 24.6576C21.6548 24.7284 21.6772 24.853 21.6878 24.9345C21.6985 25.0159 21.7106 25.1347 21.7149 25.1985C21.7191 25.2622 21.7167 25.3984 21.7092 25.5012C21.7019 25.6038 21.684 25.759 21.6694 25.8458C21.6549 25.9326 21.6256 26.0745 21.6045 26.1613C21.5834 26.248 21.5516 26.3654 21.5339 26.422C21.5162 26.4787 21.478 26.5888 21.4492 26.6667C21.4202 26.7446 21.3512 26.9028 21.2957 27.0183C21.2403 27.1337 21.1648 27.2816 21.128 27.3467C21.0913 27.4119 20.9957 27.5637 20.9156 27.6841C20.8356 27.8045 20.7164 27.972 20.6507 28.0562C20.585 28.1404 20.4602 28.292 20.3734 28.393C20.2867 28.4939 20.1224 28.6726 20.0083 28.7898C19.8943 28.9071 19.6985 29.0982 19.5732 29.2145C19.4481 29.3308 19.247 29.5119 19.1266 29.617C19.0062 29.7221 18.7396 29.9477 18.5341 30.1184C18.3287 30.289 18.0419 30.5235 17.8966 30.6395C17.7515 30.7554 17.55 30.9192 17.4492 31.0035C17.3484 31.088 17.1803 31.2328 17.0757 31.3253C16.9712 31.4177 16.7785 31.5935 16.6474 31.7159C16.5164 31.8384 16.2745 32.0738 16.1099 32.2393L15.8107 32.5403L15.5046 32.233C15.3363 32.064 15.0855 31.8201 14.9473 31.6912C14.8092 31.5621 14.6034 31.3754 14.4901 31.2762C14.3768 31.1771 14.2145 31.0378 14.1295 30.9669C14.0445 30.8958 13.888 30.7688 13.7817 30.6845C13.6755 30.6002 13.4756 30.4385 13.3374 30.3251C13.1994 30.2117 12.9502 30.0038 12.7836 29.8629C12.6172 29.7222 12.3738 29.5106 12.2427 29.3929C12.1117 29.2751 11.8767 29.0512 11.7206 28.8952C11.5645 28.7391 11.3617 28.5245 11.2698 28.4183C11.178 28.312 11.0532 28.1613 10.9924 28.0834C10.9315 28.0055 10.8349 27.8751 10.7776 27.7937C10.7203 27.7121 10.626 27.5672 10.5682 27.4717C10.5103 27.376 10.4225 27.2177 10.3734 27.1197C10.3242 27.0218 10.2555 26.8725 10.2207 26.7879C10.1861 26.7034 10.1346 26.5633 10.1064 26.4766C10.0783 26.39 10.0408 26.261 10.0232 26.1902C10.0055 26.1194 9.98195 26.0151 9.971 25.9584C9.95992 25.9017 9.94152 25.7858 9.92993 25.7008C9.91717 25.6069 9.90905 25.4578 9.90905 25.3209C9.90905 25.1968 9.91562 25.0461 9.92372 24.986C9.93172 24.9257 9.95025 24.8156 9.9648 24.7413C9.97935 24.6669 10.0195 24.5203 10.0539 24.4156C10.0883 24.3109 10.1542 24.148 10.2005 24.0537C10.2466 23.9594 10.3273 23.8181 10.3798 23.7397C10.4322 23.6612 10.512 23.5517 10.5571 23.4962C10.6023 23.4408 10.6885 23.3461 10.7487 23.2857C10.8089 23.2253 10.9133 23.1318 10.9806 23.0779C11.0479 23.0239 11.1579 22.9441 11.2253 22.9004C11.2926 22.8569 11.423 22.7841 11.515 22.7388C11.6071 22.6936 11.7445 22.636 11.8204 22.6109C11.8963 22.5858 12.018 22.5534 12.0909 22.5389C12.1638 22.5245 12.2669 22.5077 12.32 22.5017C12.3732 22.4957 12.4844 22.4901 12.5673 22.4892ZM21.5949 29.03C21.5997 29.0298 21.681 29.0609 21.7756 29.0989C21.8703 29.1369 22.0006 29.1925 22.0653 29.2226C22.1299 29.2526 22.1858 29.2868 22.1895 29.2984C22.1932 29.3101 22.229 29.4123 22.269 29.5257C22.3091 29.639 22.367 29.8187 22.3975 29.9249C22.4282 30.0312 22.4737 30.2108 22.4985 30.3242C22.5234 30.4375 22.5557 30.6056 22.5702 30.6977C22.5848 30.7897 22.6053 30.9404 22.616 31.0325C22.6265 31.1246 22.6416 31.3158 22.6493 31.4575C22.6572 31.5992 22.66 31.8136 22.6555 31.934C22.6511 32.0545 22.6418 32.2225 22.6349 32.3075C22.6279 32.3925 22.6108 32.5548 22.5969 32.6681C22.5829 32.7815 22.5654 32.9148 22.5578 32.9644C22.5503 33.0139 22.5298 33.129 22.5123 33.2199C22.4948 33.3108 22.4608 33.4615 22.4366 33.5547C22.4125 33.648 22.3659 33.8015 22.333 33.8959C22.3002 33.9903 22.2453 34.1294 22.211 34.205C22.1769 34.2806 22.1208 34.393 22.0865 34.4548C22.0521 34.5166 21.9866 34.621 21.9406 34.6866C21.8947 34.7523 21.7904 34.8733 21.7088 34.9553C21.6012 35.0637 21.5093 35.1402 21.3738 35.2343C21.2712 35.3055 21.0364 35.4618 20.8522 35.5816C20.668 35.7014 20.3904 35.8799 20.2352 35.9781L19.9528 36.1569L19.9015 36.0997C19.8731 36.0681 19.775 35.9525 19.6833 35.8428C19.5915 35.7329 19.4318 35.5304 19.3282 35.3926C19.2247 35.2548 19.0526 35.0114 18.946 34.8517C18.8393 34.692 18.6965 34.4686 18.6286 34.3552C18.5609 34.2419 18.4554 34.0581 18.3945 33.9468C18.3335 33.8357 18.2399 33.6574 18.1865 33.5508C18.1332 33.4443 18.0495 33.2686 18.0005 33.1607C17.9516 33.0526 17.8734 32.8726 17.8268 32.7605C17.78 32.6484 17.7419 32.5495 17.7419 32.5407C17.7419 32.5318 17.8025 32.4714 17.8764 32.4065C17.9504 32.3416 18.1691 32.1565 18.3626 31.9953C18.556 31.834 18.7868 31.6444 18.8753 31.5741C18.9639 31.5037 19.0914 31.4024 19.1586 31.3492C19.226 31.2961 19.3824 31.1684 19.5063 31.0657C19.6303 30.9629 19.8332 30.7881 19.9571 30.6774C20.0811 30.5665 20.3055 30.359 20.4558 30.2162C20.6062 30.0732 20.8461 29.8334 20.989 29.683C21.1319 29.5327 21.3248 29.3243 21.4176 29.2199C21.5104 29.1154 21.5902 29.0301 21.5949 29.03ZM31.5133 33.436C31.5338 33.4812 31.5881 33.6081 31.6341 33.7179C31.6802 33.8276 31.7607 34.045 31.813 34.2009C31.8654 34.3567 31.9227 34.5484 31.9402 34.6267C31.9579 34.705 31.9814 34.8296 31.9925 34.9036C32.0037 34.9775 32.018 35.1481 32.0246 35.2827C32.034 35.4799 32.0427 35.5513 32.0695 35.6498C32.0878 35.717 32.1283 35.8248 32.1596 35.8892C32.1907 35.9535 32.2503 36.052 32.2921 36.1081C32.3337 36.1642 32.4037 36.2431 32.4476 36.2837C32.4985 36.3306 32.5705 36.3785 32.6462 36.4158C32.7117 36.448 32.8115 36.4869 32.8681 36.5025C32.9597 36.5275 33.0035 36.5306 33.2609 36.5308C33.471 36.5311 33.5914 36.525 33.6988 36.5089C33.7804 36.4967 33.9397 36.4689 34.053 36.4472C34.1663 36.4256 34.3701 36.3823 34.5057 36.351C34.6414 36.3197 34.9928 36.2336 35.2864 36.1596C35.5802 36.0856 35.9358 36.0016 36.0766 35.9729C36.2173 35.9442 36.4108 35.9112 36.5064 35.8996C36.6276 35.8848 36.731 35.8806 36.8477 35.8856C36.9685 35.8907 37.0439 35.9012 37.1183 35.9229C37.1751 35.9397 37.2617 35.9756 37.3106 36.003C37.3598 36.0306 37.448 36.0993 37.5075 36.1563C37.5668 36.2132 37.6563 36.3136 37.7062 36.3792L37.7972 36.4988L37.7174 36.5884C37.6737 36.6378 37.5237 36.7852 37.3844 36.9162C37.245 37.047 37.0703 37.2072 36.9959 37.2722C36.9215 37.3373 36.7767 37.4585 36.6739 37.5417C36.5712 37.6248 36.406 37.7534 36.3068 37.8277C36.2077 37.9019 36.0598 38.0095 35.9784 38.0669C35.897 38.1242 35.755 38.2203 35.6629 38.2803C35.5708 38.3404 35.3941 38.4504 35.2701 38.5249C35.1462 38.5992 34.9462 38.7141 34.8258 38.78C34.7054 38.8461 34.4952 38.9542 34.3585 39.0203C34.222 39.0865 34.0318 39.1754 33.9357 39.2179C33.8396 39.2604 33.6385 39.3437 33.4886 39.4032C33.3385 39.4626 33.0871 39.5549 32.9297 39.6084C32.7724 39.6618 32.5319 39.7375 32.3953 39.7766C32.2587 39.8156 32.0282 39.8764 31.8829 39.9115C31.7378 39.9467 31.5002 39.9986 31.3549 40.0269C31.2098 40.0551 30.9899 40.0934 30.8664 40.1118C30.743 40.1302 30.546 40.1565 30.4285 40.1703C30.3112 40.1839 30.0964 40.2053 29.9511 40.2177C29.7458 40.2353 29.5454 40.2403 29.0496 40.2407C28.5385 40.2409 28.3559 40.2363 28.1287 40.2174C27.9729 40.2043 27.8251 40.1896 27.8003 40.1846L27.7552 40.1755L27.7433 40.0989C27.7368 40.0567 27.7312 39.8599 27.7307 39.6615L27.7301 39.3009L27.7596 39.1657C27.7759 39.0912 27.8119 38.9724 27.8397 38.9013C27.8675 38.8302 27.9204 38.7258 27.9573 38.6694C27.9942 38.613 28.0711 38.5202 28.128 38.4632C28.1851 38.4063 28.281 38.3271 28.3412 38.2874C28.4015 38.2478 28.5202 38.179 28.6052 38.1347C28.6902 38.0905 28.8061 38.0238 28.8628 37.9866C28.9195 37.9495 29.001 37.8909 29.0439 37.8565C29.0868 37.8221 29.1621 37.7583 29.2113 37.7145C29.2605 37.6708 29.3546 37.5745 29.4207 37.5005C29.4867 37.4266 29.5844 37.3089 29.638 37.2388C29.6914 37.1688 29.7695 37.0606 29.8115 36.9985C29.8534 36.9363 29.9274 36.8198 29.9759 36.7395C30.0243 36.6592 30.1118 36.5049 30.17 36.3967C30.2283 36.2884 30.3252 36.0948 30.3853 35.9666C30.4456 35.8384 30.5382 35.6319 30.5911 35.508C30.6442 35.384 30.7282 35.1812 30.7779 35.0573C30.8276 34.9332 30.9422 34.6435 31.0325 34.4133C31.1229 34.183 31.2321 33.9099 31.2753 33.8061C31.3184 33.7024 31.3813 33.5582 31.4149 33.4855L31.4762 33.3535L31.5133 33.436Z" fill="#6CAD55"/>
</svg>
