<svg width="24" height="25" viewBox="0 0 24 25" fill="none" xmlns="http://www.w3.org/2000/svg">
<path d="M19.5 6.37988H6.5C5.65625 6.37988 5 7.06738 5 7.87988V16.8799C5 17.7236 5.65625 18.3799 6.5 18.3799H19.5C20.3125 18.3799 21 17.7236 21 16.8799V7.87988C21 7.06738 20.3125 6.37988 19.5 6.37988ZM19.5 7.87988V9.16113C18.7812 9.75488 17.6562 10.6299 15.2812 12.5049C14.75 12.9111 13.7188 13.9111 13 13.8799C12.25 13.9111 11.2188 12.9111 10.6875 12.5049C8.3125 10.6299 7.1875 9.75488 6.5 9.16113V7.87988H19.5ZM6.5 16.8799V11.0986C7.1875 11.6611 8.21875 12.4736 9.75 13.6924C10.4375 14.2236 11.6562 15.4111 13 15.3799C14.3125 15.4111 15.5 14.2236 16.2188 13.6924C17.75 12.4736 18.7812 11.6611 19.5 11.0986V16.8799H6.5Z" fill="white"/>
</svg>
