<svg width="24" height="25" viewBox="0 0 24 25" fill="none" xmlns="http://www.w3.org/2000/svg">
<path d="M19.125 14.6924L15.9375 13.3486C15.7812 13.2861 15.5938 13.2236 15.375 13.2236C14.9375 13.2236 14.5312 13.4424 14.2812 13.7549L13.25 15.0049C11.5938 14.0986 10.2812 12.7861 9.375 11.1299L10.625 10.0986C10.9375 9.84863 11.1562 9.44238 11.1562 9.00488C11.1562 8.78613 11.0938 8.59863 11.0312 8.44238L9.6875 5.25488C9.46875 4.75488 8.9375 4.37988 8.34375 4.37988C8.25 4.37988 8.15625 4.41113 8.03125 4.44238L5.09375 5.09863C4.46875 5.25488 4 5.81738 4 6.50488C4 14.1924 10.2188 20.4111 17.875 20.3799C18.5625 20.3799 19.125 19.9111 19.2812 19.2861L19.9375 16.3486C19.9688 16.2236 20 16.1299 20 16.0361C20 15.4424 19.625 14.9111 19.125 14.6924ZM17.8125 18.9111C11.0312 18.8799 5.53125 13.3486 5.5 6.56738L8.3125 5.91113L9.625 8.97363L7.5 10.7236C8.96875 13.8174 10.5625 15.4111 13.6562 16.8799L15.4062 14.7549L18.4688 16.0674L17.8125 18.9111Z" fill="white"/>
</svg>
