<svg width="25" height="24" viewBox="0 0 25 24" fill="none" xmlns="http://www.w3.org/2000/svg">
<path d="M18.25 4.21875L5.25 11.7188C4.15625 12.3438 4.25 13.9375 5.40625 14.4062L9 15.875V18.5C9 19.9688 10.8438 20.5625 11.6875 19.4062L13.0625 17.5625L16.5625 19C16.75 19.0938 16.9375 19.125 17.125 19.125C17.375 19.125 17.625 19.0625 17.875 18.9375C18.2812 18.6875 18.5312 18.3125 18.625 17.8438L20.4688 5.75C20.6562 4.5 19.3125 3.59375 18.25 4.21875ZM10.5 18.5V16.5L11.625 16.9688L10.5 18.5ZM17.125 17.625L12.3125 15.625L16.7188 9.3125C17.0312 8.8125 16.4062 8.25 15.9688 8.65625L9.34375 14.4062L6 13L19 5.5L17.125 17.625Z" fill="#EEF4C3"/>
</svg>
