<svg width="24" height="24" viewBox="0 0 24 24" fill="none" xmlns="http://www.w3.org/2000/svg">
<path d="M19 10.5625H18.9688C17.5312 10.5625 16.2188 10.125 15.1562 9.34375V14.9375C15.1562 17.75 12.875 20 10.0625 20C7.25 20 5 17.75 5 14.9375C5 12.125 7.25 9.84375 10.0625 9.84375C10.3125 9.84375 10.5312 9.875 10.7812 9.90625V12.7188C10.5312 12.625 10.3125 12.5938 10.0625 12.5938C8.78125 12.5938 7.71875 13.6562 7.71875 14.9375C7.71875 16.2188 8.78125 17.2812 10.0625 17.2812C11.3438 17.2812 12.4062 16.2188 12.4062 14.9375V4H15.1562C15.1562 4.03125 15.1562 4.03125 15.1562 4.0625C15.1562 4.28125 15.1562 4.5 15.2188 4.71875C15.4062 5.75 16.0312 6.65625 16.9062 7.21875C17.5 7.625 18.2188 7.84375 18.9688 7.84375C18.9688 7.84375 18.9688 7.84375 19 7.84375V10.5625Z" fill="#6CAD55"/>
</svg>
